<svg id="Слой_1" data-name="Слой 1" xmlns="http://www.w3.org/2000/svg" viewBox="0 0 16.67 16.94"><title>24ч</title><path d="M15.43,7.91a.75.75,0,0,0-.75.75,6.38,6.38,0,1,1-2.94-5.34l-.64.12a.75.75,0,0,0,.14,1.49h.14l2.53-.49a.75.75,0,0,0,.6-.87L14.06,1a.75.75,0,0,0-1.48.27l.16.85a7.84,7.84,0,1,0,3.45,6.49A.75.75,0,0,0,15.43,7.91Z"/><path d="M4.27,10.72v.82H8v-1H5.91l.7-.8a9.23,9.23,0,0,0,.81-.89,2.72,2.72,0,0,0,.37-.63,1.68,1.68,0,0,0,.12-.62,1.44,1.44,0,0,0-.47-1.16,2,2,0,0,0-1.35-.4,2,2,0,0,0-1,.24A1.75,1.75,0,0,0,4.4,7a1.78,1.78,0,0,0-.25.92H5.41a1,1,0,0,1,.18-.61A.55.55,0,0,1,6,7a.54.54,0,0,1,.44.18.81.81,0,0,1,.15.53A2.07,2.07,0,0,1,6,8.9Z"/><path d="M12,11.54V10.39h.55v-1H12V6.14H10.71L8.55,9.63l.07.76h2.09v1.15ZM9.74,9.43l.89-1.53.08-.13V9.43Z"/></svg>