<svg id="Слой_1" data-name="Слой 1" xmlns="http://www.w3.org/2000/svg" viewBox="0 0 103.67 45.67"><title>автовокзал3</title><path d="M94.87,7.95h4.7a1.18,1.18,0,0,1,.68.14.56.56,0,0,1,.14.44v3.79h2.34V8.51A3.25,3.25,0,0,0,102,6.13a3.28,3.28,0,0,0-2.39-.76h-6.2C89.91.5,85.35.63,75.8.76h-39v0H5A3.64,3.64,0,0,0,1.4,4.18L.93,32.64c0,.1,0,.21,0,.33a5.24,5.24,0,0,0,5.29,5H16s0,.32,0,.34a6.64,6.64,0,0,0,7.51,6.57,6.78,6.78,0,0,0,5.75-6.82V38s40.65,0,40.65,0a6.94,6.94,0,0,0,6.63,7,6.64,6.64,0,0,0,6.63-6.63s14.39,0,15.33-.34c1.38-.52,5.63-7.47-2.63-27.77C95.55,9.38,95.21,8.64,94.87,7.95Z"/></svg>