<svg id="Слой_1" data-name="Слой 1" xmlns="http://www.w3.org/2000/svg" viewBox="0 0 18.38 17.57"><title>скрепка</title><path fill="#fff" d="M16.52,7.81,9.23.53a.83.83,0,0,0-1.12,0,.8.8,0,0,0,0,1.12l7.27,7.27a3.94,3.94,0,0,1-2.59,6.73,4,4,0,0,1-3.07-1.13L2.65,7.43A2.88,2.88,0,0,1,4.54,2.54a2.88,2.88,0,0,1,2.1.83l6.15,6.15a1.66,1.66,0,0,1,.48,1.21,1.62,1.62,0,0,1-1.47,1.58h-.18a1.71,1.71,0,0,1-1.29-.48l-6.2-6.2A.79.79,0,1,0,3,6.75L9.22,13a3.1,3.1,0,0,0,2.5.93l.17,0a3.2,3.2,0,0,0,3-3.11,3.26,3.26,0,0,0-.95-2.36L7.76,2.26A4.4,4.4,0,0,0,4.47,1,4.45,4.45,0,0,0,1.53,8.55l7.09,7.09a5.58,5.58,0,0,0,4,1.62H13a5.53,5.53,0,0,0,3.54-9.43Z"/></svg>