<?xml version="1.0" encoding="utf-8"?>
<!-- Generator: Adobe Illustrator 21.0.0, SVG Export Plug-In . SVG Version: 6.00 Build 0)  -->
<svg version="1.1" id="Layer_1" xmlns="http://www.w3.org/2000/svg" xmlns:xlink="http://www.w3.org/1999/xlink" x="0px" y="0px"
	 viewBox="0 0 2206 1230.3" style="enable-background:new 0 0 2206 1230.3;" xml:space="preserve">
<style type="text/css">
	.st0{fill:#FFFFFF;}
	.st1{fill:#D51C43;}
</style>
<g>
	<g>
		<g>
			<path class="st0" d="M1126.4,900.8c-0.9,11.5-6.8,23.4-15.4,31.1c-2.9,2.6-4.2,6.7-3.2,10.5l4.4,17.4c1,3.8,3.9,6.8,7.8,7.8
				l38.2,9.5c5.3,1.3,10.2,3.8,14.6,7.6c4.5,3.8,11.2,3.2,15-1.3c3.8-4.5,3.2-11.2-1.3-15c-6.9-5.8-14.7-9.8-23.1-11.9l-32-8
				l-1.3-5.4c8.3-9.2,14.2-20.9,16.6-33c5.7-2.9,9.9-8.6,10.7-15.3l2.3-18.5c0.7-5.6-1-11.3-4.8-15.6c-1.2-1.3-2.5-2.5-3.9-3.4
				l0.6-11.3l1.9-2c5.5-5.8,12.9-18.3,1.2-36.3c-5.6-8.5-17.1-18.8-40.2-18.8c-6.8,0-22.1,0-37,9.4c-43.9,1.5-49.1,25.2-49.1,43.1
				c0,3.5,0.6,10.1,1.2,15.6c-1.6,1-3,2.2-4.3,3.7c-3.8,4.3-5.5,10-4.8,15.6l2.3,18.6c0.9,7,5.3,12.7,11.8,15.6
				c2.4,11.6,8,22.9,15.8,31.9l-1.6,6.3l-32,8c-25.9,6.5-44.1,29.7-44.1,56.4c0,5.9,4.8,10.7,10.7,10.7h150.5
				c5.9,0,10.7-4.8,10.7-10.7s-4.8-10.7-10.7-10.7l-138.3,0c3.6-12.2,13.5-21.9,26.3-25.1l38.2-9.5c3.8-1,6.8-3.9,7.8-7.8l4.5-18.2
				c0.9-3.7-0.2-7.7-3.1-10.3c-8.3-7.8-13.8-19.2-14.7-30.5c-0.4-5.5-5.2-8.6-10.8-8.6l-2.8-17c3.1,0,6-1.3,8-3.6
				c2-2.3,3-5.4,2.6-8.4c-0.8-6.4-2.1-18.1-2.1-21.8c0-11,0-21.5,31.2-21.8c2.2,0,4.3-0.7,6.1-2c10.2-7.3,21.8-7.3,27.5-7.3
				c16.4,0,20.8,6.8,22.4,9.1c4.3,6.7,2.6,8.5,1.4,9.8l-4.6,4.6c-1.9,1.9-3,4.4-3.1,7l-1.2,23.2c-0.1,2.9,0.2,4.9,2.2,7
				c2,2.1,4.1,2.5,7,2.6l-1.4,17.3C1131.5,891,1126.9,895.3,1126.4,900.8z"/>
			<path class="st0" d="M1239.3,852.9h64c5.9,0,10.7-4.8,10.7-10.7s-4.8-10.7-10.7-10.7h-64c-5.9,0-10.7,4.8-10.7,10.7
				C1228.7,848.2,1233.4,852.9,1239.3,852.9z"/>
			<path class="st0" d="M1388.7,682.3H983.3c-29.4,0-53.3,23.9-53.3,53.3v277.3c0,29.4,23.9,53.3,53.3,53.3h157.8
				c5.9,0,10.7-4.8,10.7-10.7c0-5.9-4.8-10.7-10.7-10.7H983.3c-17.6,0-32-14.4-32-32V767.6h469.3v209.3c0,5.9,4.8,10.7,10.7,10.7
				s10.7-4.8,10.7-10.7V735.6C1442,706.2,1418.1,682.3,1388.7,682.3z M1420.7,746.3H951.3v-10.7c0-17.6,14.4-32,32-32h405.3
				c17.6,0,32,14.4,32,32L1420.7,746.3L1420.7,746.3z"/>
			<path class="st0" d="M1388.7,852.9c5.9,0,10.7-4.8,10.7-10.7s-4.8-10.7-10.7-10.7H1346c-5.9,0-10.7,4.8-10.7,10.7
				c0,5.9,4.8,10.7,10.7,10.7H1388.7L1388.7,852.9z"/>
			<path class="st1" d="M1442,1023.6c0-8.9-6.6-15.1-16.1-15.1c-5.4,0-14.5,2.8-22.4,7.3c-10.4-22-27.5-41.5-39.7-47.6
				c-8.1-4-35.6-8.5-60.4-8.5c-24.8,0-52.3,4.5-60.4,8.5c-12.2,6.1-29.2,25.6-39.7,47.6c-7.9-4.5-17.1-7.3-22.4-7.3
				c-4.1,0-7.5,1-10.3,3.2c-3.7,2.8-5.8,7.1-5.8,12c0,16.6,12.9,28.2,14.4,29.4c1.2,1,2.5,1.6,3.8,2c-5.1,14.1-7.6,29.8-7.6,43.2
				c0,15.9,1.5,43.1,10.7,57v17.7c0,12,9.4,21.3,21.3,21.3h21.3c12,0,21.3-9.4,21.3-21.3v-7.2c12.9,3.2,33,7.2,53.3,7.2
				c20.4,0,40.4-4,53.3-7.2v7.2c0,12,9.4,21.3,21.3,21.3h21.3c12,0,21.3-9.4,21.3-21.3v-17.7c9.2-13.9,10.7-41.1,10.7-57
				c0-13.4-2.5-29.1-7.6-43.2c1.4-0.4,2.7-1,3.8-2C1429.1,1051.8,1442,1040.2,1442,1023.6z M1252.4,987.3c4-1.8,26.8-6.3,50.9-6.3
				c24.2,0,46.9,4.5,50.9,6.3c8.1,4.1,26.9,25.3,34.3,48.5c-20.1,2.8-67.5,9.2-85.2,9.2c-17.7,0-65.2-6.4-85.2-9.2
				C1225.6,1012.5,1244.4,991.3,1252.4,987.3z M1192.2,1036.1c-0.7-0.7-1.7-1.8-3-3.6c1.4,0.7,2.8,1.4,4,2.2
				C1192.9,1035.1,1192.5,1035.6,1192.2,1036.1z M1228.7,1172.9h-21.3v-10.7h21.3V1172.9z M1399.3,1172.9H1378v-10.7h21.3V1172.9z
				 M1404.2,1140.9h-36.9c-1.1,0-2.3,0.2-3.4,0.5c-0.3,0.1-30.8,10.1-60.6,10.1s-60.3-10-60.6-10.1c-0.4-0.1-0.7,0-1.1-0.1
				c-0.7-0.2-1.5-0.5-2.3-0.5h-36.9c-2.8-6.4-5.7-21.1-5.7-42.6c0-3.4,0.3-7,0.6-10.6c14.3,0.4,31.4,5.2,31.4,10.6
				c0,5.9,4.8,10.7,10.7,10.7c5.9,0,10.7-4.8,10.7-10.7c0-26.1-35.2-30.9-48.5-31.8c1.2-3.9,2.6-7.6,4.2-11c0,0,0,0,0.1,0
				c3,0.4,73.4,10.8,97.6,10.8c24.1,0,94.6-10.3,97.6-10.8c0,0,0,0,0,0c1.6,3.5,3.1,7.1,4.2,11c-13.3,0.9-48.5,5.7-48.5,31.8
				c0,5.9,4.8,10.7,10.7,10.7s10.7-4.8,10.7-10.7c0-5.5,16.9-10.2,31.4-10.6c0.4,3.6,0.6,7.3,0.6,10.6
				C1410,1119.9,1407,1134.6,1404.2,1140.9z M1414.5,1036.1c-0.3-0.5-0.7-1-1-1.4c1.3-0.7,2.6-1.5,4-2.2
				C1416.4,1034,1415.3,1035.2,1414.5,1036.1z"/>
			<path class="st0" d="M1239.3,916.9h149.3c5.9,0,10.7-4.8,10.7-10.7s-4.8-10.7-10.7-10.7h-149.3c-5.9,0-10.7,4.8-10.7,10.7
				C1228.7,912.2,1233.4,916.9,1239.3,916.9z"/>
			<path class="st1" d="M1324.7,1087.6H1282c-5.9,0-10.7,4.8-10.7,10.7c0,5.9,4.8,10.7,10.7,10.7h42.7c5.9,0,10.7-4.8,10.7-10.7
				C1335.3,1092.4,1330.6,1087.6,1324.7,1087.6z"/>
		</g>
	</g>
</g>
</svg>
