<?xml version="1.0" encoding="utf-8"?>
<!-- Generator: Adobe Illustrator 21.0.0, SVG Export Plug-In . SVG Version: 6.00 Build 0)  -->
<svg version="1.1" id="Layer_1" xmlns="http://www.w3.org/2000/svg" xmlns:xlink="http://www.w3.org/1999/xlink" x="0px" y="0px"
	 viewBox="-49 141 512 512" style="enable-background:new -49 141 512 512;" xml:space="preserve">
<style type="text/css">
	.st0{fill:#D51C43;}
	.st1{fill:#FFFFFF;}
</style>
<path class="st0" d="M417,513.2H266.6c-25.4,0-46,20.6-46,46c0,5.7,4.7,10.4,10.4,10.4h221.7c5.7,0,10.4-4.7,10.4-10.4
	C463,533.8,442.4,513.2,417,513.2z M243,549.2c3.9-9.2,13-15.6,23.6-15.6H417c10.6,0,19.7,6.4,23.6,15.6H243z"/>
<path class="st1" d="M271.1,385.9v52.5c-12.1,3.2-21.1,14.1-21.1,27.2c0,15.6,12.7,28.3,28.3,28.3h127.1c15.6,0,28.3-12.7,28.3-28.3
	c0-13-9-24-21.1-27.2V280.1c12.1-3.2,21.1-14.3,21.1-27.4c0-15.6-12.7-28.3-28.3-28.3H278.3c-15.6,0-28.3,12.7-28.3,28.3
	c0,13.1,9,24.2,21.1,27.4v52.6h-98.9c-0.5-5.2-4.9-9.2-10.1-9.2H-13.2c-19.7,0-35.8,16-35.8,35.8C-49,379-33,395-13.2,395H162
	c5.3,0,9.6-4,10.1-9.2H271.1z M291.4,281.1h100.7v156.4H291.4V281.1z M405.3,457.9c4.4,0,7.9,3.4,7.9,7.7c0,4.4-3.6,7.9-7.9,7.9
	H278.3c-4.4,0-7.9-3.6-7.9-7.9c0-4.3,3.5-7.7,7.9-7.7H405.3z M278.3,260.7c-4.4,0-7.9-3.6-7.9-7.9c0-4.4,3.6-7.9,7.9-7.9h127.1
	c4.4,0,7.9,3.6,7.9,7.9c0,4.4-3.6,7.9-7.9,7.9H278.3z M271.1,365.5h-98.9v-12.4h98.9V365.5z M-28.6,359.3c0-8.5,6.9-15.4,15.4-15.4
	h165v30.7h-165C-21.7,374.6-28.6,367.7-28.6,359.3z"/>
<path class="st0" d="M372.2,427.6c5.6,0,10.2-4.6,10.2-10.2v-60.2c0-5.6-4.6-10.2-10.2-10.2s-10.2,4.6-10.2,10.2v60.2
	C362,423,366.6,427.6,372.2,427.6z"/>
<path class="st0" d="M372.2,338.9c5.6,0,10.2-4.6,10.2-10.2v-3.1c0-5.6-4.6-10.2-10.2-10.2S362,320,362,325.6v3.1
	C362,334.3,366.6,338.9,372.2,338.9z"/>
</svg>
