<?xml version="1.0" encoding="utf-8"?>
<!-- Generator: Adobe Illustrator 21.0.0, SVG Export Plug-In . SVG Version: 6.00 Build 0)  -->
<svg version="1.1" id="Слой_1" xmlns="http://www.w3.org/2000/svg" xmlns:xlink="http://www.w3.org/1999/xlink" x="0px" y="0px"
	 viewBox="0 0 255.1 141.7" style="enable-background:new 0 0 255.1 141.7;" xml:space="preserve">
<style type="text/css">
	.st0{fill:#FFFFFF;}
	.st1{fill:#C94D51;}
</style>
<g>
	<path class="st0" d="M172.8-55H80.4c-9.9,0-18,8.1-18,18v198.6c0,9.9,8.1,18,18,18h92.4c9.9,0,18-8.1,18-18V-37
		C190.8-47,182.7-55,172.8-55L172.8-55z M80.4-43h92.4c3.3,0,6,2.7,6,6v164.7H74.4V-37C74.4-40.4,77.1-43,80.4-43L80.4-43z
		 M172.8,167.6H80.4c-3.3,0-6-2.7-6-6v-21.9h104.4v21.9C178.8,164.9,176.1,167.6,172.8,167.6L172.8,167.6z M172.8,167.6"/>
	<path class="st0" d="M133.2,147.8H120c-3.3,0-6,2.7-6,6c0,3.3,2.7,6,6,6h13.2c3.3,0,6-2.7,6-6C139.2,150.5,136.5,147.8,133.2,147.8
		L133.2,147.8z M133.2,147.8"/>
</g>
<g>
	<path class="st1" d="M226.3,13.6c-2.2-2.5-6-2.7-8.5-0.4c-2.5,2.2-2.7,6-0.4,8.5c9,10,14.8,25.9,14.8,40.5
		c0,14.7-5.9,30.8-15.1,40.8c-2.2,2.4-2.1,6.2,0.4,8.5c1.2,1.1,2.6,1.6,4,1.6c1.6,0,3.2-0.7,4.4-2c11.1-12.1,18.2-31.3,18.2-48.9
		C244.2,44.7,237.2,25.6,226.3,13.6L226.3,13.6z M226.3,13.6"/>
	<path class="st1" d="M210.2,29.6c-2.2-2.5-6-2.7-8.5-0.4c-2.5,2.2-2.7,6-0.4,8.5c4.9,5.5,8.5,15.8,8.5,24.5
		c0,8.8-3.6,19.2-8.7,24.7c-2.2,2.4-2.1,6.2,0.4,8.5c1.2,1.1,2.6,1.6,4,1.6c1.6,0,3.2-0.7,4.4-2c7.1-7.7,11.8-20.9,11.8-32.8
		C221.8,52.3,218.2,38.5,210.2,29.6L210.2,29.6z M210.2,29.6"/>
	<path class="st1" d="M21,62.4c0-14.7,5.9-30.7,15.1-40.8c2.2-2.4,2.1-6.2-0.4-8.5c-2.4-2.2-6.2-2.1-8.5,0.4
		C16.2,25.7,9,44.9,9,62.4c0,17.4,7,36.4,17.9,48.5c1.2,1.3,2.8,2,4.5,2c1.4,0,2.9-0.5,4-1.5c2.5-2.2,2.7-6,0.4-8.5
		C26.8,92.9,21,77,21,62.4L21,62.4z M21,62.4"/>
	<path class="st1" d="M51.7,29.2c-2.4-2.2-6.2-2.1-8.5,0.4c-7.1,7.7-11.8,20.9-11.8,32.8c0,9.8,3.6,23.7,11.6,32.6
		c1.2,1.3,2.8,2,4.5,2c1.4,0,2.9-0.5,4-1.5c2.5-2.2,2.7-6,0.4-8.5c-4.9-5.5-8.5-15.8-8.5-24.5c0-8.8,3.6-19.2,8.7-24.7
		C54.3,35.2,54.2,31.4,51.7,29.2L51.7,29.2z M51.7,29.2"/>
</g>
</svg>
