<svg xmlns="http://www.w3.org/2000/svg" width="29" height="30" viewBox="0 0 29 30">
    <g fill="#000" fill-rule="nonzero">
        <path d="M18.836 17.524a1.21 1.21 0 0 0-1.752.02 1.31 1.31 0 0 0 .019 1.81l9.753 9.865a1.214 1.214 0 0 0 1.752-.02 1.31 1.31 0 0 0-.019-1.81l-9.753-9.865zM10.073 11.876a1.215 1.215 0 0 0 1.752 0 1.31 1.31 0 0 0 0-1.81L2.485.414a1.21 1.21 0 0 0-1.752 0 1.31 1.31 0 0 0 0 1.81l9.34 9.652zM28.599.414a1.21 1.21 0 0 0-1.752 0L.732 27.4a1.31 1.31 0 0 0 0 1.81 1.215 1.215 0 0 0 1.753 0L28.599 2.225a1.31 1.31 0 0 0 0-1.81z"/>
    </g>
</svg>
