<svg xmlns="http://www.w3.org/2000/svg" xmlns:xlink="http://www.w3.org/1999/xlink" width="140" height="128" viewBox="0 0 140 128">
    <defs>
        <path id="b" d="M8 0h100v100H8z"/>
        <filter id="a" width="147.2%" height="147.2%" x="-23.6%" y="-16.6%" filterUnits="objectBoundingBox">
            <feMorphology in="SourceAlpha" operator="dilate" radius=".6" result="shadowSpreadOuter1"/>
            <feOffset dy="7" in="shadowSpreadOuter1" result="shadowOffsetOuter1"/>
            <feMorphology in="SourceAlpha" radius="1" result="shadowInner"/>
            <feOffset dy="7" in="shadowInner" result="shadowInner"/>
            <feComposite in="shadowOffsetOuter1" in2="shadowInner" operator="out" result="shadowOffsetOuter1"/>
            <feGaussianBlur in="shadowOffsetOuter1" result="shadowBlurOuter1" stdDeviation="6.5"/>
            <feColorMatrix in="shadowBlurOuter1" values="0 0 0 0 0.917647059 0 0 0 0 0.988235294 0 0 0 0 0.874509804 0 0 0 0.4 0"/>
        </filter>
        <linearGradient id="e" x1="-12.849%" y1="-66.504%" y2="224.767%">
            <stop offset="0%" stop-color="#60C7D1"/>
            <stop offset="100%" stop-color="#3D4381"/>
        </linearGradient>
        <path id="d" d="M115 22c-10.475 0-21.742 8.073-26.76 19.168-4.438 9.812-7.08 11.407-17.464 11.407-3.869 0-6.993.929-12.039 3.139-5.249 2.299-6.475 2.75-8.706 2.936-1.202.1-2.33-.016-3.436-.373-1.707-.551-3.282-1.21-5.468-2.238-.306-.144-1.97-.937-2.441-1.157a50.18 50.18 0 0 0-2.421-1.068c-3.557-1.443-6.511-1.893-9.832-1.219-3.082.626-5.333 1.933-8.352 4.487-.338.286-2.322 2.008-2.921 2.508-4.305 3.592-8.189 5.53-14.304 6.42a1 1 0 0 0 .288 1.98c6.514-.95 10.727-3.05 15.297-6.865.618-.515 2.608-2.243 2.931-2.516 2.786-2.356 4.769-3.508 7.46-4.054 2.888-.586 5.46-.194 8.681 1.112.695.282 1.42.604 2.326 1.027.463.216 2.124 1.007 2.436 1.154 2.257 1.063 3.901 1.75 5.706 2.332 1.366.441 2.758.585 4.216.463 2.55-.212 3.845-.69 9.342-3.097 4.811-2.107 7.717-2.971 11.237-2.971 11.148 0 14.515-2.033 19.286-12.583C94.772 31.581 105.352 24 115 24a1 1 0 1 0 0-2z"/>
        <filter id="c" width="139.7%" height="200%" x="-19.8%" y="-34.8%" filterUnits="objectBoundingBox">
            <feOffset dy="7" in="SourceAlpha" result="shadowOffsetOuter1"/>
            <feGaussianBlur in="shadowOffsetOuter1" result="shadowBlurOuter1" stdDeviation="6.5"/>
            <feColorMatrix in="shadowBlurOuter1" values="0 0 0 0 0.917647059 0 0 0 0 0.988235294 0 0 0 0 0.874509804 0 0 0 0.4 0"/>
        </filter>
    </defs>
    <g fill="none" fill-rule="evenodd">
        <g transform="translate(12 7)">
            <use fill="#000" filter="url(#a)" xlink:href="#b"/>
            <use stroke="#C1C5C9" stroke-width="1.2" xlink:href="#b"/>
        </g>
        <path fill="#000" fill-rule="nonzero" d="M90 35v45h1V35zM48 35v45h1V35zM69 35v45h1V35z" opacity=".1"/>
        <g fill-rule="nonzero" transform="translate(12 7)">
            <use fill="#000" filter="url(#c)" xlink:href="#d"/>
            <use fill="url(#e)" fill-rule="evenodd" xlink:href="#d"/>
        </g>
    </g>
</svg>
