<svg xmlns="http://www.w3.org/2000/svg" xmlns:xlink="http://www.w3.org/1999/xlink" width="205" height="47" viewBox="0 0 205 47">
    <defs>
        <path id="a" d="M22.188.694H.485v24.841h21.5z"/>
    </defs>
    <g fill="none" fill-rule="evenodd">
        <path fill="#3D4381" d="M13.043 46.337H0l1.998-8.957h24.089v8.957H13.043z"/>
        <path fill="#0F87BD" d="M48.191 46.337H24.096l1.99-8.957h24.097z"/>
        <path fill="#60C7D1" d="M72.283 46.337H48.188l1.991-8.957h24.096z"/>
        <path fill="#07B79C" d="M96.38 46.337H72.282l1.992-8.957H98.37z"/>
        <path fill="#FCE264" d="M120.474 46.337H96.38l1.99-8.957h24.097z"/>
        <path fill="#FCB94C" d="M144.57 46.337h-24.096l1.992-8.957h24.096z"/>
        <path fill="#D21F25" d="M168.663 46.337h-24.096l1.992-8.957h24.096z"/>
        <path fill="#221F20" d="M192.758 46.337h-24.095l1.992-8.957h24.095z"/>
        <g>
            <path fill="#221F20" d="M18.585 9.703a180.879 180.879 0 0 0-3.049 6.13h6.745a132.94 132.94 0 0 0-.502-6.292c-.205-1.946-.405-3.361-.6-4.248-.735 1.037-1.6 2.509-2.594 4.41zM5.679 25.593v-.258c1.707-4.238 3.853-8.74 6.436-13.507 2.583-4.768 4.74-8.286 6.47-10.557h7.036c.649 2.185 1.303 5.724 1.963 10.622.66 4.896.978 9.464.957 13.7h-5.903c0-.821-.01-1.696-.032-2.626-.021-.93-.055-1.87-.097-2.821H13.59c-.41.93-.815 1.86-1.215 2.788-.4.93-.773 1.817-1.119 2.66H5.68zM34.442 25.593L39.63 1.271h4.702l7.037 14.691 3.146-14.69h5.675l-5.189 24.321h-4.734l-7.036-14.69-3.114 14.69zM68.492 25.593l1.946-9.599-4.703-14.463v-.26h5.578l3.146 10.41 7.393-10.41h5.124v.26L76.112 16.027l-2.01 9.566zM87.43 25.593l5.188-24.322h5.157l4.475 10.15 9.112-10.15h5.157l-5.19 24.322h-5.675l3.276-15.339-7.459 7.88h-1.524l-3.567-7.88-3.275 15.34zM130.267 9.703a180.929 180.929 0 0 0-3.048 6.13h6.745c-.13-2.25-.297-4.346-.503-6.292-.205-1.946-.405-3.361-.6-4.248-.735 1.037-1.6 2.509-2.594 4.41zm-12.906 15.89v-.258c1.708-4.238 3.854-8.74 6.436-13.507 2.583-4.768 4.74-8.286 6.47-10.557h7.037c.649 2.185 1.302 5.724 1.962 10.622.66 4.896.978 9.464.956 13.7h-5.9a121.6 121.6 0 0 0-.13-5.447h-8.92c-.41.93-.815 1.86-1.215 2.788-.4.93-.773 1.817-1.118 2.66h-5.578zM148.978 25.593l4.314-20.073h-7.005l.907-4.249h19.555l-.94 4.25h-6.875l-4.281 20.072zM167.624 25.593l5.189-24.322h5.674L173.3 25.593z"/>
            <g transform="translate(181.472 .318)">
                <mask id="b" fill="#fff">
                    <use xlink:href="#a"/>
                </mask>
                <path fill="#221F20" d="M1.221 14.876l.617-2.952C2.68 8.011 4.302 5.2 6.703 3.492 9.102 1.785 12.063.931 15.588.931c1.167 0 2.405.118 3.712.356 1.308.239 2.492.606 3.27.995L21.036 8.65h-4.572l.648-3.113c-.236-.108-.62-.194-1.151-.26a11.2 11.2 0 0 0-1.312-.097c-1.881 0-3.421.568-4.622 1.703-1.199 1.135-2.037 2.784-2.513 4.945l-.617 2.952a6.964 6.964 0 0 0-.177 1.102c-.034.39-.049.735-.049 1.038 0 1.535.427 2.686 1.28 3.453.854.768 2.038 1.152 3.552 1.152h1.07c.908 0 1.946-.124 3.113-.373 1.166-.248 2.021-.481 2.562-.698l-1.136 4.123c-.605.281-.978.602-2.156.84-1.179.238-2.233.356-3.162.356h-1.491c-2.745 0-4.994-.621-6.745-1.865C1.805 22.664.93 20.67.93 17.924c0-.497.026-1.021.08-1.573.056-.551.125-1.043.211-1.475z" mask="url(#b)"/>
            </g>
        </g>
    </g>
</svg>
