<?xml version="1.0" encoding="UTF-8"?>
<svg width="110px" height="52px" viewBox="0 0 110 52" version="1.1" xmlns="http://www.w3.org/2000/svg" xmlns:xlink="http://www.w3.org/1999/xlink">
    <!-- Generator: Sketch 45.2 (43514) - http://www.bohemiancoding.com/sketch -->
    <title>SFD_snapback-1</title>
    <desc>Created with Sketch.</desc>
    <defs>
        <polygon id="path-1" points="0.10508615 25.2407646 19.7807175 25.2407646 19.7807175 0.114577933 0.10508615 0.114577933"></polygon>
        <polygon id="path-3" points="0.125389464 0.0414920724 55.2702704 0.0414920724 55.2702704 49.4085493 0.125389464 49.4085493 0.125389464 0.0414920724"></polygon>
        <polygon id="path-5" points="0.00885728649 0.0252286301 0.00885728649 29.0496127 31.47942 29.0496127 31.47942 0.0252286301"></polygon>
    </defs>
    <g id="Mobile" stroke="none" stroke-width="1" fill="none" fill-rule="evenodd">
        <g id="Home" transform="translate(-116.000000, -16.000000)">
            <g id="SFD_snapback-1" transform="translate(116.000000, 16.000000)">
                <g id="Group-3" transform="translate(33.510067, 25.987917)">
                    <mask id="mask-2" fill="white">
                        <use xlink:href="#path-1"></use>
                    </mask>
                    <g id="Clip-2"></g>
                    <path d="M16.7957771,3.74240774 C16.7354,9.04940622 16.6645417,14.3569953 16.5846785,19.666061 C16.5771498,20.1503813 16.6220267,20.6784085 16.4962532,21.1551982 C16.3692988,21.6340551 16.0120549,21.949454 15.5464569,22.120295 C15.5770145,19.166089 15.6105246,16.21144 15.6471347,13.2576769 C15.6841877,10.2594686 15.7227169,7.26126033 15.7613937,4.26290438 C15.7652318,3.96980202 15.7488459,3.67300819 15.7590317,3.38167773 C15.7672985,3.16181404 15.8570524,3.0042623 16.0901466,2.95272944 C16.3155646,2.90104892 16.6165647,2.92186878 16.7343666,3.14173247 C16.8301729,3.31980877 16.797401,3.54705538 16.7957771,3.74240774 Z M18.5992683,0.531423376 C17.4878265,-0.176156734 16.0538318,0.184720934 14.8313786,0.400302521 L11.8953358,0.918141303 C10.9490823,1.08499554 9.99382397,1.22541889 9.05450874,1.43391286 C7.34549531,1.81354318 5.78056041,2.53559383 4.37446618,3.57186203 C2.234841,5.14826547 0.610119418,7.32194802 0.215674926,9.93417668 C-0.18334583,12.5753464 0.494974693,15.4428768 2.29049429,17.4414363 C3.15865598,18.4075666 4.2554833,19.1561958 5.44486925,19.7084391 C6.91547405,20.3923938 8.4938425,20.7963878 10.147055,20.7364384 C10.4597172,20.7256593 10.7710509,20.6989331 11.0804654,20.6590653 C11.0999514,20.656998 11.1179612,20.6553738 11.1358234,20.6537496 L11.1417283,20.6527159 C11.3346695,20.6156536 11.4738765,20.4538198 11.4814052,20.2679176 C11.4825862,20.2559572 11.4831767,20.2410437 11.4825862,20.2277544 C11.5008913,19.5852918 11.5177201,18.9708843 11.5352871,18.3610542 C11.5348442,18.358101 11.5357299,18.3535236 11.5351394,18.3505704 C11.5344013,18.346436 11.5352871,18.3418585 11.5360252,18.3371335 C11.5367633,18.3135081 11.5372061,18.2882585 11.5377966,18.2644854 C11.5375014,18.2528204 11.5355823,18.241303 11.5336632,18.2299333 C11.5004484,18.0260167 11.3140025,17.8876606 11.1064468,17.9005069 L11.1005419,17.9016882 C10.7283883,17.9288574 10.3552013,17.9592751 9.98319523,17.9495296 C9.57118378,17.9380122 9.15931996,17.8985874 8.75395148,17.8340605 C7.9994583,17.7147524 7.26223682,17.4962176 6.58332581,17.1598513 C5.20409868,16.4772255 4.17443912,15.3210585 3.54040503,13.9547733 C2.83137925,12.4275401 2.71977744,10.7166197 3.34894002,9.11570494 C4.00290301,7.45292122 5.28573334,5.94060162 6.88373544,5.06661025 C8.73845123,4.05293382 10.8910671,3.84311092 12.9431528,3.55650554 C12.8015838,10.6956522 12.6606053,17.7549155 12.5202173,24.8261392 C12.5172649,24.8457778 12.5174125,24.8648258 12.519184,24.8852027 C12.5194792,24.8970153 12.5213983,24.9083851 12.5233174,24.9199024 C12.5587465,25.1381419 12.7691071,25.2826997 12.9934917,25.2431271 C13.7593517,25.124262 14.5278689,25.0315323 15.2884146,24.8812159 C16.0520603,24.7301611 16.8208728,24.5281641 17.4842835,24.1070417 C18.5676773,23.4213151 19.1494534,22.2745982 19.3663093,21.0699992 C19.5112736,20.2544806 19.517326,19.4145984 19.5427169,18.5921399 C19.5743079,17.629701 19.5831652,16.6684434 19.5936463,15.7067428 C19.612099,13.7780259 19.6518092,11.8500473 19.6869431,9.92118272 C19.7253246,7.74233211 19.7620824,5.5624479 19.7805351,3.38271134 C19.7882114,2.33005303 19.5561505,1.13800499 18.5992683,0.531423376 L18.5992683,0.531423376 Z" id="Fill-1" fill="#ff585b" mask="url(#mask-2)"></path>
                </g>
                <path d="M78.0297416,31.5663123 C78.0385989,33.7826682 77.9639024,36.0002053 77.9151873,38.2178901 C77.8971775,39.077411 77.8779867,39.9387037 77.8571721,40.7989628 C77.8456576,41.2689602 77.8604198,41.7507703 77.8152476,42.2194388 C77.7838042,42.539415 77.6044442,42.8648546 77.2349477,42.8620491 C76.947824,42.8610155 76.8211648,42.6516355 76.8177695,42.3982533 C76.8126028,41.9281083 76.8326793,41.4550101 76.8410937,40.9854557 C76.8682561,39.3238532 76.895566,37.663875 76.9227284,36.0038968 C76.9445764,34.6178253 76.9159378,33.2215654 76.9907819,31.8351986 C77.0076107,31.5192092 77.0830453,31.0777099 77.4481131,30.9690331 C77.9246351,30.8274285 78.0273796,31.2064682 78.0297416,31.5663123 Z M80.7120232,29.9178514 C80.3692462,28.9328208 79.5979241,28.1505254 78.5031635,28.0306266 C78.2432022,28.0012425 77.9774836,28.0095114 77.7176698,28.0465737 C76.461559,28.2224351 75.325612,29.1077962 74.6623489,30.1446551 C74.3256244,30.6707627 74.1133447,31.2501752 74.0628582,31.8628108 C73.9909666,32.7171635 73.9801902,33.5740265 73.9723662,34.4304465 C73.9571612,36.16514 73.9178939,37.8996858 73.8981127,39.633641 C73.8877792,40.5110285 73.8820219,41.389302 73.8883696,42.2681661 C73.8927983,42.9569936 73.8479214,43.6602916 74.1344546,44.3008347 C74.5954764,45.3314918 75.6937799,45.9024877 76.8356317,45.8457868 C78.1202335,45.7802264 79.2867381,44.9883332 79.9897114,43.9517697 C80.3569936,43.4100102 80.6054405,42.7919112 80.6833846,42.1506298 C80.7870149,41.3142914 80.7741718,40.4527034 80.7893768,39.6128211 C80.8172773,37.883148 80.8437015,36.1524414 80.8717496,34.4229159 C80.8865117,33.5992761 80.8999453,32.7774083 80.9129359,31.9540638 C80.9185456,31.5869845 80.9591415,31.2017431 80.9225313,30.837617 C80.8930071,30.525319 80.8129962,30.2115444 80.7120232,29.9178514 L80.7120232,29.9178514 Z" id="Fill-4" fill="#ff585b"></path>
                <path d="M72.6090822,38.3962618 L70.3550504,38.7937588 C70.1631426,38.8277202 70.0233451,38.9851243 70.0087305,39.1664491 C70.0078448,39.1710265 70.0071067,39.175604 70.0078448,39.1798861 C70.0072543,39.1946519 70.0069591,39.211042 70.0079924,39.2271368 C70.0079924,39.2271368 70.0079924,39.2271368 70.0081401,39.2286134 C70.000759,39.9282199 69.9955922,40.6247257 69.9848159,41.3221173 C69.9730062,42.0977681 70.0044495,42.8881847 69.9104147,43.6622111 C69.8890096,43.8476704 69.8371944,44.0517346 69.6541438,44.148894 C69.4527882,44.2553558 69.179098,44.2075144 69.0564246,44.0226458 C68.9513182,43.8624362 68.940837,43.6486265 68.9437895,43.4621337 C68.9470371,43.2016639 68.9558944,42.9401605 68.9591421,42.6798383 C68.9716899,41.8520641 68.9854187,41.0228133 68.9976713,40.1938578 C69.0238003,38.5368328 69.0499293,36.8784788 69.0745821,35.2218967 C69.0803393,34.800036 69.0877204,34.3793566 69.0936252,33.9589725 C69.0983491,33.596323 69.0586389,33.2032557 69.1325973,32.8460695 C69.1827886,32.604057 69.3245052,32.3559906 69.6085288,32.3649977 C69.8711474,32.3732666 70.0006114,32.5720151 70.0382548,32.8031009 C70.0906604,33.1437493 70.0577409,33.509795 70.0559694,33.852806 C70.0559694,34.3002116 70.0528694,34.7480602 70.0466693,35.1950229 C70.0389929,35.9405512 70.0254118,36.6857843 70.0144878,37.4304267 C70.0136021,37.4438637 70.0128639,37.4573006 70.0136021,37.4719188 C70.0141925,37.4850604 70.0164069,37.4980544 70.0186212,37.5109007 C70.0513931,37.7133406 70.2368057,37.853321 70.4427376,37.8406224 C70.4439186,37.8389981 70.4453948,37.8388505 70.4471662,37.8398841 L70.5358867,37.8242323 C70.5372153,37.8240846 70.5386915,37.8237893 70.5386915,37.8237893 C71.134344,37.7230861 71.6920578,37.6321284 72.2369286,37.5184313 L72.2356,37.5200555 L72.6933741,37.4394339 C72.9029965,37.4023716 73.0517989,37.216617 73.0399892,37.0134388 L73.057999,36.0239784 L73.0565228,36.0242737 C73.0730564,35.1929556 73.0835376,34.3626712 73.0788137,33.5322391 C73.0740898,32.8317466 73.1201477,32.0986216 72.9217445,31.4204255 C72.6307826,30.4173805 71.8255076,29.5952173 70.7456568,29.4268865 C69.6362816,29.2533876 68.4343479,29.7902744 67.6160822,30.519265 C66.7398013,31.3014127 66.2200262,32.4001405 66.1569919,33.5422799 C66.0663523,35.2046207 66.0600046,36.8713912 66.0272326,38.5338796 C65.9950512,40.1829311 65.9179928,41.8355263 65.9388074,43.4826583 C65.9484028,44.16617 65.9147451,44.9103695 66.1671778,45.5553423 C66.3593809,46.0457166 66.7043722,46.4677249 67.150189,46.7611226 C68.1128284,47.3945781 69.3695297,47.353086 70.4080465,46.8569531 C71.4985261,46.3354228 72.4314936,45.3512781 72.731608,44.1909767 C72.8907439,43.573173 72.9164301,42.9063467 72.9419686,42.264327 C72.9751834,41.4371434 73.0042648,40.6099598 73.0187317,39.7827762 C73.0243414,39.4576319 73.0326082,39.1313064 73.0436798,38.8069004 C73.0445655,38.7934634 73.045156,38.7785499 73.0445655,38.7654083 C73.0438274,38.752119 73.0417607,38.7392727 73.0393987,38.7249498 C73.0061839,38.5211809 72.817819,38.380167 72.6090822,38.3962618" id="Fill-5" fill="#ff585b"></path>
                <path d="M55.0366687,28.3743759 C54.2740563,28.8287214 53.7790816,29.7306203 53.9182887,30.5936849 C54.0313667,31.2953587 54.5518799,31.815117 55.3025349,31.809063 C56.1166672,31.8027137 56.8686508,31.2698137 57.2625048,30.5871879 C57.6452872,29.9242007 57.6705305,29.0803317 57.1098642,28.5242494 C56.5508218,27.9696436 55.7059843,27.9756976 55.0366687,28.3743759" id="Fill-6" fill="#ff585b"></path>
                <g id="Group-10" transform="translate(53.881826, 0.000000)">
                    <mask id="mask-4" fill="white">
                        <use xlink:href="#path-3"></use>
                    </mask>
                    <g id="Clip-8"></g>
                    <path d="M9.67156636,39.9979148 C9.22722583,39.2094178 8.76620406,38.4299279 8.33987334,37.6309471 C7.90424247,36.8115894 7.5939422,35.9787948 7.37265765,35.0773389 C7.29707548,34.7716856 7.17026866,34.4410779 7.36188129,34.1444318 C7.52677444,33.889573 7.95044798,33.8412886 8.0958551,34.12878 C8.15017979,34.2387856 8.15460843,34.3679869 8.16523717,34.488624 C8.18236126,34.696675 8.19800913,34.9050213 8.20612831,35.1133676 C8.21852851,35.4684866 8.21719992,35.8246392 8.21601895,36.1806442 C8.21528084,36.1940811 8.21483798,36.2103235 8.21557609,36.2250894 C8.21601895,36.2367544 8.21808565,36.2497484 8.22000473,36.2611181 C8.2555815,36.4793575 8.46594205,36.6237677 8.69017902,36.5843428 C9.36584236,36.4620815 10.3507726,36.281052 10.868481,36.1868458 C11.0781035,36.1497835 11.2270535,35.964029 11.2152438,35.7608507 L11.2087484,34.8258763 C11.210077,34.2838215 11.2314821,33.6791595 11.1390711,33.1121504 C11.0757415,32.7230699 10.9591206,32.3522991 10.7471362,32.0295174 C10.3308437,31.3941423 9.60395574,31.0529032 8.85403882,30.9325615 C7.32763312,30.6895154 5.84344714,31.4886438 5.01278129,32.7469906 C3.93927817,34.3700541 4.07730422,36.3641838 4.84641193,38.0374513 C5.29001436,38.9987089 5.89319557,39.8771301 6.4621286,40.7676592 C6.74939993,41.2174274 7.03298072,41.6711823 7.29810883,42.1337968 C7.54891766,42.5738194 7.81404577,43.0172383 7.92830476,43.5138142 C7.9939963,43.7961375 8.02470156,44.087468 8.04167803,44.3768789 C8.05599731,44.5958566 8.09127883,44.8303385 8.04787813,45.0491686 C7.98381042,45.3645674 7.6600766,45.8292491 7.29589451,45.542053 C7.01762809,45.3254378 7.05940496,44.7612343 7.0452333,44.4508558 C7.02692824,44.0022689 7.03844271,43.5511719 7.04582378,43.102585 C7.04656189,43.089148 7.0473,43.0742345 7.04656189,43.0610929 C7.04611903,43.0488372 7.04419995,43.0367292 7.04198563,43.0232923 C7.00655648,42.8047575 6.7960483,42.6578372 6.57136847,42.6975574 L4.46185807,43.0695094 C4.26685015,43.1039139 4.12498594,43.2661907 4.11568579,43.4525359 C4.1150953,43.4674494 4.11450482,43.4822153 4.11553817,43.4983101 C4.10358083,44.0024166 4.10077602,44.5079997 4.06903741,45.0112203 C4.04718944,45.3443381 4.08335669,45.9388118 3.80464741,46.2035637 C3.47589446,46.5170429 3.1340032,46.1889455 3.07628322,45.8626199 C3.04572558,45.6846913 3.05709243,45.5026282 3.059602,45.3220417 C3.06299729,44.9701712 3.06624496,44.6165288 3.07096885,44.2642153 C3.10477416,41.6847669 3.16308463,39.1051708 3.21209495,36.5257223 C3.23645248,35.2574825 3.24988604,33.988209 3.26612439,32.7184925 C3.2668625,32.7034313 3.26715774,32.6871888 3.26627202,32.6725706 C3.26568153,32.659429 3.26346721,32.6451061 3.26125289,32.6321122 C3.22774282,32.4268667 3.04114932,32.287034 2.83270784,32.3031288 L0.650715314,32.6880748 C0.489660322,32.7341443 0.371858411,32.8686613 0.348681845,33.0247365 C0.346024659,33.0459993 0.345286552,33.0682957 0.346024659,33.0916258 C0.345434173,33.0976798 0.344843687,33.1035862 0.346024659,33.1108214 C0.297900069,35.6960286 0.0646581914,45.9919689 0.140387991,46.6992537 C0.266604323,47.8656091 0.86639024,48.9470608 2.07053834,49.2912531 C3.38126912,49.66542 4.7697964,49.0987062 5.77007929,48.2385948 C6.39924187,48.6326956 7.27375129,48.6127617 7.99370106,48.4918293 C8.57414857,48.3923074 9.11193348,48.1971027 9.57694102,47.8360774 C10.485551,47.1308598 10.9300392,46.0455689 11.0841559,44.9595398 C11.2018102,44.1252686 11.1641668,43.2974943 10.9034673,42.4989565 C10.616196,41.6208307 10.1225499,40.7997011 9.67156636,39.9979148" id="Fill-7" fill="#ff585b" mask="url(#mask-4)"></path>
                    <path d="M52.3174817,6.98602466 C52.3542395,7.21135171 52.3217628,7.46813006 52.317777,7.69611497 C52.3130531,8.15178947 52.3081816,8.60598739 52.3034577,9.06166189 C52.3031625,10.0199663 52.3012434,10.9785661 52.2783621,11.9380518 L51.1844872,12.130894 C51.1980684,11.4596379 51.2103209,10.7885295 51.2255259,10.1169781 C51.2284784,10.1165351 51.2314308,10.1159444 51.234088,10.1140249 C51.2649409,9.09119361 51.286346,8.06718108 51.3309277,7.04479279 L51.3325515,7.04464513 C51.3328467,6.76689927 51.5976796,6.51942342 51.8848033,6.55737168 C51.8927749,6.54998875 51.902075,6.54245816 51.9098989,6.5337463 C51.9159514,6.5430488 51.9222991,6.55368022 51.9283516,6.56298271 C52.1363502,6.60019268 52.3062625,6.77679239 52.3174817,6.98602466 Z M40.3304731,9.98467593 C40.324273,10.319418 40.3180729,10.6543078 40.3105442,10.9893452 C40.2922391,11.780943 40.2723102,12.5729839 40.2540052,13.3647294 C40.2478051,13.671564 40.2444098,14.0147227 39.853213,14.0836792 C39.5725846,14.1331449 39.3247282,13.9346917 39.2946134,13.6653624 C39.2578557,13.3189552 39.3070136,12.9397679 39.3108518,12.5905553 C39.3169043,12.1715001 39.3219234,11.7542168 39.3279759,11.335457 L39.3264996,11.3356046 C39.3322569,11.0436836 39.3374236,10.7770121 39.341557,10.5414966 C39.3474619,10.0930574 39.3607478,9.6432892 39.3681289,9.19455465 L39.3696051,9.19425933 C39.3749195,8.61159841 40.2996202,8.5548975 40.3353446,9.13770608 C40.3791881,9.40762604 40.3362303,9.71195045 40.3304731,9.98467593 Z M24.343071,12.0025786 C24.3758429,12.203542 24.3464662,12.4331512 24.3432186,12.6375107 C24.3374613,12.9471508 24.3300803,13.2556097 24.324323,13.5651022 C24.3055751,14.4470671 24.2804795,15.3285891 24.267784,16.2108493 C24.241655,18.0729722 24.1910209,19.9350951 24.1527869,21.7978086 C24.1439296,22.1995877 24.1588394,22.6088974 24.1271008,23.0102335 C24.1008242,23.3708158 23.6911747,23.606922 23.3698028,23.3860247 C23.0584692,23.172215 23.1775997,22.6726859 23.1846855,22.352562 C23.1926571,21.8800544 23.2021048,21.4059226 23.2115526,20.9331197 C23.2459484,19.054902 23.2815252,17.1762414 23.3157733,15.2978761 C23.3343736,14.2196728 23.3664075,13.1389594 23.3761505,12.0609038 L23.3791029,12.0604608 C23.3597645,11.4761757 24.3153181,11.4212466 24.343071,12.0025786 Z M55.0413926,5.36871979 C54.8319178,4.7823674 54.4246302,4.27693195 53.8766594,3.96153313 C53.241592,3.59666868 52.4668746,3.52077215 51.747663,3.71110411 C49.9350193,4.19025634 48.5088486,5.71748945 48.3675748,7.56307455 C48.2699971,8.82939488 48.2798877,10.1107764 48.2465253,11.3791639 C48.2112437,12.6730964 48.1824575,13.9686532 48.1610524,15.2643576 C48.1489475,15.9915763 48.1387616,16.7214528 48.1312329,17.4491145 C48.1251804,17.9802426 48.1208994,18.4949805 48.2509539,19.0138529 C48.0473839,19.2831822 47.6127864,19.4408816 47.3256627,19.2066951 C47.0645204,18.9927377 47.0990638,18.589482 47.101721,18.2892921 C47.1129402,17.2388486 47.1284405,16.1878146 47.1457122,15.1378141 C47.1821747,13.0125636 47.2325136,10.8877561 47.2689761,8.76235786 C47.2872811,7.73731172 47.2934812,6.68494873 47.3033719,5.65399624 C47.3042576,5.64055931 47.3048481,5.62712237 47.3042576,5.61250417 C47.3035195,5.59936255 47.3014528,5.58636859 47.2992385,5.57352229 C47.2661713,5.3697534 47.0775111,5.22873941 46.8687743,5.24335762 L46.7847777,5.25827114 C46.0686661,5.38451926 45.3900504,5.50559933 44.6947534,5.62830364 C44.4984169,5.66285576 44.3565526,5.82675683 44.349024,6.01413562 C44.3481382,6.02757255 44.3472525,6.04100949 44.3481382,6.05562769 C44.2484938,10.3759713 44.0675099,17.635755 44.0187948,19.042794 C44.0075756,19.3666094 44.0645574,19.8275996 43.6506269,19.9537 C43.3976038,20.0309255 43.1215517,19.8845958 43.0511362,19.6385965 C43.010688,19.4922668 43.0381456,19.3161101 43.0378503,19.1654983 C43.0428694,17.8164892 43.2950069,16.1669947 42.1596504,15.1726616 C42.962711,15.0310569 43.033274,13.7294462 43.0425742,13.1255224 C43.0580744,12.2692501 43.129228,11.4106152 43.1614095,10.5543429 C43.1800098,10.0623444 43.1909337,9.57019818 43.1897528,9.07879029 C43.1882766,8.65825854 43.2132246,8.21528268 43.1203707,7.80346278 C42.9699444,7.1418045 42.5058226,6.59458166 41.9078082,6.27047098 C41.5679836,6.08678366 41.188006,5.97220057 40.7985807,5.94045397 C40.3105442,5.89955253 39.8195553,5.99051024 39.3324045,6.0291968 C39.3600097,4.17563813 39.3886483,2.33817426 39.4162535,0.456560455 C39.4184678,0.441351617 39.4186154,0.423632583 39.4174345,0.407685452 C39.4171392,0.395872762 39.4149249,0.383026462 39.4130058,0.371509089 C39.3796434,0.166115948 39.1912784,0.0267262103 38.9828369,0.0426733414 L36.8305163,0.422303655 C36.6341798,0.457003431 36.4923156,0.620756841 36.4847869,0.808135631 C36.4839012,0.820243638 36.4833107,0.8350095 36.4839012,0.848298775 C36.4443386,2.74083932 36.2775264,9.46358865 36.2348638,11.2341632 C36.1963346,12.8253325 36.1628245,14.418569 36.127543,16.0106242 C36.0984616,17.3890175 36.0696754,18.7687396 36.0419226,20.1468375 C36.0379368,20.2893281 36.0349844,20.4301944 36.0323272,20.5723897 C36.0298176,20.7160615 36.0535847,20.8979769 36.0152031,21.0360377 C35.9421305,21.2956216 35.636997,21.4364879 35.3863358,21.3521748 C35.1197314,21.263432 35.0695401,21.0286548 35.0733783,20.7828032 C35.079726,20.4392016 35.0860737,20.0954523 35.0937501,19.7515554 C35.1439413,17.047926 35.1925088,14.344592 35.2424048,11.6396337 C35.2533288,11.0631745 35.3103107,10.4624992 35.2649909,9.88589231 C35.1913278,8.93910523 34.669486,8.04769014 33.7935004,7.62036609 C32.8367658,7.15420783 31.6779375,7.3216527 30.7440843,7.80671127 C29.8521555,8.26976871 29.1831352,9.04778198 28.8005004,9.95248635 C28.6111021,10.4022545 28.5023051,10.8629494 28.4398612,11.3288123 L28.4385326,11.32896 C28.4385326,11.32896 28.2917969,12.4048007 28.2622726,13.8274915 L28.1558375,20.8555989 C28.1437326,21.27554 28.1367944,21.5588969 28.1348753,21.6315449 C28.1252799,21.8887663 28.1444707,22.1659215 28.0544216,22.4150216 C27.8777187,22.9053959 27.258742,22.8816228 27.1521594,22.376335 C27.0872059,22.0615268 27.3595675,9.5997299 27.3700486,8.88166603 C25.2993627,8.10261915 22.3430957,8.68306519 21.0698607,10.6367364 C20.344449,11.7494918 20.3536015,13.0088721 20.3261439,14.26589 C20.2892385,15.8951552 20.2477569,17.5238298 20.2049467,19.1541286 C20.1693699,20.5204138 20.1844273,21.8983641 20.0986593,23.2645016 C20.0805018,23.5643963 20.0416774,24.1545878 19.6423614,24.2205912 C19.1969875,24.2932392 19.124653,23.6902014 19.1062003,23.3907498 C19.0737236,22.8560779 19.1153528,22.309741 19.1252435,21.7734449 C19.141039,20.957188 19.1556535,20.1424078 19.171449,19.3260032 C19.2034828,17.6946708 19.2350738,16.0618618 19.2609076,14.4300864 C19.2796555,13.2957728 19.3753142,12.0843815 18.6410452,11.1374468 C18.0684216,10.3997443 17.140178,10.0998497 16.2039628,10.1512349 C16.0685939,10.1589131 15.9324869,10.1724977 15.7975609,10.191841 C15.6714922,10.2111843 15.5302185,10.2671469 15.4026736,10.2482466 C15.3907163,9.89445651 15.3796446,9.50965814 15.3659159,9.11777216 C15.3673921,9.11747685 15.3670968,9.11614792 15.3653254,9.11481899 C15.3668016,9.09547571 15.365473,9.07790434 15.3641444,9.06048062 C15.3651777,9.05737979 15.3644396,9.05295003 15.3639968,9.05014452 L15.3619301,9.03715056 C15.3262057,8.81905878 15.1145165,8.6747963 14.8901319,8.71436881 L12.597571,9.11880578 C12.3968058,9.15409619 12.2528749,9.32419892 12.249332,9.51689342 C12.249332,9.52575293 12.2494796,9.53594138 12.2496272,9.54627748 C12.2609941,11.4993581 12.2927327,16.9984604 12.2654227,21.2779025 C12.2660132,21.2911918 12.2683751,21.3055147 12.2704418,21.318361 C12.3033614,21.520801 12.4855263,21.6598954 12.6916058,21.6471968 L14.8882129,21.2598882 C15.0621109,21.2098319 15.1861129,21.0567099 15.1926083,20.8827681 C15.193494,20.8693311 15.1940845,20.8544176 15.1933464,20.8397994 C15.2221326,19.0126716 15.2492949,17.184215 15.282805,15.3576778 C15.2926956,14.7933266 15.291367,14.2266128 15.3211866,13.6632951 C15.3352106,13.3669443 15.4593602,13.085064 15.8034658,13.071627 C16.1745861,13.0564182 16.2928309,13.2984307 16.3043454,13.6212124 C16.3350506,14.4987476 16.3009501,15.3804172 16.2860403,16.2586907 C16.2603542,17.7221353 16.2283203,19.1851369 16.1993865,20.6490245 C16.1825577,21.4685298 16.1660241,22.2895118 16.1522953,23.1100507 C16.1506714,23.2681931 16.1496381,25.0787831 16.2160677,25.0671181 C16.4386809,26.1823836 17.1732452,27.0658252 18.3565786,27.2632447 C19.5663363,27.4647988 20.7701892,26.9217103 21.676142,26.1432541 C23.0518262,27.00056 24.8340599,26.3806892 25.9800451,25.3797114 C26.4335382,25.7397031 27.1435973,25.7828194 27.7036731,25.7622949 C28.3933604,25.7351257 29.1240866,25.6063674 29.7148676,25.2245222 C30.2399571,24.8866792 30.6301205,24.3084481 30.8493384,23.7427679 C31.0298794,23.2752807 31.0526131,22.8268415 31.0667848,22.3370578 C31.0870089,21.5376341 31.1088569,20.7393916 31.129081,19.9414444 C31.1727769,18.3448117 31.2149967,16.748622 31.2586926,15.152137 C31.2984028,13.6522207 31.3620276,12.1511232 31.3897805,10.6519452 L31.3912567,10.6517976 C31.3961282,10.1872636 32.0369529,10.0003277 32.2864331,10.3860121 C32.4223924,10.595392 32.3615724,10.9308724 32.3569962,11.1724419 C32.3395768,12.0362448 32.3208289,12.9004907 32.3034096,13.7629647 C32.2672423,15.507256 32.2275321,17.2493324 32.1760123,18.9933284 C32.1584453,19.575251 32.1395498,20.1587979 32.1219828,20.7408681 C32.1055968,21.2368535 32.1058921,21.7241269 32.2081937,22.211105 C32.3834204,23.0453762 32.8196417,23.7746622 33.6107451,24.1653669 C34.073243,24.3937948 34.5786988,24.4493144 35.078545,24.3847876 L35.0761831,24.3881837 L35.1217981,24.3800625 C35.1858658,24.3717936 35.250524,24.3589473 35.313706,24.3462487 L38.6762272,23.7606346 C38.6806558,23.7598963 38.6853797,23.7604869 38.6895131,23.7582721 L38.7295185,23.7511844 C38.9082881,23.7122026 39.0417379,23.5617384 39.0556143,23.3851387 L39.0570905,23.3390692 L39.1559969,18.0074118 L39.1486158,18.0190768 C39.1528968,17.7834136 39.1585064,17.5477505 39.1629351,17.3137116 L39.1644113,17.3134162 C39.1672161,17.0234147 39.4456302,16.7927719 39.7386587,16.8400227 C40.0117584,16.8847633 40.126165,17.1112716 40.1344318,17.3578615 C40.1471272,17.7617078 40.1226221,18.1705745 40.115241,18.5735349 C40.1015122,19.2536505 40.0756785,19.9331755 40.0724308,20.6128481 C40.0709546,21.1077998 40.2491337,21.5769113 40.5468861,21.9689449 C40.8623531,22.3856375 41.3056603,22.7106341 41.8080161,22.8863479 C42.3679442,23.0799284 42.9568061,23.0499537 43.5379918,22.9341893 C44.1435349,22.811042 44.7322492,22.5935409 45.2858296,22.3187482 C45.3994981,22.2617519 45.5338336,22.1539611 45.655769,22.1191137 C45.7356322,22.0962266 45.8082619,22.1321077 45.8866489,22.1567667 C46.0198034,22.2010642 46.1573866,22.2344351 46.2977746,22.2568792 C47.5379423,22.4590239 48.8938453,21.8788731 49.5963757,20.840833 C50.5318528,21.4186212 51.8536552,21.404003 52.8886291,21.0443066 C53.6964136,20.7644935 54.3880201,20.2276068 54.8004744,19.4873941 C55.3679312,18.4673684 55.2242956,17.3159264 55.2279861,16.2108493 C55.2297575,15.8575022 55.2302004,15.5060747 55.230348,15.153023 C55.2297575,15.140029 55.2273956,15.1255585 55.2253289,15.1127122 C55.1918188,14.907319 55.0050777,14.767634 54.796341,14.7822522 L54.713673,14.7968704 L52.5842337,15.1769437 C52.5842337,15.1769437 52.5827575,15.1770913 52.5812813,15.1773866 L52.4944799,15.1942197 C52.3217628,15.243833 52.2010084,15.3979886 52.1940702,15.5689773 C52.1931845,15.5824142 52.192594,15.5973278 52.1933321,15.610617 C52.173108,16.4010336 52.1497838,17.1892353 52.1264596,17.9789136 L52.1249834,17.979209 C52.1242453,18.5434126 51.2501787,18.6222623 51.1614582,18.0679518 C51.1255862,17.8482358 51.156882,17.6020888 51.1573248,17.3806009 C51.1588011,16.9609551 51.1605725,16.5427859 51.1638202,16.1243214 C51.1698727,15.5562787 51.1809443,14.9901555 51.1856682,14.4224081 C52.4075308,14.204021 53.6308697,13.9851909 54.8531752,13.7696093 L54.9358433,13.7551388 C55.1098889,13.7050825 55.2337433,13.5519605 55.2418625,13.3777234 C55.2427482,13.3642864 55.2433387,13.3493729 55.242453,13.3349024 C55.246734,11.5060027 55.2891014,9.67784131 55.2603152,7.85056588 C55.2476197,7.03622859 55.3190685,6.14215564 55.0413926,5.36871979 L55.0413926,5.36871979 Z" id="Fill-9" fill="#ff585b" mask="url(#mask-4)"></path>
                </g>
                <path d="M99.6700116,4.74131831 C101.18446,4.46844518 102.441899,2.20572447 100.848769,1.26277652 C100.169858,0.860849758 99.3213297,1.08263301 98.7398488,1.58024256 C98.1465583,2.08804055 97.812491,2.88657837 97.9660173,3.64081861 C98.1309104,4.4508738 98.8369838,4.89237308 99.6700116,4.74131831" id="Fill-11" fill="#ff585b"></path>
                <path d="M69.4194257,3.8042767 L69.4195734,3.80575329 C69.4194257,3.85152746 69.4191305,3.89582505 69.4172114,3.94041795 C69.4070255,4.54921444 69.396692,5.16524621 69.3848823,5.81996453 C69.396692,6.02314279 69.2493658,6.21007861 69.0382672,6.24728858 C68.0686896,6.41975385 65.2782014,6.91928296 63.9335177,7.15657037 C63.907684,7.6881414 63.7615388,18.6864938 63.7749723,18.8805172 C64.1581976,18.829132 64.5514611,18.7449666 64.9649488,18.6720232 L64.9767585,18.669956 C65.0018541,18.6656739 65.0269498,18.6610965 65.052193,18.6581433 L65.0580979,18.6571097 C65.2628488,18.646183 65.4450137,18.7852774 65.4777856,18.9862408 C65.48,18.9990871 65.481919,19.012081 65.4825095,19.0252226 C65.4833953,19.0398408 65.4826571,19.0532778 65.4817714,19.0667147 C65.4740951,19.8594938 65.4791142,20.6633474 65.4712903,21.4725166 C65.4726189,21.4899403 65.4724713,21.507807 65.4705522,21.5243448 C65.4605139,21.6957764 65.3393167,21.8471265 65.166452,21.8954109 L63.7404289,22.1468735 C63.7111998,24.1764413 63.6517084,26.5612757 63.5470448,28.584937 C63.548521,28.6126969 63.5467496,28.6397184 63.5433543,28.665411 C63.5179634,28.8352184 63.3818564,28.9788902 63.200282,29.0109322 L61.1629585,29.3700379 C60.9387216,29.4097581 60.7268848,29.265348 60.691308,29.0472562 C60.6890937,29.0344099 60.6868794,29.0199393 60.6862889,29.0067977 C60.6856984,28.9936561 60.6862889,28.9787426 60.6873222,28.9667822 C60.8291864,21.8289645 60.9700173,14.7785607 61.1102577,7.68696013 C59.0568434,7.9561418 56.9245993,8.23610254 55.0777075,9.24992663 C53.4552002,10.1414894 52.1062355,11.6301836 51.4543392,13.3338688 C50.7860569,15.0862813 51.0026176,16.9839899 51.7734967,18.6405719 C52.3847971,19.9503039 53.3936421,21.0348565 54.7493974,21.6284441 C55.4148748,21.9202175 56.1337913,22.0916492 56.8618602,22.1699083 C57.2855337,22.2162731 57.7162931,22.2407844 58.1433619,22.2156824 C58.5028201,22.1935337 58.8602117,22.1408195 59.2183413,22.0925352 L59.2314796,22.0901726 C59.2478656,22.0872194 59.2642515,22.0858905 59.2806375,22.0844139 C59.4867171,22.0717153 59.6703581,22.2106621 59.7032777,22.4129544 C59.7053444,22.4259483 59.7075587,22.4387946 59.707854,22.4506073 C59.7094778,22.4695076 59.707854,22.487522 59.7062301,22.5055363 C59.6911728,23.0560077 59.6756725,23.6330575 59.6606151,24.1643333 C59.6612056,24.1776225 59.6606151,24.1923884 59.6595818,24.2044964 C59.6526436,24.3769617 59.5302654,24.529936 59.3578435,24.5810259 C59.3578435,24.5810259 59.3563673,24.5813212 59.3548911,24.5814689 L59.2707469,24.5963824 C56.1051527,25.1502499 53.0406792,24.2657747 50.953312,22.2847867 C50.8930825,22.6232202 50.7814806,22.9544185 50.6337116,23.2683408 C50.001449,24.6084904 48.7140424,25.3935913 47.2294135,25.49016 C46.3321704,25.5478945 45.4344844,25.3134127 44.8807564,24.5990402 C44.304147,23.8561697 44.160659,22.8168007 44.1994834,21.8989547 C44.2523319,18.8213061 44.3190568,15.7441004 44.3812054,12.6663041 C44.378253,12.6667471 44.3767768,12.6670424 44.3735291,12.6661565 C44.3784006,12.4349231 44.3862246,12.2032467 44.3866674,11.9727516 C44.3878484,11.8308517 44.3964104,11.6787633 44.3242236,11.5526628 C44.0859625,11.133903 43.3952418,11.3119793 43.3943561,11.800877 L43.3928799,11.8010246 C43.3894846,12.0882206 43.3785606,12.3751213 43.3736891,12.6623174 C43.3722129,12.6626127 43.3689652,12.6617267 43.367489,12.662022 C43.3177406,14.6966102 43.2942688,16.7340038 43.2600206,18.7703639 C43.2601682,18.7718404 43.2604634,18.773317 43.2604634,18.773317 C43.2612016,18.7967947 43.2603158,18.8190912 43.2597253,18.8427166 C43.2594301,18.8502472 43.2588396,18.8563012 43.2585444,18.8636841 C43.2330059,19.0334915 43.0970465,19.1771634 42.9154721,19.2092053 L40.8295812,19.5770229 C40.6035727,19.6168907 40.3929169,19.4695274 40.3570449,19.2499591 C40.3549782,19.2369651 40.3532068,19.2255954 40.3527639,19.2137827 C40.3520258,19.2006411 40.3527639,19.1857276 40.353502,19.1722906 C40.3670832,18.3607588 40.3794834,17.5508513 40.3930646,16.7393195 C40.441632,13.7185195 40.4597895,10.6971288 40.5279906,7.67573808 C40.5272525,7.66259646 40.5279906,7.64768294 40.5290239,7.63572259 C40.5355193,7.46178073 40.6595213,7.30851109 40.8335669,7.25860247 L42.9622681,6.88325426 C43.1866527,6.84368175 43.3970133,6.98823954 43.4324424,7.20633132 L43.4358377,7.22641289 C43.4362806,7.22921841 43.4350996,7.23099031 43.4355425,7.23394348 C43.4358377,7.24560851 43.4359853,7.25579696 43.4377568,7.2659854 C43.4505999,7.67130832 43.4621143,8.0589122 43.4756955,8.43160255 C43.7976579,8.38523775 44.0109709,8.3800697 44.294404,8.36692808 C44.5413747,8.3543771 44.7904121,8.36367959 45.033397,8.40059424 C45.4727184,8.4692555 45.8941776,8.6327136 46.2458119,8.89835145 C46.9338754,9.42091531 47.2509663,10.2582874 47.3317152,11.090196 C47.3934209,11.7304438 47.3362914,12.3857528 47.322415,13.0276248 C47.3057338,13.7555818 47.2909717,14.4845724 47.2760619,15.2137107 C47.2468329,16.6570737 47.2209991,18.1013226 47.1935415,19.5457193 C47.1818794,20.1546634 47.1871938,20.7650842 47.155898,21.3746189 C47.1371501,21.7543969 47.0469534,22.4687693 47.6340439,22.4553324 C47.6343391,22.4566613 47.6358153,22.456366 47.6361106,22.4578426 C47.6409821,22.4510503 47.8008561,22.4258007 47.825066,22.4156122 C47.8761431,22.3934634 47.9254486,22.3609785 47.9663398,22.3228826 C48.0624413,22.2320726 48.1192756,22.1053815 48.1195708,21.9767708 L48.121047,21.9766231 C48.1262138,21.7851099 48.1300519,21.5940397 48.1350711,21.4011975 C48.1765527,19.6514428 48.2195105,17.9015405 48.2609922,16.1519335 L48.2654208,16.1510476 C48.2561206,15.8514482 48.2606969,15.5524395 48.2788543,15.2540215 C48.4303139,12.8468906 49.5392462,10.5457787 51.2845745,8.81448136 C52.2613856,7.84628378 53.4156377,7.09204355 54.6485719,6.47586412 C55.5010858,6.05075496 56.3984765,5.70508612 57.331444,5.51239163 C58.7300095,5.22298073 60.1390562,4.98776055 61.5447076,4.74279489 C63.3034694,4.4355173 65.0617884,4.1357703 66.8220265,3.8385335 C67.5165854,3.72055426 68.2112919,3.60390395 68.9062936,3.48873023 L68.9889616,3.47411203 C68.9907331,3.47529329 68.9922093,3.47499798 68.9936855,3.47485032 C69.200946,3.46037977 69.3863585,3.60183673 69.4194257,3.8042767" id="Fill-12" fill="#ff585b"></path>
                <path d="M36.5464927,13.5519605 C36.5388163,14.101103 36.5342401,14.6511313 36.52804,15.2001261 C36.5277447,16.1585782 36.5259733,17.1171779 36.503092,18.076516 L35.4090695,18.2693582 C35.4123171,18.1122494 35.4163029,17.9403747 35.4198458,17.7566874 C35.4303269,17.2527286 35.4385937,16.7536424 35.4501082,16.2555899 C35.4530606,16.2549993 35.4560131,16.2544086 35.4586703,16.2524891 C35.4895231,15.2296578 35.5110759,14.2056453 35.5556575,13.1834046 L35.5571338,13.1831093 C35.557429,12.9053634 35.8224095,12.6578876 36.1095332,12.6958359 C36.1173571,12.6884529 36.1268049,12.6809223 36.1344812,12.6722105 C36.1405337,12.681513 36.1468814,12.6921444 36.1529339,12.7014469 C36.5848742,12.7802966 36.551807,13.2203193 36.5464927,13.5519605 Z M38.964089,10.9032602 C38.5852924,10.3307877 37.9828493,9.92310228 37.2936048,9.78474615 C35.809714,9.48544213 34.1733304,10.4399075 33.3357263,11.6198475 C32.8899096,12.2478396 32.6262577,12.9881999 32.5791664,13.7436214 C32.5119987,14.8320131 32.506389,15.9257205 32.4758314,17.0148505 C32.4411404,18.2568072 32.4110256,19.4981732 32.3882919,20.7380626 C32.3677725,21.8711949 32.3178765,23.0096429 32.3382482,24.1414462 C32.372644,24.352598 32.362901,24.572757 32.3961158,24.7853854 C32.4448309,25.0942873 32.5254322,25.4020078 32.6566677,25.6859554 C32.9203196,26.2597567 33.4126371,26.7560374 33.9719747,27.0575563 C34.5595081,27.3733981 35.314887,27.4423546 35.9790358,27.3990907 C36.6355084,27.355679 37.2972953,27.1576688 37.8620949,26.811557 C38.7386711,26.273046 39.3834815,25.2717729 39.4372157,24.2582441 C39.4646733,23.74705 39.4412015,23.2299495 39.442973,22.7186077 C39.4450397,22.2369453 39.4453349,21.7541016 39.4459254,21.2725868 C39.4451873,21.2592976 39.4431206,21.2464513 39.4407586,21.2321284 C39.4078391,21.0296884 39.224198,20.8908893 39.0182661,20.9035879 L38.9223121,20.920421 L36.7750107,21.3035951 L36.7574437,21.306696 C36.7440101,21.3090585 36.729248,21.3115687 36.7162573,21.3154078 C36.5422116,21.3653165 36.4195382,21.5169619 36.4111238,21.6895748 C36.4089095,21.703307 36.4084666,21.7196971 36.4093523,21.7343153 C36.3906044,22.5231077 36.3656564,23.3116047 36.3424798,24.101283 L36.340856,24.1014307 C36.3401179,24.6656343 35.466199,24.744484 35.3774785,24.1903212 C35.3221204,23.8515923 35.3733451,23.465908 35.3739356,23.1248166 C35.3751165,22.7598045 35.3779213,22.3946447 35.3851548,22.028599 C35.395193,21.5306941 35.4053789,21.0342658 35.4154172,20.536361 L39.1074294,19.8851864 C39.3185281,19.8479765 39.4660019,19.6625172 39.4541922,19.459339 C39.4369205,17.4231266 39.5132408,15.3838134 39.4639352,13.3474534 C39.4431206,12.4917716 39.4530112,11.6396337 38.964089,10.9032602 L38.964089,10.9032602 Z" id="Fill-13" fill="#ff585b"></path>
                <g id="Group-17" transform="translate(0.000000, 7.235272)">
                    <mask id="mask-6" fill="white">
                        <use xlink:href="#path-5"></use>
                    </mask>
                    <g id="Clip-15"></g>
                    <path d="M28.5498392,7.28857717 C28.59944,7.59275393 28.5399485,7.95466521 28.5341913,8.264453 C28.5266626,8.7218994 28.5160339,9.17860752 28.5086528,9.63620158 C28.4934478,10.4938029 28.4769142,11.353176 28.460233,12.2110726 C28.4248038,14.0068968 28.3846508,15.8021303 28.3462692,17.598545 C28.3403643,17.8889895 28.4320373,18.3865991 28.1923,18.6207857 C27.9189051,18.890558 27.4412021,18.7268046 27.3824488,18.3665175 C27.3321099,18.0106603 27.3918966,17.6044514 27.3973586,17.2460839 C27.4034111,16.957116 27.4082826,16.6697723 27.414335,16.3808044 C27.4183208,16.2368372 27.4206828,16.0931654 27.4230447,15.9494936 C27.4389878,15.1803398 27.4534547,14.4114814 27.4693978,13.6423276 C27.5073366,11.7678014 27.5436514,9.89357056 27.5814425,8.01889671 C27.5869045,7.79061648 27.5826235,7.55953074 27.5956142,7.33139817 C27.6279433,6.76601331 28.515591,6.70532562 28.5498392,7.28857717 Z M29.2968037,3.94957278 C27.9626011,3.73015207 26.4939154,4.12956864 25.3278536,4.79285117 C25.0594778,4.9450872 24.7937592,5.11297506 24.5569744,5.309804 C24.5150499,7.54092576 24.4774065,9.77130922 24.4323819,12.0030216 C24.3945908,13.9056029 24.3554712,15.8099562 24.3147276,17.7129805 C24.3067561,18.1397139 24.2970131,18.5651184 24.2875653,18.9921471 L24.2862367,18.9924424 C24.2823985,19.4168133 23.7266038,19.6315089 23.438742,19.3190633 C23.2339911,19.0966894 23.3141495,18.6469212 23.3193163,18.3713903 C23.3388023,17.3255243 23.361536,16.2805442 23.3792506,15.2334969 C23.4194036,13.0189129 23.4718092,10.8050672 23.507386,8.5898926 C23.5215576,7.67928188 23.5373531,6.76985244 23.5469485,5.85865109 C23.5478342,5.8450665 23.5485724,5.83177722 23.5476866,5.81701136 C23.5470961,5.80386974 23.5450294,5.79102344 23.5429627,5.77802948 L23.5419294,5.7722708 C23.5039907,5.55757516 23.2955492,5.41567523 23.0726408,5.45495242 L20.9468921,5.82985766 C20.7505556,5.86455744 20.6086913,6.02831085 20.6011627,6.21568964 C20.6001293,6.22764998 20.5995388,6.2425635 20.6001293,6.25570512 C20.5539238,7.93842276 20.5365045,9.62173104 20.5068326,11.304301 C20.4638747,13.585922 20.4223931,15.8671001 20.3812067,18.1499023 C20.370578,18.6625731 20.3611302,19.1736195 20.3506491,19.6864379 L20.3491729,19.6867333 C20.3460728,20.0415569 19.9412948,20.2784013 19.6252373,20.1096275 C19.3824,19.979688 19.3691141,19.7208424 19.3766428,19.4788299 C19.3234991,19.2917464 19.3735427,19.0305383 19.3754618,18.8366626 C19.3795952,18.5922876 19.3838762,18.3479125 19.3881573,18.1035375 C19.3948002,17.6416614 19.403067,17.1794899 19.4129577,16.7184997 C19.4318532,15.8084796 19.4538488,14.8996408 19.4758444,13.9905066 C19.5198356,12.2093007 19.5638268,10.4282424 19.6019131,8.64821775 C19.6087037,8.29856214 19.6354232,7.2881342 19.6497425,6.54585431 C19.6507758,6.53389396 19.6513663,6.51898044 19.6507758,6.50583882 C19.6501853,6.49269721 19.6478234,6.47837432 19.6457567,6.46538036 C19.6101799,6.24728858 19.3998194,6.10273079 19.1754348,6.1423033 L16.9847326,6.52872591 C16.7898723,6.56298271 16.649189,6.72511188 16.6398889,6.90998047 C16.6378222,6.92504165 16.6372317,6.93995517 16.6382651,6.9559023 L16.6010645,9.90685983 L16.6060836,9.90006754 C16.5411301,12.6903725 16.464367,15.4814157 16.4144709,18.2706871 C16.3923277,19.4677555 16.2442634,20.8610623 16.8741641,21.9312919 C17.326181,22.7020699 18.1696899,23.1351527 19.0759379,23.1611406 C19.6312898,23.1770877 20.1861988,23.0495107 20.694607,22.824036 C20.9483683,22.712849 21.1873674,22.5762648 21.4152949,22.4194513 C21.531473,22.3398633 21.6442558,22.2579128 21.7564481,22.1731568 C21.8118061,22.1309264 21.9234079,22.0048259 21.9898376,21.9931609 C22.3199191,22.1830499 22.6883822,22.3100363 23.0692455,22.3639317 C23.2559867,22.3915439 23.4458278,22.4008464 23.634488,22.3942017 C23.8411581,22.3857852 24.059933,22.3116606 24.2595172,22.3150567 C24.2456408,23.5723699 24.2268929,25.0892669 24.2105069,26.4889229 C24.2097688,26.5039841 24.2094735,26.5202266 24.2103593,26.5348448 C24.2106545,26.5466574 24.2128688,26.5595037 24.2149355,26.5724977 C24.2505123,26.7905895 24.4611681,26.9379528 24.6855527,26.8985279 L26.7199238,26.5395698 C26.9133079,26.5056084 27.0528101,26.34658 27.0656532,26.164074 C27.067277,26.1460596 27.067277,26.126864 27.0656532,26.1079637 C27.1037395,24.524325 27.1400544,22.9852792 27.1759264,21.4432802 C28.0675599,21.4630665 28.9766128,21.24527 29.7097008,20.7201959 C30.4140027,20.2150558 30.89082,19.4693798 31.1153522,18.6562237 C31.2535259,18.1532985 31.2762596,17.648749 31.2910217,17.1337157 C31.3116887,16.4494657 31.3261556,15.7647726 31.3392939,15.0802273 C31.3637991,13.7396346 31.3791517,12.3975654 31.4005568,11.0560869 C31.4231429,9.55469402 31.5359257,8.04650887 31.4436623,6.54777387 C31.3668991,5.31216654 30.601482,4.16544969 29.2968037,3.94957278 L29.2968037,3.94957278 Z" id="Fill-14" fill="#ff585b" mask="url(#mask-6)"></path>
                    <path d="M16.001869,5.92081537 C15.5412901,7.81099337 13.8122002,9.48322725 11.8116344,9.69437908 C11.8101582,9.69452674 11.8101582,9.69452674 11.808682,9.69482205 C11.7862435,9.69733225 11.7610002,9.70028542 11.7384142,9.70131903 L11.7310331,9.70264796 C11.5336632,9.70353391 11.361389,9.56857393 11.3296504,9.37322158 C11.3274361,9.36037528 11.3250741,9.34605239 11.3244836,9.33276312 C11.3238932,9.31976916 11.3244836,9.30485564 11.325517,9.29274763 L11.3690653,7.24738042 C11.3683272,7.2342388 11.3690653,7.21932528 11.3700987,7.20736493 C11.376594,7.03342308 11.500596,6.88015343 11.6746417,6.83024481 C12.3256523,6.65039661 12.8838089,6.16076063 13.1380131,5.5488633 C13.6078921,4.42503354 12.8471988,3.17702288 11.7025422,2.89026984 C10.6260866,2.62094052 9.54948343,3.20950778 8.99221249,4.12277635 C8.7044983,4.59439798 8.55156249,5.13822468 8.54610049,5.68249436 C8.53798131,6.36910694 8.79189019,7.03312776 9.03827038,7.6599386 C9.30679378,8.34802778 9.64381353,9.00909542 10.0608441,9.62069743 C10.4557315,10.1992239 10.8780764,10.759736 11.289645,11.3279264 C11.559497,11.6893947 11.8308252,12.0490911 12.1049582,12.4081969 C12.6499766,13.1256701 13.1977997,13.8412238 13.732337,14.5679995 C14.2398595,15.2594848 14.7581584,15.9521514 15.1555553,16.7133316 C15.8288567,18.003425 16.165286,19.4531373 16.0619509,20.9168772 C15.8791956,23.4592634 14.4390008,25.8424735 12.3637386,27.3942179 C11.0400171,28.3851549 9.46238678,29.0208253 7.79795503,29.0484375 C6.25191567,29.0761973 4.68934271,28.610482 3.39115976,27.8295155 C1.19735751,26.5094475 -0.0919681581,24.0007275 0.00516675045,21.464543 C0.109239867,18.7572222 1.93841715,16.1046828 4.41860499,14.8757201 L4.41698115,14.8745388 C4.41698115,14.8745388 5.83724704,14.0379051 8.56027215,13.9267181 C8.56322458,13.9262751 8.5647008,13.9259798 8.56780085,13.9268658 C8.58433445,13.9253892 8.60234426,13.9237649 8.61902549,13.9237649 C8.62345413,13.9230267 8.62803039,13.9236173 8.63275428,13.9243556 C8.82185735,13.929376 8.98483142,14.063007 9.01597954,14.2539296 C9.017751,14.265447 9.01996532,14.2782933 9.02040819,14.290106 C9.02129391,14.3047242 9.02085105,14.3209666 9.01996532,14.3344036 C9.01642241,15.0112707 9.00992706,15.690205 8.99870783,16.3670721 C9.0012174,16.4005907 9.00047929,16.4330755 8.99811735,16.4660034 C8.97272646,16.6359585 8.83809571,16.779335 8.65504512,16.8115246 C8.6432354,16.8135918 8.63142569,16.815659 8.61932073,16.8163973 C8.60293475,16.8177263 8.58787736,16.8189075 8.57237711,16.8172833 C8.08788354,16.8348547 7.60279948,16.8863875 7.1237679,16.9767546 C6.38861313,17.1152584 5.65921558,17.335565 5.02975776,17.7507811 C4.14786726,18.3313748 3.49301855,19.2059568 3.15378448,20.181242 C2.46350662,22.1707942 3.17164667,24.3745991 4.95801374,25.5050735 C6.70850879,26.6123655 9.00284123,26.4794728 10.6944353,25.2389927 C12.404925,23.9834515 13.3147159,21.8768059 13.0222778,19.8389693 C12.8376034,18.547104 12.2499225,17.3720367 11.5394205,16.2925045 C10.7790224,15.1389954 9.92872292,14.0398246 9.11252396,12.9255927 C7.54729382,10.7845427 5.68003021,8.54175589 5.77244123,5.73461785 C5.83842801,3.76204634 6.81966773,1.79641478 8.59555368,0.746414327 C10.1153164,-0.150611793 11.9980803,-0.2183871 13.5352624,0.585466431 C15.4704318,1.59530374 16.5217917,3.78862489 16.001869,5.92081537" id="Fill-16" fill="#ff585b" mask="url(#mask-6)"></path>
                </g>
            </g>
        </g>
    </g>
</svg>