<?xml version="1.0" encoding="utf-8"?>
<!-- Generator: Adobe Illustrator 21.0.0, SVG Export Plug-In . SVG Version: 6.00 Build 0)  -->
<svg version="1.1" id="Object" xmlns="http://www.w3.org/2000/svg" xmlns:xlink="http://www.w3.org/1999/xlink" x="0px" y="0px"
	 viewBox="0 0 800 800" style="enable-background:new 0 0 800 800;" xml:space="preserve">
<style type="text/css">
	.st0{fill:#D51C43;}
	.st1{fill:#FFFFFF;}
</style>
<g>
	<g>
		<g>
			<g>
				<g>
					<path class="st0" d="M732.5-422.4c19.5-38.5,27.9-38.1,28.3-38.1c0.1,0,8.5,2.6,18.7,52.6c3.3,16.4,5.9,33,7.5,45.5
						c4.8,2.5,9.9,4.3,14.8,6.6c-1.6-13.3-4.6-35-9-56.2c-8.9-43.4-18.4-63.2-30.9-64.4c-7.3-0.7-19.6,3.3-41.3,46
						c-6.8,13.4-12.6,26.7-16.1,35.2c4.8,0.7,9.5,1.6,14.2,2.7C722.2-400.7,727.1-411.6,732.5-422.4z"/>
					<path class="st1" d="M713.1-386.3"/>
				</g>
				<g>
					<path class="st0" d="M470-404.3c9.5-52.9,18.1-55.6,18.2-55.6c0,0,0.1,0,0.1,0c1.2-0.1,9.5,0.5,28.2,33.5
						c5.8,10.1,10.9,20.4,14.5,28.1c4.5-1.6,8.9-3.3,13.3-5.1c-3.7-8-9.5-19.9-16.2-31.7c-17.3-30.4-30.9-43.3-42.8-40.4
						c-12,2.9-21,23.9-28.9,68c-4.5,24.9-7.2,50.3-8.4,62.7c5.3-4.4,10.6-8.8,15.3-14C464.9-371.6,467.1-388,470-404.3z"/>
				</g>
				<g>
					<path class="st1" d="M815.1-172c-8.4,11.5-22.7,28.1-43.4,43.9c-19.9,15.1-42.3,26.9-66.4,34.8c-29.8,9.9-62.5,14.1-97.2,12.4
						c-30.9-1.5-59.4-9.4-84.7-23.5c-20.3-11.3-38.6-26.6-54.4-45.5c-15-17.9-25-35.7-31-48.2c-5.5-0.8-11.1-1.7-16.6-2.3
						c5.2,12.4,16.7,36.5,37.3,61.1c17,20.4,36.6,36.9,58.4,49.1c27.1,15.2,57.6,23.8,90.5,25.3c14.2,0.7,28.2,0.4,41.7-0.8
						c21-1.9,41.2-6,60.2-12.3c25.5-8.5,49.2-21,70.3-37.1c26.4-20.2,42.9-41.5,51-54.1C825.5-169.9,820.3-170.8,815.1-172z"/>
				</g>
				<g>
					<path class="st1" d="M614-85l-5.1-7.2c-0.5-0.7-48.1-66.5-111.4-89.3c-64-23.1-132.6-15.9-133.3-15.8l-10.1,1.1l2.8-11.3
						c3.8-15.3,20.2-33.7,30.9-44.4c-3.7-0.7-6.2,0-6.7,0.1l-16.1,7.1l7.8-18.1c10.2-24.4,40.2-65.9,82.1-99.3
						c37.5-29.9,98.4-64.1,175.2-57.5c56.5,4.9,104.6,18.9,143,41.7c31.1,18.4,55.9,42.5,73.9,71.6c30.7,49.9,30.4,96.9,30.4,98.8
						l-0.2,13l-3.8-2.3c8,15.2,12.6,32.3,13.4,35.2l3.9,15.1l-12.8-5.2c-0.7-0.3-74.3-30-135.4-24.6c-1,0.1-1.9,0.2-2.9,0.3
						c-60.5,6.6-119.5,83.2-120.1,84L614-85z M375.3-214.2c23.4-1.1,75.4-0.9,126.2,17.4c55.6,20,98.4,69.4,112.8,87.6
						C630.7-129,682.5-186,738.1-192c1.1-0.1,2.1-0.2,3.2-0.3c48.5-4.3,102.6,11.7,127.4,20.4c-5.1-13.8-12.5-28.7-20.1-33l-6.9-4
						l4.2-7.5c1.8-3.3,6.2-7.2,16.7-3.6c-1.9-16.3-8-46.6-27.4-77.7c-16.7-26.8-39.9-49.1-69-66.2c-36.7-21.6-82.8-34.9-137.2-39.6
						c-72.8-6.3-130.7,26.2-166.4,54.7c-35.1,28-59.8,60.4-71.7,81.4c4.1,0.9,8.8,2.8,13.9,6.5l8.4,6.1l-7.9,7
						C396.4-240,382.9-226,375.3-214.2z M855-205.5L855-205.5L855-205.5z"/>
				</g>
				<g>
					<path class="st0" d="M586.1-123.5c3.9-17.6,49.8-10.2,57.1,0.4s-14.3,35.6-27.4,37.3C602.7-84,582.9-108.9,586.1-123.5z"/>
				</g>
				<g>
					<path class="st0" d="M757.6-226c-8.3-22.6-19.3-36.3-39.4-34.1c-12.7,1.4-34.6,17.7-32,38.5c0.6,4.4,4.7,4.1,5.7,0.1
						c3.2-13.6,13.4-23.6,23.4-26.7c17.6-5.3,26.9,8.4,34.1,26.5C751.9-215.3,760-219.3,757.6-226z"/>
				</g>
				<g>
					<path class="st0" d="M491.9-236.5c10.8-21.8,23.3-34.5,43.1-30.6c12.5,2.5,32.5,20.5,27.5,41.1c-1,4.3-5.2,3.7-5.7-0.4
						c-1.7-13.8-10.7-24.7-20.3-28.5c-16.9-6.8-27.7,6.1-36.9,23.5C496.4-225.4,488.7-230.1,491.9-236.5z"/>
				</g>
			</g>
		</g>
	</g>
</g>
</svg>
