<?xml version="1.0" encoding="utf-8"?>
<!-- Generator: Adobe Illustrator 21.0.0, SVG Export Plug-In . SVG Version: 6.00 Build 0)  -->
<svg version="1.1" id="Layer_1" xmlns="http://www.w3.org/2000/svg" xmlns:xlink="http://www.w3.org/1999/xlink" x="0px" y="0px"
	 viewBox="0 0 2206 1230.3" style="enable-background:new 0 0 2206 1230.3;" xml:space="preserve">
<style type="text/css">
	.st0{fill:#D51C43;}
	.st1{fill:#FFFFFF;}
</style>
<g>
	<g>
		<g>
			<path class="st0" d="M516.9,1115.1l-32-8l-1.3-5.4c8.3-9.2,14.2-20.9,16.7-33c5.7-2.9,9.8-8.6,10.7-15.3l2.3-18.5
				c0.7-5.6-1-11.3-4.8-15.6c-1.2-1.3-2.5-2.5-3.9-3.4l0.6-11.3l1.9-2c5.5-5.8,12.9-18.3,1.2-36.3c-5.6-8.5-17.1-18.8-40.2-18.8
				c-6.8,0-22.1,0-37,9.4c-43.9,1.5-49.1,25.2-49.1,43.1c0,3.5,0.6,10.1,1.2,15.6c-1.6,1-3,2.2-4.3,3.7c-3.8,4.3-5.5,10-4.8,15.6
				l2.3,18.6c0.9,7,5.3,12.7,11.8,15.6c2.4,11.6,8,22.9,15.8,31.9l-1.6,6.3l-32,8c-25.9,6.5-44.1,29.7-44.1,56.4
				c0,2.8,1.1,5.6,3.1,7.6c2,2,4.7,3.1,7.6,3.1l213.4,0c5.9,0,10.7-4.8,10.7-10.7C561,1144.9,542.9,1121.6,516.9,1115.1z
				 M349.1,1160.9c3.7-12.2,13.5-21.8,26.4-25.1l38.2-9.5c3.8-1,6.8-3.9,7.8-7.8l4.5-18.2c0.9-3.7-0.2-7.7-3.1-10.3
				c-8.3-7.8-13.8-19.2-14.7-30.5c-0.4-5.5-5.2-8.6-10.8-8.6l-2.8-17c3.1,0,6-1.3,8-3.6c2-2.3,3-5.4,2.6-8.4
				c-0.8-6.4-2.1-18.1-2.1-21.9c0-11,0-21.5,31.2-21.8c2.2,0,4.3-0.7,6.1-2c10.2-7.3,21.8-7.3,27.5-7.3c16.4,0,20.8,6.8,22.4,9.1
				c4.3,6.7,2.6,8.5,1.4,9.8l-4.6,4.6c-1.9,1.9-3,4.4-3.1,7l-1.1,23.2c-0.1,2.9,0.2,4.9,2.2,7c2,2.1,4.1,2.5,7,2.6l-1.4,17.3
				c-5.6,0-10.2,4.3-10.6,9.8c-0.9,11.5-6.8,23.5-15.4,31.1c-2.9,2.6-4.2,6.7-3.2,10.5l4.4,17.4c1,3.8,3.9,6.8,7.8,7.8l38.2,9.5
				c12.8,3.2,22.7,12.9,26.3,25.1L349.1,1160.9z"/>
			<path class="st1" d="M294.2,1160.9h-95.6c5.2-36.1,36.4-64,73.9-64h21.3c12,0,23.9,3.1,35.3,9.3c5.1,2.8,11.6,0.9,14.4-4.3
				c2.8-5.2,0.9-11.6-4.3-14.4c-2.5-1.4-5.1-2.5-7.6-3.6c7.3-8.2,14.3-17,20.9-27c3.2-4.9,1.9-11.5-3-14.8c-4.9-3.2-11.5-1.9-14.8,3
				c-7.6,11.4-15.7,21.7-24.1,30.5h-16.2c-0.2,0-0.4,0-0.7,0h-21.3c-0.1,0-0.3,0-0.4,0h-16.4C157.8,973,154.5,743,155,691.6h256.4
				c0.4,32.8-0.8,138.6-27.2,237.1c-1.5,5.7,1.9,11.5,7.6,13.1c5.8,1.4,11.6-1.9,13.1-7.6c15.3-56.9,22.3-115,25.5-161.3
				c11.8-11.5,28.5-22.6,43.5-12.8c21.1,14,31.1,63.4,12.8,108.8c-5,12.5-13,26.1-23.8,40.4c-3.5,4.7-2.6,11.4,2.1,14.9
				c1.9,1.5,4.2,2.2,6.4,2.2c3.2,0,6.4-1.5,8.5-4.2c12.1-16,20.7-30.9,26.5-45.3c20.8-51.7,11.2-113.3-20.9-134.5
				c-8.1-5.4-27.8-13.7-53.6,2.4c1-23.7,1-42.2,0.9-53.2h10.4c5.9,0,10.7-4.8,10.7-10.7s-4.8-10.7-10.7-10.7h-320
				c-5.9,0-10.7,4.8-10.7,10.7s4.8,10.7,10.7,10.7h10.4c-0.1,11.1-0.2,29.6,0.8,53.1c-25.7-16-45.4-7.7-53.5-2.3
				C48.8,763.6,39.3,825.2,60,876.9c29.7,73.9,127.8,140.7,131.9,143.5c0.4,0.3,0.9,0.2,1.3,0.4c11.4,23.2,24.9,44.5,41,62.9
				c-33.9,14.8-57.7,48.6-57.7,87.9c0,5.9,4.8,10.7,10.7,10.7h107c5.9,0,10.6-4.8,10.6-10.7C304.9,1165.7,300.1,1160.9,294.2,1160.9
				z M79.8,868.9c-18.2-45.4-8.2-94.8,12.8-108.8c14.9-9.8,31.5,1.2,43.3,12.6c4,59.8,14.5,139.1,40.7,209.5
				C145.9,957.6,97.9,913.9,79.8,868.9z"/>
			<path class="st1" d="M187,712.9c-5.9,0.1-10.5,5-10.4,10.9c0.9,37.7,9.1,230.4,87.7,326.5c2.1,2.6,5.2,3.9,8.3,3.9
				c2.4,0,4.8-0.8,6.8-2.5c4.6-3.7,5.2-10.4,1.5-15c-74.2-90.7-82.1-277.1-82.9-313.5C197.8,717.5,193,713.4,187,712.9z"/>
		</g>
	</g>
</g>
</svg>
