<?xml version="1.0" encoding="utf-8"?>
<!-- Generator: Adobe Illustrator 21.0.0, SVG Export Plug-In . SVG Version: 6.00 Build 0)  -->
<svg version="1.1" id="Слой_1" xmlns="http://www.w3.org/2000/svg" xmlns:xlink="http://www.w3.org/1999/xlink" x="0px" y="0px"
	 viewBox="0 0 255.1 141.7" style="enable-background:new 0 0 255.1 141.7;" xml:space="preserve">
<style type="text/css">
	.st0{fill:#FFFFFF;}
	.st1{fill:#CA4E51;}
</style>
<g>
	<path class="st0" d="M127.5-124.3C56.6-124.3-1-66.7-1,4.1c0,68,116.7,252.1,121.7,259.9c1.5,2.3,4,3.7,6.7,3.7
		c2.7,0,5.3-1.4,6.7-3.7c5-7.8,121.7-191.9,121.7-259.9C255.9-66.7,198.3-124.3,127.5-124.3L127.5-124.3z M127.5,244.6
		c-10.6-17.1-32-52.5-53.2-91.7C35.5,81.4,15,30,15,4.1c0-62,50.4-112.4,112.5-112.4S239.9-57.9,239.9,4.1
		c0,25.8-20.5,77.3-59.2,148.9C159.5,192.2,138,227.5,127.5,244.6L127.5,244.6z M127.5,244.6"/>
	<path class="st1" d="M127.5-63.4C94-63.4,66.7-36.9,66.7-4.3c0,32.6,27.3,59.1,60.8,59.1s60.8-26.5,60.8-59.1
		C188.2-36.9,161-63.4,127.5-63.4L127.5-63.4z M127.5,38.8c-24.7,0-44.8-19.3-44.8-43.1c0-23.8,20.1-43.1,44.8-43.1
		c24.7,0,44.8,19.3,44.8,43.1C172.2,19.5,152.1,38.8,127.5,38.8L127.5,38.8z M127.5,38.8"/>
</g>
</svg>
