<?xml version="1.0" encoding="utf-8"?>
<!-- Generator: Adobe Illustrator 21.0.0, SVG Export Plug-In . SVG Version: 6.00 Build 0)  -->
<svg version="1.1" id="Слой_1" xmlns="http://www.w3.org/2000/svg" xmlns:xlink="http://www.w3.org/1999/xlink" x="0px" y="0px"
	 viewBox="0 0 255.1 141.7" style="enable-background:new 0 0 255.1 141.7;" xml:space="preserve">
<style type="text/css">
	.st0{fill:#FFFFFF;}
	.st1{fill:#D51C43;}
</style>
<g>
	<path class="st0" d="M83.8,90.9V29.2c0-2.6-1.4-5.1-3.5-6.6c-5.8-3.9-9.4-10.4-9.4-17.4v-64c0-27.4,22.3-49.7,49.7-49.7h13.8
		c27.4,0,49.7,22.3,49.7,49.7v64c0,7-3.5,13.5-9.4,17.4c-2.2,1.4-3.5,3.9-3.5,6.6v61.7c0,4.2,2.3,7.8,6,9.7
		c8.1,3.9,50.5,25.4,89.5,57.4c5.4,4.4,8.4,10.9,8.4,17.8v43.8c0,4.4,3.5,7.9,7.9,7.9c4.4,0,7.9-3.5,7.9-7.9v-43.8
		c0-11.7-5.2-22.6-14.2-30.1c-37-30.4-76.9-51.5-89.8-58V33.2c8.2-7,12.9-17.1,12.9-27.9v-64c0-36.2-29.4-65.5-65.5-65.5h-13.8
		C84.4-124.3,55-94.8,55-58.8v64c0,10.8,4.7,21,12.9,27.9v54.6c-12.9,6.5-52.7,27.6-89.8,58c-9,7.4-14.2,18.3-14.2,30.1v43.8
		c0,4.4,3.5,7.9,7.9,7.9c4.4,0,7.9-3.5,7.9-7.9v-43.8c0-7,3-13.4,8.4-17.8c39-32.1,81.4-53.4,89.5-57.4
		C81.4,98.8,83.8,95.1,83.8,90.9L83.8,90.9z M83.8,90.9"/>
	<path class="st1" d="M173.6,181.5l-67.1,67.1l-25.2-25.2c-3.1-3.1-8.1-3.1-11.2,0c-3.1,3.1-3.1,8.1,0,11.2l30.8,30.8
		c1.5,1.5,3.6,2.3,5.6,2.3c2,0,4.1-0.8,5.6-2.3l72.7-72.7c3.1-3.1,3.1-8.1,0-11.2C181.7,178.4,176.7,178.4,173.6,181.5L173.6,181.5z
		 M173.6,181.5"/>
</g>
</svg>
