<svg xmlns="http://www.w3.org/2000/svg" width="18" height="13" viewBox="0 0 18 13">
    <path fill="#FFB800" fill-rule="evenodd" d="M.133 10.724a9.465 9.465 0 0 0 2.56-1.49 4.167 4.167 0 0 0 1.49-2.47c-1.157 0-2.143-.26-2.96-.779C.409 5.466 0 4.583 0 3.337 0 2.3.37 1.483 1.112.89 1.854.297 2.714 0 3.693 0c1.335 0 2.3.4 2.893 1.201s.89 1.87.89 3.204c0 1.039-.215 1.958-.645 2.76a8.707 8.707 0 0 1-1.67 2.18 10.081 10.081 0 0 1-2.358 1.668c-.89.46-1.78.839-2.67 1.135v-1.424zm10 0a9.465 9.465 0 0 0 2.56-1.49 4.167 4.167 0 0 0 1.49-2.47c-1.157 0-2.143-.26-2.96-.779C10.409 5.466 10 4.583 10 3.337c0-1.038.37-1.854 1.112-2.447.742-.593 1.602-.89 2.581-.89 1.335 0 2.3.4 2.893 1.201s.89 1.87.89 3.204c0 1.039-.215 1.958-.645 2.76a8.707 8.707 0 0 1-1.67 2.18 10.081 10.081 0 0 1-2.358 1.668c-.89.46-1.78.839-2.67 1.135v-1.424z"/>
</svg>
