<svg id="Слой_1" data-name="Слой 1" xmlns="http://www.w3.org/2000/svg" viewBox="0 0 17 16.11"><title>календарь</title><path d="M14.55,1.66H12.89V1a.59.59,0,1,0-1.17,0v.7H9.09V1A.59.59,0,0,0,7.91,1v.7H5.28V1A.59.59,0,1,0,4.11,1v.7H2.45A2.09,2.09,0,0,0,.39,3.71v10a2.09,2.09,0,0,0,2.06,2.06H14.55a2.09,2.09,0,0,0,2.06-2.06v-10A2.09,2.09,0,0,0,14.55,1.66Zm-13,5.43H15.44v6.59a.9.9,0,0,1-.89.89H2.45a.9.9,0,0,1-.89-.89ZM4.7,4a.59.59,0,0,0,.59-.59V2.83H7.91v.61a.59.59,0,0,0,1.17,0V2.83h2.63v.61a.59.59,0,1,0,1.17,0V2.83h1.67a.9.9,0,0,1,.89.89v2.2H1.56V3.71a.9.9,0,0,1,.89-.89H4.11v.61A.59.59,0,0,0,4.7,4Z"/></svg>