<?xml version="1.0" encoding="utf-8"?>
<!-- Generator: Adobe Illustrator 21.0.2, SVG Export Plug-In . SVG Version: 6.00 Build 0)  -->
<svg version="1.1" id="Слой_1" xmlns="http://www.w3.org/2000/svg" xmlns:xlink="http://www.w3.org/1999/xlink" x="0px" y="0px"
	 viewBox="-419.3 308 16.5 15" style="enable-background:new -419.3 308 16.5 15;" xml:space="preserve">
<g fill="#fff">
	<path fill="#fff" d="M-405.8,314.4l-3.7-3.6c0,0,0,0,0,0l-7.7,6.9c-0.3,0.3-0.5,0.6-0.6,0.9l-0.8,3.3c0,0.2,0,0.3,0.1,0.5
		c0.1,0.1,0.2,0.2,0.4,0.2c0,0,3.6-0.6,3.6-0.6c0.4-0.1,0.7-0.2,1-0.5l7.9-7C-405.7,314.4-405.8,314.4-405.8,314.4z"/>
	<path fill="#fff" d="M-403.9,310l-0.7-0.8c-0.8-0.8-2.2-0.9-3.1-0.1l-0.7,0.7l3.7,3.6c0.1,0.1,0.1,0.1,0.1,0.2l0.7-0.6
		C-403.1,312.1-403.1,310.8-403.9,310z"/>
</g>
</svg>
