<?xml version="1.0" encoding="utf-8"?>
<!-- Generator: Adobe Illustrator 21.0.2, SVG Export Plug-In . SVG Version: 6.00 Build 0)  -->
<svg version="1.1" id="Слой_1" xmlns="http://www.w3.org/2000/svg" xmlns:xlink="http://www.w3.org/1999/xlink" x="0px" y="0px"
	 viewBox="-419.2 306.8 16.3 17.5" style="enable-background:new -419.2 306.8 16.3 17.5;" xml:space="preserve">
<path d="M-403.4,322.3l-2.9-2.9c1.2-1.3,2-3,2-4.9c0-4-3.2-7.2-7.2-7.2s-7.2,3.2-7.2,7.2s3.2,7.2,7.2,7.2c1.4,0,2.8-0.4,3.9-1.2l3,3
	c0.2,0.2,0.4,0.3,0.6,0.3s0.4-0.1,0.6-0.3C-403.1,323.2-403.1,322.6-403.4,322.3z M-417.1,314.5c0-3,2.5-5.5,5.5-5.5
	s5.5,2.5,5.5,5.5s-2.5,5.5-5.5,5.5S-417.1,317.5-417.1,314.5z"/>
</svg>
