<svg version="1.1" id="&#x421;&#x43B;&#x43E;&#x439;_1"
	 xmlns="http://www.w3.org/2000/svg" xmlns:xlink="http://www.w3.org/1999/xlink" x="0px" y="0px" viewBox="0 0 300 261.2"
	 style="enable-background:new 0 0 300 261.2;" xml:space="preserve">
<g>
	<defs>
		<rect id="SVGID_1_" width="300" height="261.2"/>
	</defs>
	<clipPath id="SVGID_2_">
		<use xlink:href="#SVGID_1_"  style="overflow:visible;"/>
	</clipPath>
	<path style="clip-path:url(#SVGID_2_);fill:#fff;" d="M5.299,125.244l69.126,25.8l26.756,86.047
		c1.712,5.511,8.451,7.548,12.924,3.891l38.532-31.411c4.039-3.291,9.792-3.455,14.013-0.392l69.498,50.457
		c4.784,3.479,11.564,0.857,12.764-4.926L299.823,9.819c1.31-6.316-4.896-11.585-10.91-9.259L5.218,110.001
		C-1.783,112.701-1.722,122.613,5.299,125.244 M96.869,137.31l135.098-83.207c2.427-1.491,4.925,1.792,2.84,3.727L123.313,161.469
		c-3.919,3.649-6.447,8.53-7.163,13.829l-3.798,28.147c-0.503,3.758-5.782,4.131-6.819,0.493l-14.607-51.324
		C89.253,146.759,91.691,140.506,96.869,137.31"/>
</g>
</svg>