<svg xmlns="http://www.w3.org/2000/svg" width="89" height="56" viewBox="0 0 89 56">
    <g fill="none" fill-rule="nonzero">
        <path fill="#404149" d="M74.802 30.254l-8.718-17.37a1.808 1.808 0 0 0-.396-.52 1.653 1.653 0 0 0-.547-.329L54.917 8.384A6.556 6.556 0 0 0 52.648 8a6.569 6.569 0 0 0-2.26.428l-7.758 2.94c-.546.208-1.088.446-1.622.718-.179.092-.354.191-.529.289a14.455 14.455 0 0 0-1.835-.83 14.12 14.12 0 0 0-6.135-.84l-5.219.446a1.6 1.6 0 0 0-.67.214 1.713 1.713 0 0 0-.53.49L14.339 28.477a1.857 1.857 0 0 0-.332 1.236c.039.46.238.862.532 1.152l5.111 5.033a4.085 4.085 0 0 0 .522 4.69 4.138 4.138 0 0 0 2.854 1.397c.06.004.12.004.18.006a4.123 4.123 0 0 0 1.1 4.232 4.143 4.143 0 0 0 2.583 1.117 4.126 4.126 0 0 0 .986 4.554 4.15 4.15 0 0 0 2.858 1.132c1.112 0 2.15-.432 2.934-1.211a4.152 4.152 0 0 0 5.55 3.24 4.279 4.279 0 0 0 2.546.717c1.147-.047 2.176-.55 2.946-1.337l-2.811-2.787c.006-.064.018-.126.021-.193a4.094 4.094 0 0 0-.203-1.57l5.753 5.703c.726.294 1.516.44 2.339.407 1.647-.066 3.113-.839 4.152-2.034l.576-.664a.92.92 0 0 0 .13-.21l-8.858-8.777a.62.62 0 0 1-.044-.834.53.53 0 0 1 .781-.017L57.08 53.898c.574.2 1.188.297 1.827.271 1.447-.058 2.739-.738 3.652-1.79l1.39-1.6c.32-.37.51-.868.492-1.409l-9.244-9.158a.623.623 0 0 1-.044-.834.53.53 0 0 1 .782-.017l9.288 9.202c.381.101.781.15 1.193.135 1.186-.048 2.242-.604 2.99-1.467l.373-.43a4.755 4.755 0 0 0 1.144-3.293 4.715 4.715 0 0 0-1.371-3.192l-2.48-2.457.626.62 6.705-6.015a1.8 1.8 0 0 0 .567-1.03 1.89 1.89 0 0 0-.168-1.18zm-51.66 9.95a2.348 2.348 0 0 1-1.62-.794 2.314 2.314 0 0 1-.579-1.7 2.356 2.356 0 0 1 2.51-2.186 2.352 2.352 0 0 1 2.2 2.495 2.36 2.36 0 0 1-2.51 2.185zm4.02 5.364a2.342 2.342 0 0 1-1.739-3.93c.045-.045.966-1.013 1.407-1.475l.232-.245a2.347 2.347 0 0 1 1.714-.733c.606 0 1.183.229 1.622.643.458.43.72 1.012.737 1.638a2.319 2.319 0 0 1-.645 1.675l-.656.69-.445.466c-.025.028-.052.055-.076.08l-.294.308a6.91 6.91 0 0 1-.157.166 2.343 2.343 0 0 1-1.7.717zm5.268 4.956a2.344 2.344 0 0 1-1.698.717 2.354 2.354 0 0 1-1.622-.642 2.34 2.34 0 0 1-.12-3.284l1.173-1.233.455-.477c.797-.838 1.058-1.11 1.146-1.206.01-.009.022-.02.03-.03l.003-.001c.077-.083.121-.129.123-.13a2.346 2.346 0 0 1 1.714-.733 2.356 2.356 0 0 1 2.358 2.28 2.322 2.322 0 0 1-.646 1.678l-2.916 3.061zm5.188 3.003a2.353 2.353 0 0 1-2.2-2.494 2.356 2.356 0 0 1 2.509-2.187 2.354 2.354 0 0 1 2.2 2.493 2.36 2.36 0 0 1-2.51 2.188zm28.846-16.27L48.099 19.064l.207-.52a.992.992 0 0 0-.063-.86.864.864 0 0 0-.696-.44l-1.365-.081-1.491-.088-.113 1.756c-.002.037-.297 4.03-2.347 7.639-2.1 3.703-4.885 4.98-5.309 5.062-.474.091-.971.178-1.384.178-.284 0-.503-.04-.69-.125l-.697-.32a1.226 1.226 0 0 1-.633-.698 1.335 1.335 0 0 1 0-.94l6.985-15.232 1.187-.778.479-.18h-.001l8.778-3.328a4.965 4.965 0 0 1 1.717-.323h.049c.57 0 1.134.097 1.674.29l10.224 3.652 8.719 17.37-6.865 6.16zM76.216 2L69.38 5.467c-.983.5-1.78 1.38-2.157 2.524a4.436 4.436 0 0 0 .229 3.338l8.95 18.25c.491 1 1.357 1.812 2.484 2.194a4.214 4.214 0 0 0 3.28-.233L89 28.07 76.216 2zm5.932 26.082c-.908 0-1.646-.749-1.646-1.674 0-.925.738-1.676 1.646-1.676.91 0 1.648.75 1.648 1.676 0 .925-.739 1.674-1.648 1.674z"/>
        <path fill="#FFB800" d="M0 23.758l6.366 4.45a4.374 4.374 0 0 0 3.27.726 4.36 4.36 0 0 0 2.826-1.786l11.741-16.63A4.344 4.344 0 0 0 23.14 4.45L16.772 0 0 23.758zm5.491-.854a1.677 1.677 0 0 1 1.908-1.402 1.672 1.672 0 0 1 1.41 1.9 1.675 1.675 0 0 1-1.91 1.401 1.668 1.668 0 0 1-1.408-1.899z"/>
    </g>
</svg>
