<svg xmlns="http://www.w3.org/2000/svg" width="65" height="12" viewBox="0 0 65 12">
    <path fill="#B4B5BE" fill-rule="evenodd" d="M63.114 2.333c-2.641.583-5.294-.15-7.307-1.95-1.328-1.189-3.609.654-2.154 1.956a11.523 11.523 0 0 0 3.85 2.281C50.994 7.162 43.827 7.945 36.93 6.68c-8.277-1.518-16.067-5.548-24.637-5.31C8.031 1.486 3.924 2.645.512 5.27c-1.54 1.187.754 3.034 2.154 1.957 6.443-4.96 15.24-3.016 22.351-.895 4.219 1.26 8.414 2.68 12.79 3.287a42.19 42.19 0 0 0 11.847-.043 40.533 40.533 0 0 0 8.443-2.176 8.96 8.96 0 0 0-.788 3.25c-.094 1.797 2.951 1.8 3.046 0 .105-1.978 1.151-3.801 2.849-4.828.37-.224.579-.51.663-.811L63.924 5c1.926-.426 1.027-3.074-.81-2.668"/>
</svg>
