<svg xmlns="http://www.w3.org/2000/svg" width="94" height="94" viewBox="0 0 94 94">
    <g fill="none" fill-rule="evenodd">
        <path fill="#404149" d="M18.36 0c5.235 6.487 9.237 13.74 13.158 21.054 1.112 2.074.98 3.631-.996 5.025-1.093.771-2.065 1.715-3.082 2.592-5.52 4.758-5.564 4.778-2.85 11.397 3.963 9.667 9.902 17.904 18.076 24.465 3.354 2.692 7.071 4.72 11.147 6.17 4.571 1.628 8.173 1.19 11.768-2.703 5.791-6.272 4.748-5.376 11.468-1.59C82.997 69.76 88.62 73.634 94 77.844v.734c-1.157 1.083-2.292 2.19-3.474 3.245-5.092 4.54-10.951 8.053-16.354 12.177h-6.61c-8.37-2.352-16.367-5.558-23.39-10.79C23.44 67.762 6.72 49.323 0 23.5v-3.672c1.146-.19 1.36-1.296 1.923-2.025C6.781 11.536 11.625 5.26 17.625 0h.734z"/>
        <path fill="#FFB800" d="M94 44.958c-2.562.184-5.703 1.882-7.455.513-1.396-1.092-.902-4.53-1.332-6.91-2.941-16.266-17.08-29.247-33.559-30.278-3.614-.226-4.056-1.407-3.4-4.293.299-1.311.43-2.659.638-3.99h5.176c.607.795 1.54.617 2.357.792C74.75 4.727 86.69 15.645 92.277 33.45c.727 2.314 1.156 4.722 1.723 7.087v4.422z"/>
        <path fill="#FFB800" d="M49.956 20.093c13.645.441 24.692 11.703 25.04 24.96.13 4.95-3.686 3.27-5.969 3.816-3.191.762-2.013-1.98-2.06-3.362-.322-9.508-7.876-17.11-17.36-17.425-1.563-.052-4.273 1.03-3.457-2.365.567-2.355-.845-6.38 3.806-5.624"/>
    </g>
</svg>
