<svg xmlns="http://www.w3.org/2000/svg" xmlns:xlink="http://www.w3.org/1999/xlink" width="146" height="88" viewBox="0 0 146 88"><defs><path id="knkfa" d="M662.67 540.67v-8h8v8z"/><path id="knkfb" d="M692 554h-45.34v18.66h-5.33v-53.33H692zm-5.34-29.34h-8v8h-8v-8h-8v8h-8v-8h-8v8h8v8h-8v8h8v-8h8v8h8v-8h8v8h8v-8h-8v-8h8z"/><path id="knkfc" d="M606.67 540.67v-8h8v8z"/><path id="knkfd" d="M636 554h-45.34v18.66h-5.33v-53.33H636zm-5.34-29.34h-8v8h-8v-8h-8v8h-8v-8h-8v8h8v8h-8v8h8v-8h8v8h8v-8h8v8h8v-8h-8v-8h8z"/></defs><g><g transform="translate(-567 -502)"><g transform="rotate(30 668 546)"><g><g/></g><g><g><g><use fill="#2979ff" xlink:href="#knkfa"/></g><g><use fill="#2979ff" xlink:href="#knkfb"/></g></g></g></g><g transform="scale(-1 1) rotate(-30 0 2830.02)"><g><g/></g><g><g><g><use fill="#2979ff" xlink:href="#knkfc"/></g><g><use fill="#2979ff" xlink:href="#knkfd"/></g></g></g></g></g></g></svg>