<svg xmlns="http://www.w3.org/2000/svg" xmlns:xlink="http://www.w3.org/1999/xlink" width="18" height="18" viewBox="0 0 18 18"><defs><path id="jfota" d="M281 841a2 2 0 1 1 4 0 2 2 0 0 1-4 0z"/><path id="jfotb" d="M288.38 843.18c-.2.45-.1.97.24 1.33l.05.04a1.45 1.45 0 1 1-2.06 2.06l-.05-.05a1.2 1.2 0 0 0-1.32-.24 1.2 1.2 0 0 0-.73 1.1v.13a1.45 1.45 0 1 1-2.9 0v-.07a1.2 1.2 0 0 0-.8-1.1 1.2 1.2 0 0 0-1.32.24l-.04.05a1.45 1.45 0 1 1-2.06-2.06l.05-.05c.34-.35.43-.87.24-1.32a1.2 1.2 0 0 0-1.1-.73h-.13a1.45 1.45 0 1 1 0-2.9h.07c.5-.02.93-.33 1.1-.8.2-.44.1-.96-.24-1.32l-.05-.04a1.45 1.45 0 1 1 2.06-2.06l.05.05c.35.34.87.43 1.32.24h.06c.44-.2.72-.62.73-1.1v-.13a1.45 1.45 0 0 1 2.9 0v.07c0 .48.3.91.73 1.1.45.2.97.1 1.33-.24l.04-.05a1.45 1.45 0 1 1 2.06 2.06l-.05.05a1.2 1.2 0 0 0-.24 1.32v.06c.2.44.62.72 1.1.73h.13a1.45 1.45 0 0 1 0 2.9h-.07c-.48 0-.91.3-1.1.73z"/></defs><g><g transform="translate(-274 -832)"><g><use fill="#fff" fill-opacity="0" stroke="#263238" stroke-linecap="round" stroke-linejoin="round" stroke-miterlimit="50" stroke-width="2" xlink:href="#jfota"/></g><g><use fill="#fff" fill-opacity="0" stroke="#263238" stroke-linecap="round" stroke-linejoin="round" stroke-miterlimit="50" stroke-width="2" xlink:href="#jfotb"/></g></g></g></svg>