<svg xmlns="http://www.w3.org/2000/svg" width="65" height="37" viewBox="0 0 65 37">
    <g fill="none" fill-rule="nonzero">
        <g fill="#FFC10D">
            <path d="M40.902 29.154c0 1.973-1.622 3.507-3.514 3.507h-6.577V30.86c0-.987-.806-1.802-1.805-1.802H25.49c.086-1.888 1.623-3.422 3.515-3.422h8.382a3.535 3.535 0 0 1 3.514 3.519z"/>
            <path d="M61.171 29.057H44.503c-.086-2.703-1.623-5.042-3.966-6.2.451-.365.72-.902.72-1.438v-.987c0-.987-.806-1.802-1.805-1.802-.99 0-1.806.804-1.806 1.802v.987c0 .268.086.536.183.719h-3.332c.086-.183.183-.45.183-.72v-.986c0-.987-.817-1.802-1.806-1.802-.988 0-1.805.804-1.805 1.802v.987c0 .268.086.45.183.719h-2.257c-.366 0-.72 0-1.086.085.086-.268.183-.536.183-.804v-.987c0-.987-.806-1.802-1.806-1.802-.988 0-1.805.804-1.805 1.802v.987c0 .719.451 1.351.989 1.62a6.827 6.827 0 0 0-3.6 6.029h-8.017l-10.274-8.54V16.12h42.826c4.234 0 8.114 1.803 10.811 4.678h-4.32c-.989 0-1.806.804-1.806 1.802 0 .987.806 1.802 1.806 1.802h6.835c.72 1.427 1.172 3.036 1.44 4.656z"/>
        </g>
        <g fill="#194F82">
            <path d="M12.971 18.544c-.988 0-1.805.805-1.805 1.802v.987c0 .987.806 1.803 1.805 1.803a1.8 1.8 0 0 0 1.806-1.803v-.987c0-.997-.817-1.802-1.806-1.802zM19.645 18.544c-.988 0-1.805.805-1.805 1.802v.987c0 .987.806 1.803 1.805 1.803a1.8 1.8 0 0 0 1.806-1.803v-.987a1.815 1.815 0 0 0-1.806-1.802zM46.222 18.544c-.988 0-1.805.805-1.805 1.802v.987c0 .987.806 1.803 1.805 1.803.989 0 1.806-.805 1.806-1.803v-.987a1.815 1.815 0 0 0-1.806-1.802z"/>
        </g>
        <path fill="#56ACE0" d="M10.091 3.612H7.566v8.903h6.308z"/>
        <path fill="#FFF" d="M40.902 29.24c0-1.975-1.622-3.508-3.514-3.508H28.92c-1.892 0-3.428 1.533-3.514 3.422h3.514c.988 0 1.805.804 1.805 1.802v1.888h6.663c1.989-.097 3.514-1.717 3.514-3.605z"/>
        <path fill="#194F82" d="M46.491 12.515H17.743L12.875 1.187A1.779 1.779 0 0 0 11.252.104H5.76c-.988 0-1.805.804-1.805 1.802v10.695h-2.15c-.988 0-1.805.805-1.805 1.802v7.102c0 .536.269 1.083.634 1.351l11.349 9.44c.365.269.72.451 1.171.451h14.057v1.888c0 .987.806 1.802 1.806 1.802h8.382c2.708 0 5.04-1.437 6.212-3.69h19.452c.988 0 1.805-.804 1.805-1.802 0-10.245-8.286-18.43-18.377-18.43zm-15.68 20.232V30.86c0-.987-.806-1.802-1.805-1.802H25.49c.086-1.888 1.623-3.422 3.515-3.422h8.382c1.978 0 3.514 1.62 3.514 3.508 0 1.973-1.623 3.507-3.514 3.507h-6.577v.097zm13.692-3.69a7.131 7.131 0 0 0-3.966-6.2c.451-.365.72-.902.72-1.438v-.987c0-.987-.806-1.802-1.805-1.802-.99 0-1.806.804-1.806 1.802v.987c0 .268.086.536.183.719h-3.332c.086-.183.183-.45.183-.72v-.986c0-.987-.806-1.802-1.806-1.802-.988 0-1.805.804-1.805 1.802v.987c0 .268.086.45.183.719h-2.257c-.366 0-.72 0-1.086.085.086-.268.183-.536.183-.804v-.987c0-.987-.806-1.802-1.806-1.802-.988 0-1.805.804-1.805 1.802v.987c0 .719.451 1.351.989 1.62a6.827 6.827 0 0 0-3.6 6.029h-8.017l-10.274-8.54V16.12h42.794c4.234 0 8.114 1.803 10.811 4.678h-4.32c-.989 0-1.806.804-1.806 1.802 0 .987.806 1.802 1.806 1.802h6.867c.72 1.438 1.171 3.057 1.44 4.677H44.503v-.021zM7.566 3.612h2.525l3.783 8.903H7.566V3.612z"/>
    </g>
</svg>
