<svg xmlns="http://www.w3.org/2000/svg" width="40" height="40" viewBox="0 0 40 40">
    <g fill="none" fill-rule="nonzero">
        <path fill="#56ACE0" d="M2.216 2.222h18.022v35.481H2.216z"/>
        <g fill="#FFF">
            <path d="M7.54 26.01h7.373v11.7H7.54zM5.88 6.607h10.7v2.718H5.88z"/>
        </g>
        <g fill="#FFC10D">
            <path d="M5.88 16.143h10.7v2.718H5.88zM37.703 22.962c0 2.658-1.885 4.88-4.378 5.377V26.4l2.771-2.771a1.075 1.075 0 0 0 0-1.554 1.075 1.075 0 0 0-1.554 0l-2.328 2.328-2.328-2.328a1.075 1.075 0 0 0-1.554 0 1.075 1.075 0 0 0 0 1.554l2.77 2.77v1.939c-2.492-.496-4.377-2.719-4.377-5.377 0-2.996 2.44-5.49 5.489-5.49s5.49 2.441 5.49 5.49z"/>
        </g>
        <g fill="#194F82">
            <path d="M21.348.007H1.111C.503.007 0 .503 0 1.117v37.697c0 .609.496 1.111 1.111 1.111h20.237c.609 0 1.111-.496 1.111-1.11V1.117C22.453.503 22.01.007 21.35.007zM7.54 34.324h1.052c.608 0 1.111-.496 1.111-1.111a1.11 1.11 0 0 0-1.111-1.111H7.539v-2.216h2.163c.608 0 1.111-.496 1.111-1.111a1.11 1.11 0 0 0-1.111-1.111H7.539v-1.667h7.374v11.7H7.54v-3.373zm12.698 3.386h-3.102V24.9c0-.609-.496-1.111-1.11-1.111h-9.59c-.609 0-1.111.496-1.111 1.11v12.81H2.216V2.223h18.021V37.71z"/>
            <path d="M4.768 11.593h12.916c.609 0 1.111-.496 1.111-1.11V5.548c0-.609-.495-1.111-1.11-1.111H4.767c-.608 0-1.11.496-1.11 1.11v4.934c0 .615.502 1.111 1.11 1.111zM5.88 6.607h10.7v2.711H5.88V6.607zM4.768 21.077h12.916c.609 0 1.111-.496 1.111-1.111v-4.934c0-.608-.495-1.11-1.11-1.11H4.767c-.608 0-1.11.495-1.11 1.11v4.934c0 .608.502 1.111 1.11 1.111zm1.111-4.934h10.7v2.719H5.88v-2.719zM32.214 15.31c-4.213 0-7.705 3.44-7.705 7.705 0 3.882 2.884 7.043 6.6 7.599v8.2c0 .609.497 1.112 1.112 1.112.608 0 1.11-.496 1.11-1.112v-8.2c3.718-.556 6.601-3.717 6.601-7.6a7.711 7.711 0 0 0-7.718-7.704zM33.32 28.34V26.4l2.77-2.771a1.075 1.075 0 0 0 0-1.554 1.075 1.075 0 0 0-1.554 0l-2.328 2.328-2.328-2.328a1.075 1.075 0 0 0-1.554 0 1.075 1.075 0 0 0 0 1.554l2.771 2.77v1.939c-2.493-.496-4.378-2.719-4.378-5.377 0-2.996 2.44-5.49 5.49-5.49 3.048 0 5.489 2.441 5.489 5.49a5.468 5.468 0 0 1-4.378 5.377z"/>
        </g>
    </g>
</svg>
