<svg xmlns="http://www.w3.org/2000/svg" width="40" height="40" viewBox="0 0 40 40">
    <g fill="none" fill-rule="nonzero">
        <path fill="#FFC10D" d="M2.222 2.222h35.555v2.222H2.222z"/>
        <path fill="#FFF" d="M3.333 37.777h33.333c.61 0 1.11-.5 1.11-1.111v-20c0-.61-.5-1.11-1.11-1.11H3.333c-.61 0-1.11.5-1.11 1.11v20c0 .61.5 1.11 1.11 1.11z"/>
        <path fill="#56ACE0" d="M4.444 17.777h31.11v17.777H4.444z"/>
        <g fill="#194F82">
            <path d="M34.388 6.666h4.5c.61 0 1.11-.5 1.11-1.11V1.11c0-.611-.5-1.111-1.11-1.111H1.11C.5 0 0 .5 0 1.111v4.444c0 .611.5 1.111 1.111 1.111h4.5c0 2 1.389 3.723 3.278 4.223v2.444H3.333A3.343 3.343 0 0 0 0 16.666v20c0 1.833 1.5 3.333 3.333 3.333h33.333c1.833 0 3.333-1.5 3.333-3.333v-20c0-1.833-1.5-3.333-3.333-3.333h-5.5v-2.444c1.833-.5 3.222-2.223 3.222-4.223zM2.222 4.444V2.222h35.555v2.222H2.222zm26.722 6.445v2.444H11.055v-2.444c1.89-.5 3.222-2.167 3.278-4.223h11.333c0 2 1.389 3.723 3.278 4.223zM7.834 6.666h4.277c0 1.167-.945 2.112-2.167 2.112a2.11 2.11 0 0 1-2.11-2.112zm28.832 8.89c.61 0 1.11.5 1.11 1.11v20c0 .61-.5 1.11-1.11 1.11H3.333c-.61 0-1.11-.5-1.11-1.11v-20c0-.61.5-1.11 1.11-1.11h33.333zm-6.611-6.778c-1.167 0-2.111-.945-2.167-2.112h4.278a2.11 2.11 0 0 1-2.111 2.112z"/>
            <path d="M5.944 31.166h2.611v2.61h1.5v-6.61h-1.5v2.778h-2.61v-2.778h-1.5v6.61h1.5zM18.777 28.444h1.834v5.333h1.5v-5.333h1.888v-1.278h-5.222zM29.833 28.5v-1.334h-4.778v6.61h4.889v-1.332h-3.39V31.11H29.5v-1.277h-2.944v-1.334zM32.721 27.166h-1.5v6.61h4.334v-1.332H32.72zM6.166 23.333l1.278-.89 1.278.89-.5-1.5 1.278-.89H7.944l-.5-1.5-.5 1.5H5.39l1.277.89zM12.444 23.333l1.278-.89 1.278.89-.5-1.5 1.277-.89h-1.555l-.5-1.5-.5 1.5h-1.556l1.278.89zM18.722 23.333l1.277-.89 1.278.89-.5-1.5 1.278-.89h-1.556l-.5-1.5-.5 1.5h-1.555l1.278.89zM25 23.333l1.277-.89 1.278.89-.5-1.5 1.278-.89h-1.556l-.5-1.5-.5 1.5h-1.555l1.277.89zM31.277 23.333l1.278-.89 1.277.89-.5-1.5 1.278-.89h-1.555l-.5-1.5-.5 1.5h-1.556l1.278.89zM14.777 33.832c2.167 0 3.5-1.722 3.5-3.444.056-1.722-1.278-3.444-3.5-3.444s-3.5 1.777-3.5 3.444 1.223 3.444 3.5 3.444zm0-5.555c1.445.056 2 1.389 1.945 2.111.055.722-.556 2.111-1.945 2.111-.722 0-2-.667-1.944-2.111-.056-1.444 1.222-2.111 1.944-2.111z"/>
        </g>
    </g>
</svg>
