<svg xmlns="http://www.w3.org/2000/svg" width="72" height="72" viewBox="0 0 72 72">
    <g fill="none" fill-rule="nonzero">
        <path fill="#FFF" d="M65.866 15.976H5.988c-1.095 0-2 .892-2 2v43.212c0 1.095.893 2 2 2h59.878c1.095 0 2-.893 2-2V17.975c0-1.095-.905-2-2-2z"/>
        <path fill="#FFC10D" d="M7.988 19.975v23.451h7.88c1.095 0 2 .893 2 2 0 1.096-.892 2-2 2h-7.88v4.893h3.892c1.095 0 2 .893 2 2 0 1.095-.892 2-2 2H7.988v2.893h55.89V19.975H7.988z"/>
        <path fill="#56ACE0" d="M27.749 23.07l-.81 4.584 10.38 10.38 5.393-5.393-10.38-10.38z"/>
        <path fill="#194F82" d="M65.866 11.988h-15.57V2.012c0-1.095-.894-2-2-2h-24.75c-1.095 0-2 .893-2 2v9.976H5.988C2.69 11.988 0 14.678 0 17.975v43.213c0 3.297 2.69 5.987 5.988 5.987h6.392v2.69c0 1.096.893 2 2 2 1.108 0 2-.892 2-2v-2.69h41.415v2.69c0 1.096.893 2 2 2 1.095 0 2-.892 2-2v-2.69h4.095c3.297 0 5.988-2.69 5.988-5.987V17.975c-.024-3.297-2.715-5.987-6.012-5.987zM25.546 4h20.857v7.988H25.546V4zm42.32 57.188c0 1.095-.893 2-2 2H5.988c-1.095 0-2-.893-2-2V17.975c0-1.095.893-2 2-2H22.26l2.19 4.286a1.07 1.07 0 0 0-.297.702l-1.298 6.88a2.265 2.265 0 0 0 .5 1.799l12.571 12.582c.798.798 2 .798 2.798 0l8.285-8.285c.797-.798.797-2 0-2.798L34.427 18.678c-.5-.5-1.095-.703-1.797-.5l-4.393.797-1.5-3h39.117c1.095 0 2 .893 2 2v43.213h.012zM30.439 23.166l-.298-.5 2.19-.405 10.381 10.38-5.392 5.393-10.38-10.38.404-2.096c.595.5 1.5.595 2.19.298 1-.5 1.405-1.69.905-2.69z"/>
    </g>
</svg>
