<svg xmlns="http://www.w3.org/2000/svg" width="39" height="49" viewBox="0 0 39 49">
    <g fill="none" fill-rule="evenodd" transform="translate(.5 1)">
        <path stroke="#C1C5C9" stroke-linecap="square" stroke-width="1.2" d="M31.268 24.58c.218-.48.411-.976.578-1.483l4.482-1.357c.304-.131.55-.51.55-.846v-4.657c0-.338-.247-.7-.552-.817l-4.292-1.146a14.82 14.82 0 0 0-.812-2.198l2.159-4.032c.121-.308.027-.75-.21-.987l-3.293-3.293c-.24-.24-.67-.32-.968-.188l-3.543 2.05a13.702 13.702 0 0 0-2.283-1.051L21.866.55C21.734.246 21.354 0 21.02 0h-4.657c-.339 0-.701.247-.818.552l-1.032 3.867c-.867.27-1.699.626-2.486 1.058l-3.678-2.15c-.3-.136-.735-.053-.972.184L4.084 6.804c-.24.239-.33.674-.21.977l2.17 4.004a14.812 14.812 0 0 0-.947 2.477L.68 15.42c-.309.116-.558.483-.558.817v4.657c0 .339.243.71.543.84l4.619 1.372c.2.606.437 1.194.709 1.76l-2.29 3.916c-.135.3-.052.736.185.973l3.293 3.293c.239.24.674.33.977.209l3.76-2.037c.826.462 1.702.84 2.617 1.124l1.01 3.855c.116.308.483.557.818.557h4.657c.338 0 .71-.243.839-.543l1.195-4.021a13.708 13.708 0 0 0 2.419-1.124l3.615 1.936c.307.121.75.027.987-.21l3.293-3.293c.239-.24.32-.67.188-.968l-2.288-3.953z"/>
        <ellipse cx="18.803" cy="18.679" stroke="#273184" stroke-linecap="square" stroke-width="1.2" rx="7.279" ry="7.231"/>
        <ellipse cx="18.803" cy="18.679" stroke="#5FC5D0" stroke-width="1.6" rx="2.426" ry="2.41"/>
        <path stroke="#C1C5C9" stroke-width="1.2" d="M7.279 42.782h13.95v1.808H7.28z"/>
        <path stroke="#273184" stroke-width="1.2" d="M33.967 47h-9.705c-1.79-.087-3.032-1.537-3.032-3.314 0-1.777 1.242-3.227 3.032-3.314h9.705C35.703 40.396 37 41.87 37 43.686c0 1.815-1.297 3.29-3.033 3.314z"/>
        <path stroke="#C1C5C9" stroke-width=".6" d="M24.869 42.782h8.492M24.869 44.59h8.492"/>
        <path stroke="#5FC5D0" stroke-linecap="square" stroke-width="1.2" d="M7.279 40.974v5.423l-6.066-1.205V42.18z"/>
    </g>
</svg>
