<svg xmlns="http://www.w3.org/2000/svg" width="50" height="48" viewBox="0 0 50 48">
    <g fill="none" fill-rule="evenodd">
        <path stroke="#C1C5C9" stroke-linecap="square" stroke-width="1.2" d="M5.364 7.571H1V40.43h4.364M44.636 7.571H49V40.43h-4.364M14.09 1h21.82s3.272 0 3.272 3.286c0 3.02.223 36.51 0 39.428-.224 2.92-3.273 3.286-3.273 3.286H14.091s-3.273-.065-3.273-3.286c0-3.22-.07-36.151 0-39.428C10.748 1 14.091 1 14.091 1z"/>
        <path fill="#5FC5D0" d="M23.909 41.524h2.182v2.19h-2.182z"/>
        <path stroke="#273184" stroke-linecap="square" stroke-width="1.6" d="M15.182 5.381h19.636v32.857H15.182z"/>
        <path fill="#5FC5D0" d="M26.15 8.545l.618 2.127 2.265-.956 1.43 1.56-1.087 2.197 1.945.733.033 2.081-1.652.746.76 1.947-1.429 1.539-2.295-.85-.589 1.963-2.124.086-.623-1.967-2.162.953-1.586-1.813.978-2.114-2.003-.507-.119-2.153 2.402-.644-1.187-2.198 1.667-1.559 2.055 1.151.538-2.322h2.164zM25 17.429c1.205 0 2.182-.981 2.182-2.19 0-1.21-.977-2.191-2.182-2.191s-2.182.98-2.182 2.19.977 2.19 2.182 2.19z"/>
        <path stroke="#C1C5C9" stroke-linecap="square" stroke-width="2.2" d="M19.545 26.19H25M19.545 30.571H25"/>
    </g>
</svg>
