<?xml version="1.0" encoding="UTF-8"?>
<svg width="74px" height="65px" viewBox="0 0 74 65" version="1.1" xmlns="http://www.w3.org/2000/svg" xmlns:xlink="http://www.w3.org/1999/xlink">
    <!-- Generator: Sketch 45.2 (43514) - http://www.bohemiancoding.com/sketch -->
    <title>money</title>
    <desc>Created with Sketch.</desc>
    <defs></defs>
    <g id="Page-1" stroke="none" stroke-width="1" fill="none" fill-rule="evenodd">
        <g id="Copierman" transform="translate(-1082.000000, -1620.000000)">
            <g id="money" transform="translate(1079.000000, 1616.000000)">
                <g id="Group-2" fill="#F3F7FB">
                    <rect id="Rectangle-7" transform="translate(24.500000, 26.500000) rotate(-318.000000) translate(-24.500000, -26.500000) " x="16" y="-0.418628139" width="17" height="53.8372563" rx="8.5"></rect>
                    <rect id="Rectangle-7" transform="translate(55.500000, 46.500000) rotate(-318.000000) translate(-55.500000, -46.500000) " x="47" y="19.5813719" width="17" height="53.8372563" rx="8.5"></rect>
                    <rect id="Rectangle-7" transform="translate(40.000000, 36.508453) rotate(-318.000000) translate(-40.000000, -36.508453) " x="31.5" y="0.159021207" width="17" height="72.6988631" rx="8.5"></rect>
                </g>
                <g id="currency" transform="translate(23.000000, 10.000000)">
                    <path d="M18.9393906,42.4615703 C18.9210078,42.4026641 18.9038437,42.3433516 18.886375,42.2842422 C18.857125,42.1851172 18.8291953,42.0854844 18.8023828,41.9853437 C18.7845078,41.9181094 18.7671406,41.8506719 18.7503828,41.7832344 C18.7366719,41.7275781 18.7224531,41.672125 18.7094531,41.6159609 C18.6831484,41.5022109 18.6585703,41.3880547 18.6354141,41.2733906 C18.6259687,41.2265703 18.6172344,41.1795469 18.6082969,41.1325234 C18.5895078,41.0328906 18.5719375,40.9329531 18.5557891,40.8329141 C18.5507109,40.8016328 18.5450234,40.7705547 18.54025,40.7391719 C18.5205469,40.6117109 18.5034844,40.4837422 18.4880469,40.3555703 C18.4835781,40.3182969 18.4794141,40.2810234 18.47525,40.24375 C18.4615391,40.1194375 18.4490469,39.9950234 18.4391953,39.8703047 C18.4259922,39.702625 18.4185781,39.5672422 18.4127891,39.4315547 C18.4112656,39.3975312 18.4100469,39.3635078 18.4089297,39.3294844 C18.4041562,39.1921719 18.4010078,39.0547578 18.4010078,38.9169375 C18.4010078,38.7516953 18.4054766,38.5874687 18.4120781,38.4238516 C18.4131953,38.3971406 18.4139062,38.370125 18.415125,38.3434141 C18.4220312,38.1958437 18.4323906,38.0489844 18.4445781,37.9028359 C18.4484375,37.8568281 18.4523984,37.8108203 18.4568672,37.7650156 C18.4692578,37.6352187 18.4838828,37.5060312 18.5002344,37.3775547 C18.5092734,37.3079844 18.5193281,37.2389219 18.5294844,37.1697578 C18.5387266,37.1062812 18.5490859,37.0431094 18.5592422,36.9799375 C18.5845312,36.8261719 18.61175,36.6732187 18.6430312,36.5215859 C19.5373906,32.1668906 22.8076016,28.6747656 27.0319922,27.4611953 C27.1813906,27.4188437 27.2799062,27.3925391 27.3787266,27.36725 C27.4914609,27.3389141 27.6049062,27.3115937 27.7191641,27.2863047 C27.7627344,27.2765547 27.8066094,27.2669062 27.8505859,27.2575625 C27.9999844,27.2262812 28.1505,27.1971328 28.3021328,27.1713359 C28.9576172,27.0592109 29.6311797,26.9998984 30.3183516,26.9998984 C34.1218897,26.9998984 37.6236764,29.0626884 39.8985526,31.8063234 C41.5535702,33.8023722 38.5371267,31.2006244 30.3183516,31.8063234 C22.0995764,32.4120223 19.6741572,44.8150531 18.9393906,42.4615703 Z" id="Path" fill="#D1DCE4"></path>
                    <path d="M32.5806406,37.6111328 C31.6735859,36.9961719 30.5544688,36.6873203 29.4724219,36.3887266 C29.2362891,36.3235234 29.0009688,36.258625 28.7704219,36.1908828 C27.4466563,35.8016953 26.5977969,35.0336797 26.4995859,34.1360703 C26.4201641,33.4101016 26.8571875,32.7098281 27.6681641,32.2629531 C27.8396016,32.1686016 28.0304375,32.0981172 28.2347813,32.04825 L28.2347813,33.6596406 C28.2347813,34.2578438 28.7197422,34.7430078 29.3181484,34.7430078 C29.9163516,34.7430078 30.4015156,34.2578438 30.4015156,33.6596406 L30.4015156,32.1274688 C31.0339453,32.2833672 31.6500234,32.5347344 32.1545859,32.8398281 C32.6664609,33.1497969 33.3325078,32.9859766 33.6422734,32.474 C33.9520391,31.962125 33.7883203,31.2960781 33.2764453,30.9862109 C32.4748125,30.5009453 31.4596953,30.1023125 30.4016172,29.9102578 L30.4016172,29.1314766 C30.4016172,28.5332734 29.9164531,28.0481094 29.31825,28.0481094 C28.7199453,28.0481094 28.2348828,28.5332734 28.2348828,29.1314766 L28.2348828,29.8446484 C27.6665391,29.9247813 27.1198281,30.0913438 26.6227813,30.3651563 C25.0432813,31.2355469 24.1708594,32.7705625 24.3458516,34.3715938 C24.5422734,36.1683359 25.9679063,37.6254531 28.1595234,38.2695625 C28.1842031,38.2767734 28.2098984,38.2838828 28.2347813,38.2910938 L28.2347813,43.3919688 C27.3382891,43.2425703 26.5964766,42.8628281 26.3588203,42.4052891 C26.0832813,41.8742188 25.4295234,41.6671328 24.8984531,41.9425703 C24.3673828,42.2181094 24.1601953,42.8719688 24.4356328,43.4031406 C25.0944688,44.6730781 26.6229844,45.3884844 28.2346797,45.5710938 L28.2346797,46.7019922 C28.2346797,47.3001953 28.7196406,47.7853594 29.3180469,47.7853594 C29.91625,47.7853594 30.4014141,47.3001953 30.4014141,46.7019922 L30.4014141,45.4928906 C30.6260703,45.4493203 30.8453438,45.3951875 31.0556797,45.3288672 C32.7549219,44.7933281 34.0188672,43.3148828 34.2753125,41.5624219 C34.5089063,39.9663672 33.8753594,38.4892422 32.5806406,37.6111328 Z M32.1314297,41.2487969 C31.9945234,42.1845937 31.3166953,42.9749531 30.4044609,43.262375 C30.4035469,43.2626797 30.4025312,43.2628828 30.4015156,43.2633906 L30.4015156,38.936625 C30.7658203,39.0711953 31.0970156,39.2231328 31.3647344,39.4045234 C32.2158281,39.9818047 32.1845469,40.8865234 32.1314297,41.2487969 Z" id="Shape" fill="#66758B" fill-rule="nonzero"></path>
                    <path d="M6.28165625,4.30717969 C8.63536719,3.57166406 11.785125,3.16663281 15.1510078,3.16663281 C18.5166875,3.16663281 21.6666484,3.57166406 24.0203594,4.30717969 C26.5078281,5.08453906 27.0677422,5.91592969 27.0677422,6.14586719 C27.0677422,6.25806578 18.3625334,6.59353523 14.6712238,7.14586719 C10.9799142,7.69819914 7.48732295,8.36133203 6.28165625,7.98455469 C3.79398438,7.20719531 3.23417188,6.37590625 3.23417188,6.14586719 C3.23417188,5.91603125 3.79398438,5.08464063 6.28165625,4.30717969 Z" id="Path" fill="#D1DCE4"></path>
                    <path d="M29.3181484,23.8334688 C28.9536406,23.8334688 28.5919766,23.8474844 28.234375,23.8747031 L28.234375,5.14586719 C28.234375,4.01486719 27.4417813,2.41901563 23.6666016,1.23916406 C21.1094609,0.440171875 17.7300703,0 14.1510078,0 C10.5719453,0 7.19265625,0.440171875 4.63541406,1.23916406 C0.86003125,2.41901563 0.0675390625,4.01486719 0.0675390625,5.14586719 L0.0675390625,37.9169375 C0.0675390625,39.0478359 0.86003125,40.6436875 4.63541406,41.8234375 C7.19265625,42.6225313 10.5720469,43.0627031 14.1510078,43.0627031 C14.8332031,43.0627031 15.5153984,43.0455391 16.1888594,43.0130391 C18.2355469,48.2668672 23.3487109,52 29.3180469,52 C37.0836172,52 43.4013125,45.6824062 43.4013125,37.9169375 C43.4014141,30.1512656 37.0837188,23.8334688 29.3181484,23.8334688 Z M5.28165625,3.30717969 C7.63536719,2.57166406 10.785125,2.16663281 14.1510078,2.16663281 C17.5166875,2.16663281 20.6666484,2.57166406 23.0203594,3.30717969 C25.5078281,4.08453906 26.0677422,4.91592969 26.0677422,5.14586719 C26.0677422,5.37590625 25.5078281,6.20719531 23.0203594,6.98465625 C20.6666484,7.72007031 17.5168906,8.12510156 14.1510078,8.12510156 C10.785125,8.12510156 7.63526562,7.72007031 5.28165625,6.98455469 C2.79398437,6.20719531 2.23417187,5.37590625 2.23417187,5.14586719 C2.23417187,4.91603125 2.79398437,4.08464063 5.28165625,3.30717969 Z M2.23417187,8.0494375 C2.85482031,8.40196094 3.64071094,8.74178906 4.63541406,9.05257031 C7.19265625,9.85166406 10.5720469,10.2917344 14.1510078,10.2917344 C17.7299687,10.2917344 21.1094609,9.8515625 23.6666016,9.05267187 C24.6613047,8.74189062 25.4470937,8.4020625 26.0677422,8.04953906 L26.0677422,10.608 C26.0677422,10.8378359 25.5078281,11.6692266 23.0203594,12.4466875 C20.6665469,13.1821016 17.5168906,13.5871328 14.1510078,13.5871328 C12.5889766,13.5871328 11.0639141,13.4991797 9.61817187,13.3259141 C9.0244375,13.2541094 8.48473437,13.6785391 8.41364062,14.2725781 C8.34244531,14.8666172 8.76626562,15.4060156 9.36030469,15.4771094 C10.8912578,15.6606328 12.5030547,15.7537656 14.1511094,15.7537656 C17.7301719,15.7537656 21.1095625,15.3135937 23.6666016,14.5146016 C24.6613047,14.2038203 25.4470937,13.8639922 26.0677422,13.5115703 L26.0677422,21.5314531 C26.0677422,21.7614922 25.5078281,22.5927813 23.0203594,23.3702422 C20.6666484,24.1057578 17.5168906,24.5106875 14.1510078,24.5106875 C10.785125,24.5106875 7.63516406,24.1057578 5.28165625,23.3702422 C2.79398437,22.5928828 2.23407031,21.7614922 2.23407031,21.5314531 L2.23407031,18.9733984 C2.85471875,19.3258203 3.64060937,19.66575 4.6353125,19.9765313 C7.19255469,20.775625 10.5719453,21.2156953 14.1509062,21.2156953 C16.2831094,21.2156953 18.3250234,21.0626406 20.2199766,20.7606953 C20.8109687,20.6666484 21.2136641,20.1113047 21.1195156,19.5205156 C21.0253672,18.9295234 20.4686016,18.5271328 19.8792344,18.6210781 C18.1216953,18.9009844 16.1409219,19.0489609 14.1509062,19.0489609 C10.7852266,19.0489609 7.63516406,18.6439297 5.28155469,17.9084141 C2.79388281,17.1310547 2.23396875,16.2997656 2.23396875,16.0698281 L2.23396875,8.0494375 L2.23417187,8.0494375 Z M14.1510078,40.8960703 C10.7853281,40.8960703 7.63526562,40.4910391 5.28165625,39.7555234 C2.79398437,38.9781641 2.23407031,38.146875 2.23407031,37.9169375 L2.23407031,35.3585781 C2.85471875,35.711 3.64060937,36.0509297 4.6353125,36.3617109 C7.19245312,37.1608047 10.5719453,37.6009766 14.1509062,37.6009766 C14.5133828,37.6009766 14.8764687,37.5958984 15.2382344,37.5866562 C15.2356953,37.69675 15.2342734,37.8066406 15.2342734,37.9169375 C15.2342734,38.0402344 15.236,38.1629219 15.2391484,38.2855078 C15.2401641,38.3235937 15.2420937,38.3618828 15.2435156,38.4001719 C15.2463594,38.4844687 15.2491016,38.5688672 15.2534687,38.6526562 C15.2558047,38.6988672 15.2594609,38.7450781 15.2622031,38.7910859 C15.266875,38.8665469 15.2713437,38.9423125 15.2770312,39.0174687 C15.2809922,39.0684531 15.2861719,39.1193359 15.2906406,39.1701172 C15.2969375,39.2401953 15.3027266,39.310375 15.3100391,39.3801484 C15.3158281,39.4351953 15.3226328,39.4901406 15.3290312,39.5448828 C15.3365469,39.6097812 15.3437578,39.6747812 15.3520859,39.7394766 C15.3598047,39.7993984 15.3686406,39.8592187 15.3771719,39.9188359 C15.3855,39.9774375 15.393625,40.0362422 15.4027656,40.0946406 C15.4130234,40.1600469 15.4241953,40.22525 15.4353672,40.2905547 C15.4441016,40.3423516 15.4528359,40.39425 15.4620781,40.4459453 C15.4750781,40.5173437 15.4891953,40.5885391 15.5032109,40.6598359 C15.5118438,40.7038125 15.5204766,40.7478906 15.5295156,40.7916641 C15.5348984,40.8181719 15.5397734,40.8450859 15.5455625,40.8717969 C15.0831484,40.8879453 14.6170781,40.8960703 14.1510078,40.8960703 Z M16.4812578,32.1243203 C16.4808516,32.1254375 16.4802422,32.12625 16.4798359,32.1273672 C16.44175,32.2119687 16.4046797,32.296875 16.3681172,32.3822891 C16.3577578,32.4065625 16.3469922,32.4306328 16.3368359,32.4550078 C16.3199766,32.4950234 16.3039297,32.5352422 16.2874766,32.5754609 C15.9159609,33.4783516 15.6350391,34.4276562 15.4575078,35.4125078 C15.0235313,35.4265234 14.5868125,35.4343437 14.1509063,35.4343437 C10.7850234,35.4343437 7.63516406,35.0293125 5.28155469,34.2937969 C2.79388281,33.5164375 2.23396875,32.6850469 2.23396875,32.4551094 L2.23396875,24.4349219 L2.23407031,24.4349219 C2.85471875,24.7873437 3.64060937,25.1272734 4.6353125,25.4380547 C7.19245312,26.2370469 10.5718437,26.6772187 14.1509063,26.6772187 C17.0029844,26.6772187 19.7267891,26.3970078 22.0101172,25.8791406 C20.7384531,26.6520312 19.5858203,27.6267266 18.6048281,28.7748906 C18.3214688,29.1066953 18.0551719,29.4505859 17.8053281,29.8049375 C16.6272031,29.9158437 15.3977891,29.9724141 14.1509063,29.9724141 C12.588875,29.9724141 11.0638125,29.8844609 9.61807031,29.7111953 C9.02433594,29.6398984 8.48463281,30.0637187 8.41353906,30.6578594 C8.34234375,31.2518984 8.76616406,31.7912969 9.36020312,31.8623906 C10.8911563,32.0459141 12.5029531,32.1390469 14.1510078,32.1390469 C14.945125,32.1390469 15.7314219,32.1145703 16.5055312,32.0716094 C16.4975078,32.0892813 16.4892813,32.10675 16.4812578,32.1243203 Z M29.3181484,49.8333672 C23.9809375,49.8333672 19.4520625,46.3067109 17.9393906,41.4615703 C17.9210078,41.4026641 17.9038437,41.3433516 17.886375,41.2842422 C17.857125,41.1851172 17.8291953,41.0854844 17.8023828,40.9853438 C17.7845078,40.9181094 17.7671406,40.8506719 17.7503828,40.7832344 C17.7366719,40.7275781 17.7224531,40.672125 17.7094531,40.6159609 C17.6831484,40.5022109 17.6585703,40.3880547 17.6354141,40.2733906 C17.6259687,40.2265703 17.6172344,40.1795469 17.6082969,40.1325234 C17.5895078,40.0328906 17.5719375,39.9329531 17.5557891,39.8329141 C17.5507109,39.8016328 17.5450234,39.7705547 17.54025,39.7391719 C17.5205469,39.6117109 17.5034844,39.4837422 17.4880469,39.3555703 C17.4835781,39.3182969 17.4794141,39.2810234 17.47525,39.24375 C17.4615391,39.1194375 17.4490469,38.9950234 17.4391953,38.8703047 C17.4382813,38.8593359 17.4372656,38.8485703 17.4363516,38.8376016 C17.4259922,38.702625 17.4185781,38.5672422 17.4127891,38.4315547 C17.4112656,38.3975313 17.4100469,38.3635078 17.4089297,38.3294844 C17.4041563,38.1921719 17.4010078,38.0547578 17.4010078,37.9169375 C17.4010078,37.7516953 17.4054766,37.5874688 17.4120781,37.4238516 C17.4131953,37.3971406 17.4139063,37.370125 17.415125,37.3434141 C17.4220312,37.1958438 17.4323906,37.0489844 17.4445781,36.9028359 C17.4484375,36.8568281 17.4523984,36.8108203 17.4568672,36.7650156 C17.4692578,36.6352187 17.4838828,36.5060313 17.5002344,36.3775547 C17.5092734,36.3079844 17.5193281,36.2389219 17.5294844,36.1697578 C17.5387266,36.1062813 17.5490859,36.0431094 17.5592422,35.9799375 C17.5845313,35.8261719 17.61175,35.6732188 17.6430312,35.5215859 C17.6433359,35.5197578 17.6438438,35.5179297 17.64425,35.5161016 C18.5373906,31.1668906 21.8076016,27.6747656 26.0319922,26.4611953 C26.0493594,26.4563203 26.0664219,26.4512422 26.0836875,26.4463672 C26.1813906,26.4188438 26.2799063,26.3925391 26.3787266,26.36725 C26.4914609,26.3389141 26.6049062,26.3115938 26.7191641,26.2863047 C26.7627344,26.2765547 26.8066094,26.2669063 26.8505859,26.2575625 C26.9999844,26.2262812 27.1505,26.1971328 27.3021328,26.1713359 C27.9576172,26.0592109 28.6311797,25.9998984 29.3183516,25.9998984 C35.8890391,25.9998984 41.2348828,31.3458438 41.2348828,37.9167344 C41.2346797,44.487625 35.8888359,49.8333672 29.3181484,49.8333672 Z" id="Shape" fill="#66758B" fill-rule="nonzero"></path>
                    <path d="M5.51961719,14.7675937 C5.6875,14.811875 5.85934375,14.8549375 6.03433594,14.8964766 C6.11863281,14.9165859 6.20303125,14.9260313 6.28600781,14.9260313 C6.77614844,14.9260313 7.22058594,14.5909766 7.33900781,14.0931172 C7.4774375,13.5111641 7.11790625,12.9269766 6.53585156,12.7885469 C6.37822656,12.7510703 6.22354687,12.712375 6.07232031,12.6725625 C5.4933125,12.5198125 4.90089844,12.8652266 4.74845312,13.4437266 C4.59570312,14.0223281 4.94101562,14.6150469 5.51961719,14.7675937 Z" id="Shape" fill="#66758B" fill-rule="nonzero"></path>
                    <path d="M23.1207031,20.0938359 C23.2230781,20.0938359 23.3273828,20.0791094 23.4304688,20.0484375 C23.6435469,19.9849609 23.85825,19.9166094 24.0686875,19.8453125 C24.6353047,19.6532578 24.9389766,19.0380937 24.7468203,18.471375 C24.5547656,17.9047578 23.9396016,17.6011875 23.3728828,17.7932422 C23.1879375,17.8560078 22.9992344,17.9161328 22.81175,17.9717891 C22.2383281,18.1426172 21.9120078,18.7458984 22.0827344,19.3193203 C22.2230938,19.7898594 22.6538203,20.0938359 23.1207031,20.0938359 Z" id="Shape" fill="#66758B" fill-rule="nonzero"></path>
                    <path d="M6.53514062,29.1738281 C6.3773125,29.1363516 6.22222656,29.0976562 6.07079687,29.0579453 C5.49280469,28.9065156 4.89978125,29.2520312 4.74794531,29.8309375 C4.59621094,30.4095391 4.94223437,31.0018516 5.5209375,31.1536875 C5.68871875,31.1976641 5.86025781,31.2404219 6.03494531,31.2819609 C6.11903906,31.3018672 6.20323437,31.3114141 6.28590625,31.3114141 C6.77635156,31.3114141 7.22078906,30.9760547 7.33900781,30.4779922 C7.47723437,29.8958359 7.11729687,29.3118516 6.53514062,29.1738281 Z" id="Shape" fill="#66758B" fill-rule="nonzero"></path>
                </g>
            </g>
        </g>
    </g>
</svg>