<?xml version="1.0" encoding="UTF-8"?>
<svg width="74px" height="65px" viewBox="0 0 74 65" version="1.1" xmlns="http://www.w3.org/2000/svg" xmlns:xlink="http://www.w3.org/1999/xlink">
    <!-- Generator: Sketch 45.2 (43514) - http://www.bohemiancoding.com/sketch -->
    <title>Group 3</title>
    <desc>Created with Sketch.</desc>
    <defs></defs>
    <g id="Page-1" stroke="none" stroke-width="1" fill="none" fill-rule="evenodd">
        <g id="Copierman" transform="translate(-254.000000, -979.000000)">
            <g id="Group-3" transform="translate(251.000000, 975.000000)">
                <g id="Group-6" fill="#F3F7FB">
                    <rect id="Rectangle-7" transform="translate(24.500000, 26.500000) rotate(-318.000000) translate(-24.500000, -26.500000) " x="16" y="-0.418628139" width="17" height="53.8372563" rx="8.5"></rect>
                    <rect id="Rectangle-7" transform="translate(55.500000, 46.500000) rotate(-318.000000) translate(-55.500000, -46.500000) " x="47" y="19.5813719" width="17" height="53.8372563" rx="8.5"></rect>
                    <rect id="Rectangle-7" transform="translate(40.000000, 36.508453) rotate(-318.000000) translate(-40.000000, -36.508453) " x="31.5" y="0.159021207" width="17" height="72.6988631" rx="8.5"></rect>
                </g>
                <g id="tasks" transform="translate(14.000000, 11.000000)" fill-rule="nonzero">
                    <g id="Group" transform="translate(1.421875, 0.812500)" fill="#FFFFFF">
                        <path d="M35.611875,37.1974687 C34.3270078,36.4986172 33.3621641,35.2931719 32.9650547,33.8902891 L32.9302187,33.7669922 L32.7856953,33.7717656 C31.2749531,33.7717656 30.0458437,32.5428594 30.0458437,31.0324219 C30.0458437,30.9173516 30.0539687,30.7975078 30.0699141,30.6758359 L30.0942891,30.4902812 L0.0560625,30.4902812 L0.0560625,40.9024687 L29.5728672,40.9024687 C29.6067891,40.9024687 29.6430469,40.9057187 29.6836719,40.9127266 L29.7445078,40.9229844 L29.7970156,40.8905859 C30.1028203,40.7023906 30.4126875,40.5520781 30.6996016,40.4534609 L35.6974922,38.49625 L35.6974922,37.2439844 L35.611875,37.1974687 Z M8.5336875,36.2922422 C8.89596094,36.2922422 9.19049219,36.586875 9.19049219,36.9490469 L9.19049219,38.4172344 C9.19049219,38.7795078 8.89585937,39.0740391 8.5336875,39.0740391 L2.82475781,39.0740391 C2.46248437,39.0740391 2.16795312,38.7794062 2.16795312,38.4172344 L2.16795312,32.9754141 C2.16795312,32.6131406 2.46258594,32.3186094 2.82475781,32.3186094 L6.96617187,32.3186094 C7.32844531,32.3186094 7.62297656,32.6132422 7.62297656,32.9754141 C7.62297656,33.3376875 7.32834375,33.6322187 6.96617187,33.6322187 L3.4815625,33.6322187 L3.4815625,37.7603281 L7.87678125,37.7603281 L7.87678125,36.9490469 C7.87678125,36.586875 8.17151562,36.2922422 8.5336875,36.2922422 Z M6.23847656,37.1684219 C6.05667969,37.1672031 5.88178906,37.0897109 5.75889844,36.95575 L4.31884375,35.3871172 C4.07407812,35.1204141 4.09195312,34.7041094 4.35865625,34.4591406 C4.48002344,34.347625 4.63785156,34.2861797 4.80258594,34.2861797 C4.9863125,34.2861797 5.162625,34.3636719 5.28663281,34.4988516 L6.24903906,35.5471797 L9.09746094,32.5249844 C9.22289062,32.3918359 9.39260156,32.3185078 9.57561719,32.3185078 C9.7435,32.3185078 9.90346094,32.3820859 10.0258437,32.4974609 C10.1535078,32.6178125 10.2267344,32.7807187 10.2319141,32.9560156 C10.2371953,33.1315156 10.1738203,33.2982812 10.0533672,33.4259453 L6.72079687,36.9621484 C6.59719531,37.0932656 6.42291406,37.1684219 6.23847656,37.1684219 Z M21.4842266,34.5412031 L12.4293203,34.5412031 C12.0670469,34.5412031 11.7725156,34.2465703 11.7725156,33.8843984 C11.7725156,33.522125 12.0671484,33.2275937 12.4293203,33.2275937 L21.4842266,33.2275937 C21.8465,33.2275937 22.1410312,33.5222266 22.1410312,33.8843984 C22.1410312,34.2465703 21.8463984,34.5412031 21.4842266,34.5412031 Z M12.4293203,36.8512422 L30.2113906,36.8512422 C30.5736641,36.8512422 30.8681953,37.145875 30.8681953,37.5080469 C30.8681953,37.8702187 30.5735625,38.1648516 30.2113906,38.1648516 L12.4293203,38.1648516 C12.0670469,38.1648516 11.7725156,37.8702187 11.7725156,37.5080469 C11.7725156,37.145875 12.0671484,36.8512422 12.4293203,36.8512422 Z" id="Shape"></path>
                        <path d="M31.2772891,25.8409531 C31.5032656,23.4100547 32.9357031,21.2779531 35.1092422,20.1376094 L35.1971953,20.0915 L35.1971953,14.9209531 L0.0560625,14.9209531 L0.0560625,25.9899453 L31.2634766,25.9899453 L31.2772891,25.8409531 Z M6.23847656,22.256 C6.05667969,22.2547812 5.88178906,22.1772891 5.75889844,22.0433281 L4.31874219,20.4746953 C4.20021875,20.3455078 4.138875,20.1778281 4.14649219,20.0025312 C4.15390625,19.8271328 4.22946875,19.6653437 4.35865625,19.5467187 C4.48002344,19.4353047 4.63785156,19.3737578 4.80258594,19.3737578 C4.9863125,19.3737578 5.162625,19.45125 5.28663281,19.5864297 L6.24903906,20.6347578 L9.09746094,17.6125625 C9.22289062,17.4794141 9.39260156,17.4060859 9.57561719,17.4060859 C9.7435,17.4060859 9.90346094,17.4696641 10.0258437,17.5850391 C10.1535078,17.7053906 10.2267344,17.8682969 10.2319141,18.0435937 C10.2371953,18.2189922 10.1738203,18.3858594 10.0533672,18.5135234 L6.72079687,22.0497266 C6.59719531,22.1808437 6.42291406,22.256 6.23847656,22.256 Z M6.96607031,18.7196953 L3.4815625,18.7196953 L3.4815625,22.8478047 L7.87678125,22.8478047 L7.87678125,22.0365234 C7.87678125,21.67425 8.17141406,21.3797187 8.53358594,21.3797187 C8.89585938,21.3797187 9.19039063,21.6743516 9.19039063,22.0365234 L9.19039063,23.5047109 C9.19039063,23.8669844 8.89575781,24.1615156 8.53358594,24.1615156 L2.82475781,24.1615156 C2.46248437,24.1615156 2.16795312,23.8668828 2.16795312,23.5047109 L2.16795312,18.0628906 C2.16795312,17.7006172 2.46258594,17.4060859 2.82475781,17.4060859 L6.96617188,17.4060859 C7.32844531,17.4060859 7.62297656,17.7007187 7.62297656,18.0628906 C7.62297656,18.4251641 7.32834375,18.7196953 6.96607031,18.7196953 Z M21.4842266,19.6286797 L12.4293203,19.6286797 C12.0670469,19.6286797 11.7725156,19.3340469 11.7725156,18.971875 C11.7725156,18.6097031 12.0671484,18.3150703 12.4293203,18.3150703 L21.4842266,18.3150703 C21.8465,18.3150703 22.1410312,18.6097031 22.1410312,18.971875 C22.1410312,19.3341484 21.8463984,19.6286797 21.4842266,19.6286797 Z M11.7724141,22.595625 C11.7724141,22.2333516 12.0670469,21.9388203 12.4292187,21.9388203 L30.3397656,21.9388203 C30.7020391,21.9388203 30.9965703,22.2334531 30.9965703,22.595625 C30.9965703,22.9577969 30.7019375,23.2524297 30.3397656,23.2524297 L12.4293203,23.2524297 C12.0671484,23.2525312 11.7724141,22.9577969 11.7724141,22.595625 Z" id="Shape"></path>
                        <path d="M35.1970937,0.0086328125 L0.0560625,0.0086328125 L0.0560625,11.0777266 L35.1970938,11.0777266 L35.1970937,0.0086328125 Z M6.23847656,7.34357812 C6.05667969,7.34235937 5.88178906,7.26486719 5.75889844,7.13090625 L4.31874219,5.56227344 C4.20021875,5.43308594 4.138875,5.26540625 4.14649219,5.09010937 C4.15390625,4.91471094 4.22946875,4.75292187 4.35865625,4.63429687 C4.48002344,4.52278125 4.63785156,4.46133594 4.80258594,4.46133594 C4.9863125,4.46133594 5.162625,4.53882812 5.28663281,4.67400781 L6.24903906,5.72233594 L9.09746094,2.70014062 C9.22289062,2.56709375 9.39260156,2.49376562 9.57561719,2.49376562 C9.7435,2.49376562 9.90346094,2.55724219 10.0258437,2.67261719 C10.1535078,2.79296875 10.2267344,2.955875 10.2319141,3.13117187 C10.2371953,3.30667187 10.1738203,3.47333594 10.0533672,3.60110156 L6.72069531,7.13730469 C6.59719531,7.26842187 6.42291406,7.34357812 6.23847656,7.34357812 Z M6.96607031,3.80747656 L3.4815625,3.80747656 L3.4815625,7.93558594 L7.87678125,7.93558594 L7.87678125,7.12430469 C7.87678125,6.76203125 8.17141406,6.4675 8.53358594,6.4675 C8.89585937,6.4675 9.19039062,6.76213281 9.19039062,7.12430469 L9.19039062,8.59249219 C9.19039062,8.95476562 8.89575781,9.24929687 8.53358594,9.24929687 L2.82475781,9.24929687 C2.46248437,9.24929687 2.16795313,8.95466406 2.16795313,8.59249219 L2.16795313,3.15057031 C2.16795313,2.78829687 2.46258594,2.49376562 2.82475781,2.49376562 L6.96617187,2.49376562 C7.32844531,2.49376562 7.62297656,2.78839844 7.62297656,3.15057031 C7.62297656,3.51274219 7.32834375,3.80747656 6.96607031,3.80747656 Z M21.4842266,4.7165625 L12.4293203,4.7165625 C12.0670469,4.7165625 11.7725156,4.42192969 11.7725156,4.05975781 C11.7725156,3.69748437 12.0671484,3.40295312 12.4293203,3.40295312 L21.4842266,3.40295312 C21.8465,3.40295312 22.1410313,3.69758594 22.1410313,4.05975781 C22.1410312,4.42192969 21.8463984,4.7165625 21.4842266,4.7165625 Z M12.4293203,7.02639844 L30.5391328,7.02639844 C30.9014062,7.02639844 31.1959375,7.32103125 31.1959375,7.68320312 C31.1959375,8.045375 30.9013047,8.34000781 30.5391328,8.34000781 L12.4293203,8.34000781 C12.0670469,8.34000781 11.7725156,8.045375 11.7725156,7.68320312 C11.7725156,7.32103125 12.0671484,7.02639844 12.4293203,7.02639844 Z" id="Shape"></path>
                    </g>
                    <path d="M40.4067422,21.3338125 L39.8618594,21.3338125 C36.5585391,21.3338125 33.8708906,24.0212578 33.8708906,27.3246797 L33.8708906,29.6438594 L34.3755547,28.8488281 L34.4091719,28.8013984 L34.5160156,28.6994297 C34.5211953,28.6953672 34.5262734,28.6912031 34.5323672,28.6873437 L34.5568437,28.6723125 C34.56375,28.6679453 34.5707578,28.6634766 34.5779687,28.6597187 L34.6073203,28.6455 C34.6130078,28.6427578 34.6185937,28.6396094 34.6316953,28.6346328 L34.7268594,28.6053828 C34.7374219,28.6031484 34.7479844,28.6021328 34.7650469,28.5997969 L34.7818047,28.5970547 C34.8000859,28.595125 34.8183672,28.5943125 34.8405078,28.5943125 C34.8899687,28.5943125 39.8049844,28.5585625 42.0429141,25.4644609 C42.167125,25.2928203 42.3872109,25.2063906 42.5962266,25.2490469 C42.8065625,25.2921094 42.9730234,25.4552187 43.0209609,25.6664687 C43.02675,25.6914531 43.6276953,28.1641953 45.5720078,28.6065 L45.5928281,28.6124922 C45.6037969,28.6152344 45.6147656,28.6179766 45.6252266,28.6213281 L45.6475703,28.6295547 C45.6571172,28.6330078 45.6666641,28.6364609 45.6772266,28.6411328 L45.7234375,28.6640859 C45.7318672,28.6687578 45.7398906,28.6740391 45.7519766,28.6817578 L45.7672109,28.6915078 C45.7758437,28.6975 45.7839687,28.7038984 45.7994062,28.7159844 L45.8093594,28.7239062 C45.8169766,28.7304062 45.8242891,28.7371094 45.8375937,28.7496016 L45.84775,28.7595547 C45.8545547,28.7665625 45.8605469,28.7736719 45.8683672,28.7824062 C45.8733437,28.7878906 45.8783203,28.793375 45.8838047,28.8002812 L46.3977109,29.5172109 L46.3977109,27.324375 C46.3973047,24.0213594 43.7098594,21.3338125 40.4067422,21.3338125 Z" id="Shape" fill="#FFFFFF"></path>
                    <path d="M42.4462187,27.2127578 L42.2822969,26.8890781 L42.0161016,27.1355703 C39.9796719,29.0210781 37.1438437,29.5200547 35.6347266,29.64975 L35.3844766,29.6712812 L35.3844766,33.2212969 C35.3844766,35.5606875 37.2877578,37.4638672 39.6271484,37.4638672 L40.6662344,37.4638672 C43.0053203,37.4638672 44.9085,35.5606875 44.9085,33.2212969 L44.9085,29.5556016 L44.7384844,29.4859297 C43.5485781,28.9986328 42.8352031,27.9807734 42.4462187,27.2127578 Z" id="Shape" fill="#FFFFFF"></path>
                    <path d="M32.6718437,31.8449219 C32.6718437,32.5954687 33.2318594,33.2472969 33.9746875,33.3609453 L34.2897344,33.4089844 L34.2897344,30.2806562 L33.9746875,30.3287969 C33.2319609,30.4424453 32.6718437,31.0942734 32.6718437,31.8449219 Z" id="Shape" fill="#FFFFFF"></path>
                    <g id="Group" transform="translate(38.289063, 30.265625)" fill="#FFFFFF">
                        <path d="M2.377375,8.29288281 L1.33828906,8.29288281 C1.01491406,8.29288281 0.685242188,8.26200781 0.358617188,8.20117187 L0.0348359375,8.14084375 L0.0348359375,9.87705469 L1.83279687,11.6281953 L3.68082812,9.71079687 L3.68082812,8.14094531 L3.35704688,8.20127344 C3.03011719,8.26200781 2.70075,8.29288281 2.377375,8.29288281 Z" id="Shape"></path>
                        <path d="M8.03745312,0.0701796875 L7.71428125,0.0108671875 L7.71428125,3.14772656 L8.03745312,3.08841406 C8.76636719,2.95445312 9.29540625,2.31978906 9.29540625,1.57939844 C9.29540625,0.838703125 8.76636719,0.204140625 8.03745312,0.0701796875 Z" id="Shape"></path>
                    </g>
                    <path d="M47.6470312,42.4029531 C47.6391094,42.4002109 47.6277344,42.3960469 47.6188984,42.3924922 L42.9616484,40.5248594 L40.5281094,43.0498047 C40.4260391,43.1554297 40.2891328,43.2150469 40.1337422,43.2172812 C39.9902344,43.2172812 39.8545469,43.1621328 39.7518672,43.0620937 L37.3940937,40.7657656 C37.3780469,40.750125 37.3637266,40.7334687 37.3500156,40.7165078 L37.2239766,40.5608125 L32.5421484,42.3944219 C32.5342266,42.3974687 32.5262031,42.4005156 32.5149297,42.404375 C32.3931562,42.4469297 29.5349844,43.4883516 29.5349844,47.0953437 L29.5349844,51.2885547 L50.6315469,51.2885547 L50.6315469,47.0956484 C50.6315469,43.4877422 47.7685,42.4454062 47.6470312,42.4029531 Z" id="Shape" fill="#FFFFFF"></path>
                    <path d="M35.1846016,27.3246797 C35.1846016,24.1506484 37.6663828,21.5466875 40.7910547,21.3475234 C40.6637969,21.3393984 40.5358281,21.3338125 40.4065391,21.3338125 L39.8616562,21.3338125 C36.5583359,21.3338125 33.8706875,24.0212578 33.8706875,27.3246797 L33.8706875,29.6438594 L34.3753516,28.8488281 L34.4089687,28.8013984 L34.5158125,28.6994297 C34.5209922,28.6953672 34.5260703,28.6912031 34.5321641,28.6873437 L34.5566406,28.6723125 C34.5635469,28.6679453 34.5705547,28.6634766 34.5777656,28.6597187 L34.6071172,28.6455 C34.6128047,28.6427578 34.6183906,28.6396094 34.6314922,28.6346328 L34.7266563,28.6053828 C34.7371172,28.6031484 34.7477813,28.6021328 34.7648437,28.5997969 L34.7816016,28.5970547 C34.7998828,28.595125 34.8181641,28.5943125 34.8403047,28.5943125 C34.8478203,28.5943125 34.9721328,28.5933984 35.1845,28.5805 L35.1846016,27.3246797 L35.1846016,27.3246797 Z" id="Shape" fill="#D1DCE4"></path>
                    <g id="Group" transform="translate(35.343750, 26.812500)" fill="#D1DCE4">
                        <path d="M1.35453906,6.40879687 L1.35453906,2.85878125 L1.60478906,2.83725 C2.96288281,2.72055469 5.39550781,2.30414844 7.35302344,0.847539062 C7.25775781,0.693164062 7.17457812,0.542445312 7.10257031,0.400257812 L6.93864844,0.076578125 L6.67245312,0.323070312 C4.63602344,2.20857812 1.80019531,2.70755469 0.291078125,2.83725 L0.040828125,2.85878125 L0.040828125,6.40879687 C0.040828125,8.7481875 1.94410937,10.6513672 4.2835,10.6513672 L5.32258594,10.6513672 C5.36869531,10.6513672 5.41419531,10.6494375 5.45989844,10.6478125 C3.18388281,10.5749922 1.35453906,8.70207812 1.35453906,6.40879687 Z" id="Shape"></path>
                        <path d="M4.29355469,13.3303828 L4.29355469,11.7461094 L4.28339844,11.7461094 C3.96002344,11.7461094 3.63035156,11.7152344 3.30372656,11.6543984 L2.97994531,11.5940703 L2.97994531,13.3302812 L4.77790625,15.0814219 L5.41399219,14.4214687 L4.29355469,13.3303828 Z" id="Shape"></path>
                        <path d="M5.59710937,11.8705645 L6.62583594,11.8705645 L6.62583594,11.5939687 L6.30205469,11.7037202 C6.0214375,11.798875 5.73899219,11.851164 5.45989844,11.864652 C5.50570312,11.8670539 5.55160937,11.8705645 5.59710937,11.8705645 Z" id="Shape"></path>
                    </g>
                    <path d="M33.8286406,42.4044766 C33.8399141,42.4006172 33.8480391,42.3975703 33.8558594,42.3945234 L37.5720312,40.9390312 L37.3940937,40.7658672 C37.3780469,40.7502266 37.3637266,40.7335703 37.3500156,40.7166094 L37.2239766,40.5609141 L32.5421484,42.3945234 C32.5342266,42.3975703 32.5262031,42.4006172 32.5149297,42.4044766 C32.3931562,42.4470312 29.5349844,43.4884531 29.5349844,47.0954453 L29.5349844,50.6315469 L30.8486953,50.6315469 L30.8486953,47.0954453 C30.8486953,43.4884531 33.7068672,42.4470312 33.8286406,42.4044766 Z" id="Shape" fill="#F3F7FB"></path>
                    <g id="Group">
                        <path d="M22.9061016,5.6931875 L13.8511953,5.6931875 C13.3977188,5.6931875 13.0301641,5.32573437 13.0301641,4.87215625 C13.0301641,4.41867969 13.3978203,4.051125 13.8511953,4.051125 L22.9061016,4.051125 C23.3595781,4.051125 23.7271328,4.41878125 23.7271328,4.87215625 C23.7271328,5.32573437 23.3594766,5.6931875 22.9061016,5.6931875 Z" id="Shape" fill="#9CAFC3"></path>
                        <path d="M31.9609063,9.31683594 L13.8511953,9.31683594 C13.3977188,9.31683594 13.0301641,8.94938281 13.0301641,8.49580469 C13.0301641,8.04222656 13.3978203,7.67477344 13.8511953,7.67477344 L31.9610078,7.67477344 C32.4145859,7.67477344 32.7820391,8.04222656 32.7820391,8.49580469 C32.7820391,8.94938281 32.4144844,9.31683594 31.9609063,9.31683594 Z" id="Shape" fill="#9CAFC3"></path>
                        <path d="M22.9061016,20.6054062 L13.8511953,20.6054062 C13.3977188,20.6054062 13.0301641,20.2379531 13.0301641,19.784375 C13.0301641,19.3307969 13.3978203,18.9633437 13.8511953,18.9633437 L22.9061016,18.9633437 C23.3595781,18.9633437 23.7271328,19.3307969 23.7271328,19.784375 C23.7271328,20.2379531 23.3594766,20.6054062 22.9061016,20.6054062 Z" id="Shape" fill="#9CAFC3"></path>
                        <path d="M31.7616406,24.2291562 L13.8511953,24.2291562 C13.3977187,24.2291562 13.0301641,23.8617031 13.0301641,23.408125 C13.0301641,22.9545469 13.3978203,22.5870937 13.8511953,22.5870937 L31.7616406,22.5870937 C32.2152187,22.5870937 32.5826719,22.9545469 32.5826719,23.408125 C32.5826719,23.8616016 32.2150156,24.2291562 31.7616406,24.2291562 Z" id="Shape" fill="#9CAFC3"></path>
                        <path d="M22.9061016,35.5179297 L13.8511953,35.5179297 C13.3977188,35.5179297 13.0301641,35.1502734 13.0301641,34.6968984 C13.0301641,34.2433203 13.3978203,33.8758672 13.8511953,33.8758672 L22.9061016,33.8758672 C23.3595781,33.8758672 23.7271328,34.2433203 23.7271328,34.6968984 C23.7271328,35.1502734 23.3594766,35.5179297 22.9061016,35.5179297 Z" id="Shape" fill="#9CAFC3"></path>
                        <path d="M31.6331641,39.1415781 L13.8511953,39.1415781 C13.3977188,39.1415781 13.0301641,38.774125 13.0301641,38.3205469 C13.0301641,37.8669687 13.3978203,37.4995156 13.8511953,37.4995156 L31.6332656,37.4995156 C32.0868437,37.4995156 32.4542969,37.8669687 32.4542969,38.3205469 C32.4542969,38.774125 32.0867422,39.1415781 31.6331641,39.1415781 Z" id="Shape" fill="#9CAFC3"></path>
                        <path d="M48.1079219,41.1143281 L43.3381406,39.2017031 L43.3381406,38.1542891 C44.6519531,37.4397969 45.6486875,36.2148516 46.0641797,34.7481875 C47.6584062,34.7397578 48.9529219,33.440875 48.9529219,31.8449219 C48.9529219,30.8856641 48.4850234,30.0339609 47.7657578,29.5049219 L47.7657578,27.3246797 C47.7657578,23.2668516 44.4644687,19.9654609 40.4066406,19.9654609 L39.8617578,19.9654609 C39.2533984,19.9654609 38.6625078,20.0410234 38.0967031,20.180875 L38.0967031,15.7335547 C38.0967031,15.2799766 37.72925,14.9125234 37.2756719,14.9125234 L34.8371562,14.9125234 C34.3835781,14.9125234 34.016125,15.2799766 34.016125,15.7335547 C34.016125,16.1871328 34.3835781,16.5545859 34.8371562,16.5545859 L36.4547422,16.5545859 L36.4547422,20.8047734 C34.3000937,21.9352656 32.7714766,24.1014922 32.5356484,26.6383203 L1.6420625,26.6383203 L1.6420625,16.5545859 L32.0889766,16.5545859 C32.5425547,16.5545859 32.9100078,16.1871328 32.9100078,15.7335547 C32.9100078,15.2799766 32.5425547,14.9125234 32.0889766,14.9125234 L0.82103125,14.9125234 C0.36765625,14.9124219 0,15.2799766 0,15.7334531 L0,27.45925 C0,27.9128281 0.36765625,28.2802812 0.82103125,28.2802812 L32.5025391,28.2802812 L32.5025391,29.4961875 C32.3671562,29.5947031 32.2406094,29.7046953 32.1242187,29.8247422 L0.82103125,29.8247422 C0.36765625,29.8248437 0,30.1923984 0,30.645875 L0,42.3716719 C0,42.82525 0.36765625,43.1927031 0.82103125,43.1927031 L29.3792891,43.1927031 C28.6855156,44.1466797 28.1665312,45.4321562 28.1665312,47.0951406 L28.1665312,51.1776484 C28.1665312,51.631125 28.5339844,51.9996953 28.9875625,51.9996953 L32.0891797,51.9996953 C32.5427578,51.9996953 32.9102109,51.6322422 32.9102109,51.1786641 C32.9102109,50.7250859 32.5427578,50.3576328 32.0891797,50.3576328 L29.8085938,50.3576328 L29.8085938,47.0952422 C29.8085938,43.6809141 32.4955312,42.7009375 32.6052187,42.6626484 C32.6179141,42.6583828 32.6306094,42.6538125 32.643,42.6488359 L37.1374453,40.8887578 C37.1579609,40.9140469 37.1794922,40.9387266 37.2033594,40.9618828 L39.5610312,43.2581094 C39.7143906,43.4075078 39.9199531,43.4909922 40.1338437,43.4909922 C40.1381094,43.4909922 40.1424766,43.4909922 40.1467422,43.4908906 C40.3652031,43.4875391 40.5732031,43.3970469 40.7249375,43.2397266 L43.0307109,40.8475234 L47.5169297,42.6463984 C47.5282031,42.6509687 47.5446562,42.6570625 47.5561328,42.6610234 C47.6704922,42.7009375 50.3577344,43.6808125 50.3577344,47.0952422 L50.3577344,50.3578359 L43.6048437,50.3578359 L37.7762734,50.3578359 L36.560875,50.3578359 L35.5408828,50.3578359 L34.7161953,50.3578359 C34.2626172,50.3578359 33.8951641,50.7252891 33.8951641,51.1788672 C33.8951641,51.6324453 34.2626172,51.9998984 34.7161953,51.9998984 L35.5408828,51.9998984 L36.560875,51.9998984 L37.7762734,51.9998984 L43.6048437,51.9998984 L51.1788672,51.9998984 C51.6324453,51.9998984 51.9998984,51.6243203 51.9998984,51.1708437 L51.9998984,47.0953437 C52,43.4204062 49.4683516,41.5827344 48.1079219,41.1143281 Z M40.6664375,37.1901562 L39.6273516,37.1901562 C37.4388828,37.1901562 35.6583906,35.4096641 35.6583906,33.2212969 L35.6583906,29.9205156 C37.0915391,29.7966094 40.0754453,29.3054531 42.2021641,27.3363594 C42.6370547,28.1954766 43.3937969,29.2310078 44.6349922,29.7394297 L44.6349922,33.2213984 C44.6348906,35.4097656 42.8547031,37.1901562 40.6664375,37.1901562 Z M34.0162266,30.5993594 L34.0162266,33.0903828 C33.4110156,32.9977578 32.9456562,32.4754219 32.9456562,31.8450234 C32.9455547,31.2144219 33.4110156,30.6919844 34.0162266,30.5993594 Z M46.2770547,33.0847969 L46.2770547,30.6051484 C46.8642891,30.7130078 47.3108594,31.2274219 47.3108594,31.845125 C47.3107578,32.462625 46.8641875,32.9769375 46.2770547,33.0847969 Z M39.8618594,21.6075234 L40.4067422,21.6075234 C43.5591406,21.6075234 46.1237969,24.1722812 46.1237969,27.3246797 L46.1237969,28.6655078 C46.1226797,28.6639844 46.1214609,28.6625625 46.1204453,28.6610391 C46.1129297,28.6506797 46.1054141,28.6402187 46.0973906,28.6301641 C46.0894687,28.6203125 46.0813437,28.6108672 46.0730156,28.6015234 C46.0636719,28.5907578 46.0543281,28.5802969 46.044375,28.5700391 C46.0364531,28.5619141 46.028125,28.5541953 46.02,28.546375 C46.0089297,28.5359141 45.9977578,28.5254531 45.9861797,28.5156016 C45.9778516,28.5085937 45.9693203,28.5019922 45.9606875,28.4953906 C45.9485,28.4858437 45.9363125,28.4765 45.9235156,28.4675625 C45.9140703,28.4609609 45.9043203,28.4550703 45.8947734,28.4489766 C45.8822812,28.4410547 45.8697891,28.4332344 45.8568906,28.4260234 C45.8454141,28.4195234 45.8334297,28.4137344 45.8216484,28.4078437 C45.8099687,28.4020547 45.7983906,28.3961641 45.7864062,28.3908828 C45.7720859,28.3844844 45.7573594,28.3792031 45.7426328,28.3737187 C45.732375,28.3698594 45.7221172,28.3657969 45.7116562,28.3623437 C45.6951016,28.3568594 45.6780391,28.3524922 45.6610781,28.348125 C45.6534609,28.3461953 45.6461484,28.3435547 45.6384297,28.3417266 C43.8517422,27.9352734 43.2924375,25.6253359 43.2875625,25.6048203 C43.2162656,25.2900781 42.9673359,25.0463281 42.6511719,24.9817344 C42.3352109,24.9167344 42.0104141,25.0433828 41.8214062,25.3049062 C39.6611719,28.2915547 34.9064219,28.3214141 34.8406094,28.3214141 C34.8406094,28.3214141 34.8405078,28.3214141 34.8404062,28.3214141 C34.8392891,28.3214141 34.838375,28.3214141 34.8373594,28.3214141 C34.809125,28.3214141 34.7811953,28.3228359 34.7535703,28.3256797 C34.7456484,28.3264922 34.7380312,28.3282187 34.7301094,28.3291328 C34.7106094,28.3316719 34.6911094,28.3341094 34.6722187,28.3379687 C34.6607422,28.3403047 34.6497734,28.3437578 34.6385,28.3466016 C34.6234687,28.3503594 34.6083359,28.3536094 34.5937109,28.3580781 C34.5803047,28.3622422 34.5675078,28.367625 34.5545078,28.3722969 C34.5424219,28.3766641 34.5302344,28.3805234 34.5184531,28.3853984 C34.5031172,28.3918984 34.4884922,28.3995156 34.4735625,28.4069297 C34.4647266,28.4112969 34.4554844,28.4151562 34.4468516,28.4198281 C34.4323281,28.42775 34.4184141,28.4367891 34.4043984,28.4455234 C34.3960703,28.4507031 34.3873359,28.455375 34.3792109,28.4608594 C34.3658047,28.4697969 34.3533125,28.4799531 34.3404141,28.4898047 C34.3322891,28.4958984 34.3238594,28.5015859 34.3160391,28.5080859 C34.3043594,28.5177344 34.2934922,28.5282969 34.2823203,28.5386562 C34.2740937,28.5461719 34.2655625,28.5531797 34.2576406,28.561 C34.2475859,28.5710547 34.2383437,28.5820234 34.2286953,28.5924844 C34.2206719,28.6013203 34.2121406,28.60975 34.2045234,28.6190937 C34.1959922,28.6294531 34.1882734,28.640625 34.18025,28.6513906 C34.1726328,28.6616484 34.1644062,28.6715 34.1572969,28.6821641 C34.1528281,28.6887656 34.1490703,28.695875 34.1448047,28.7024766 L34.1448047,27.3248828 C34.1446016,24.1722812 36.7093594,21.6075234 39.8618594,21.6075234 Z M32.0616562,41.1131094 C31.7893672,41.2066484 31.4696484,41.3560469 31.1328672,41.5632344 C31.087875,41.5556172 31.0418672,41.5507422 30.9947422,41.5507422 L1.6420625,41.5507422 L1.6420625,31.4670078 L31.3287812,31.4670078 C31.3125312,31.5908125 31.3033906,31.71675 31.3033906,31.8449219 C31.3033906,33.4459531 32.6061328,34.7484922 34.2073672,34.7484922 C34.2145781,34.7484922 34.2215859,34.7475781 34.2286953,34.747375 C34.6440859,36.2143437 35.6409219,37.4394922 36.9551406,38.1540859 L36.9551406,39.196625 L32.0616562,41.1131094 Z M40.1155625,41.5060547 L38.5975078,40.0274062 L38.5975078,38.7359375 C38.9316484,38.7981953 39.2754375,38.8323203 39.6273516,38.8323203 L40.6664375,38.8323203 C41.01825,38.8323203 41.3620391,38.7981953 41.6960781,38.7359375 L41.6960781,39.7697422 C41.6960781,39.7709609 41.6960781,39.7720781 41.6960781,39.7732969 L41.6960781,39.8662266 L40.1155625,41.5060547 Z" id="Shape" fill="#66758B"></path>
                        <path d="M9.9555625,10.2260234 L4.24663281,10.2260234 C3.79315625,10.2260234 3.42560156,9.85857031 3.42560156,9.40499219 L3.42560156,3.96307031 C3.42560156,3.50949219 3.79325781,3.14203906 4.24663281,3.14203906 L8.38804687,3.14203906 C8.84152344,3.14203906 9.20907812,3.50949219 9.20907812,3.96307031 C9.20907812,4.41664844 8.84142187,4.78410156 8.38804687,4.78410156 L5.06766406,4.78410156 L5.06766406,8.58385938 L9.13453125,8.58385938 L9.13453125,7.93680469 C9.13453125,7.48322656 9.5021875,7.11577344 9.9555625,7.11577344 C10.4089375,7.11577344 10.7765937,7.48322656 10.7765937,7.93680469 L10.7765937,9.40499219 C10.7765937,9.85836719 10.4089375,10.2260234 9.9555625,10.2260234 Z" id="Shape" fill="#66758B"></path>
                        <path d="M7.66461719,8.32030469 C7.66278906,8.32030469 7.66096094,8.32030469 7.65923437,8.32030469 C7.43122656,8.31878125 7.21398437,8.22239844 7.05971094,8.05441406 L5.61975781,6.48578125 C5.31314062,6.15174219 5.33538281,5.63245312 5.66942187,5.32573437 C6.00346094,5.01921875 6.52275,5.04125781 6.82946875,5.37539844 L7.67253906,6.29372656 L10.3997969,3.39990625 C10.7107812,3.06982812 11.230375,3.05449219 11.5604531,3.36557812 C11.8904297,3.6765625 11.9058672,4.19625781 11.5947812,4.52623437 L8.26210937,8.06233594 C8.10682031,8.22707031 7.89059375,8.32030469 7.66461719,8.32030469 Z" id="Shape" fill="#66758B"></path>
                        <path d="M9.9555625,25.1382422 L4.24663281,25.1382422 C3.79315625,25.1382422 3.42560156,24.7707891 3.42560156,24.3172109 L3.42560156,18.8753906 C3.42560156,18.4218125 3.79325781,18.0543594 4.24663281,18.0543594 L8.38804687,18.0543594 C8.84152344,18.0543594 9.20907812,18.4218125 9.20907812,18.8753906 C9.20907812,19.3289687 8.84142187,19.6964219 8.38804687,19.6964219 L5.06766406,19.6964219 L5.06766406,23.4961797 L9.13453125,23.4961797 L9.13453125,22.849125 C9.13453125,22.3955469 9.5021875,22.0280937 9.9555625,22.0280937 C10.4089375,22.0280937 10.7765937,22.3955469 10.7765937,22.849125 L10.7765937,24.3173125 C10.7765937,24.7707891 10.4089375,25.1382422 9.9555625,25.1382422 Z" id="Shape" fill="#66758B"></path>
                        <path d="M7.66461719,23.232625 C7.66278906,23.232625 7.66096094,23.232625 7.65923437,23.232625 C7.43122656,23.2311016 7.21398437,23.1347188 7.05971094,22.9667344 L5.61965625,21.3981016 C5.31303906,21.0640625 5.33528125,20.5447734 5.66932031,20.2380547 C6.00335937,19.9315391 6.52264844,19.9535781 6.82936719,20.2877187 L7.6724375,21.2060469 L10.3996953,18.3122266 C10.7106797,17.9821484 11.2302734,17.9668125 11.5603516,18.2778984 C11.8903281,18.5888828 11.9057656,19.1085781 11.5946797,19.4385547 L8.26210937,22.9747578 C8.10682031,23.1394922 7.89059375,23.232625 7.66461719,23.232625 Z" id="Shape" fill="#66758B"></path>
                        <path d="M9.9555625,40.0507656 L4.24663281,40.0507656 C3.79315625,40.0507656 3.42560156,39.6833125 3.42560156,39.2297344 L3.42560156,33.7879141 C3.42560156,33.3343359 3.79325781,32.9668828 4.24663281,32.9668828 L8.38804687,32.9668828 C8.84152344,32.9668828 9.20907812,33.3343359 9.20907812,33.7879141 C9.20907812,34.2414922 8.84142187,34.6089453 8.38804687,34.6089453 L5.06766406,34.6089453 L5.06766406,38.4087031 L9.13453125,38.4087031 L9.13453125,37.7616484 C9.13453125,37.3080703 9.5021875,36.9406172 9.9555625,36.9406172 C10.4089375,36.9406172 10.7765937,37.3080703 10.7765937,37.7616484 L10.7765937,39.2298359 C10.7765937,39.6833125 10.4089375,40.0507656 9.9555625,40.0507656 Z" id="Shape" fill="#66758B"></path>
                        <path d="M7.66461719,38.1451484 C7.66278906,38.1451484 7.66096094,38.1451484 7.65923437,38.1451484 C7.43122656,38.143625 7.21398437,38.0472422 7.05971094,37.8792578 L5.61975781,36.310625 C5.31314062,35.9765859 5.33538281,35.4572969 5.66942187,35.1505781 C6.00346094,34.8440625 6.52275,34.8658984 6.82946875,35.2002422 L7.67253906,36.1185703 L10.3997969,33.22475 C10.7107812,32.8946719 11.230375,32.8793359 11.5604531,33.1902188 C11.8904297,33.5012031 11.9058672,34.0208984 11.5947812,34.350875 L8.26221094,37.8870781 C8.10682031,38.0519141 7.89059375,38.1451484 7.66461719,38.1451484 Z" id="Shape" fill="#66758B"></path>
                        <path d="M37.2757734,13.3680625 L0.82103125,13.3680625 C0.36765625,13.3680625 0,13.0006094 0,12.5470312 L0,0.821132813 C0,0.367554688 0.36765625,0.0001015625 0.82103125,0.0001015625 L32.0889766,0.0001015625 C32.5425547,0.0001015625 32.9100078,0.367554688 32.9100078,0.821132813 C32.9100078,1.27471094 32.5425547,1.64216406 32.0889766,1.64216406 L1.6420625,1.64216406 L1.6420625,11.726 L36.4547422,11.726 L36.4547422,1.64216406 L34.8372578,1.64216406 C34.3836797,1.64216406 34.0162266,1.27471094 34.0162266,0.821132813 C34.0162266,0.367554688 34.3836797,0.0001015625 34.8372578,0.0001015625 L37.2757734,0.0001015625 C37.7293516,0.0001015625 38.0968047,0.367554688 38.0968047,0.821132813 L38.0968047,12.5470312 C38.0968047,13.0005078 37.7293516,13.3680625 37.2757734,13.3680625 Z" id="Shape" fill="#66758B"></path>
                    </g>
                </g>
            </g>
        </g>
    </g>
</svg>