<?xml version="1.0" encoding="UTF-8"?>
<svg width="74px" height="65px" viewBox="0 0 74 65" version="1.1" xmlns="http://www.w3.org/2000/svg" xmlns:xlink="http://www.w3.org/1999/xlink">
    <!-- Generator: Sketch 45.2 (43514) - http://www.bohemiancoding.com/sketch -->
    <title>Group 4</title>
    <desc>Created with Sketch.</desc>
    <defs></defs>
    <g id="Page-1" stroke="none" stroke-width="1" fill="none" fill-rule="evenodd">
        <g id="Copierman" transform="translate(-255.000000, -2254.000000)">
            <g id="Group-4" transform="translate(252.000000, 2250.000000)">
                <g id="money" fill="#F3F7FB">
                    <g id="Group-2">
                        <rect id="Rectangle-7" transform="translate(24.500000, 26.500000) rotate(-318.000000) translate(-24.500000, -26.500000) " x="16" y="-0.418628139" width="17" height="53.8372563" rx="8.5"></rect>
                        <rect id="Rectangle-7" transform="translate(55.500000, 46.500000) rotate(-318.000000) translate(-55.500000, -46.500000) " x="47" y="19.5813719" width="17" height="53.8372563" rx="8.5"></rect>
                        <rect id="Rectangle-7" transform="translate(40.000000, 36.508453) rotate(-318.000000) translate(-40.000000, -36.508453) " x="31.5" y="0.159021207" width="17" height="72.6988631" rx="8.5"></rect>
                    </g>
                </g>
                <g id="pantone" transform="translate(17.000000, 16.000000)" fill-rule="nonzero" fill="#66758B">
                    <path d="M43.2529783,29.5081805 L31.8430954,29.5081805 L23.8718595,29.5081805 L27.3329469,26.0470065 L37.5763688,15.8037579 C37.714736,15.6654773 37.7924539,15.4778108 37.7924539,15.2821732 C37.7924539,15.0865356 37.714736,14.898869 37.5763688,14.7605884 L29.2301464,6.41436605 C29.0918658,6.2759988 28.9041993,6.19828094 28.7085617,6.19828094 C28.5129241,6.19828094 28.3252575,6.2759988 28.1869769,6.41436605 L17.9436417,16.6577013 L14.4824677,20.1187887 L14.4824677,12.1475528 L14.4824677,0.737669857 C14.4824677,0.330279245 14.1521884,0 13.7447978,0 L1.94147359,0 C1.53408298,0 1.20380373,0.330279245 1.20380373,0.737669857 L1.20380373,12.1475528 L1.20380373,23.5574358 L1.20380373,31.9094632 C0.431477083,33.1882122 0.0234799778,34.6483896 0.0234799778,36.1475558 C0.0234799778,40.6763324 3.70784373,44.3606961 8.23653362,44.3606961 C9.99190023,44.3606961 11.6558595,43.8166711 13.066651,42.7869311 L20.4332991,42.7869311 L31.843182,42.7869311 L43.253065,42.7869311 C43.6604556,42.7869311 43.9907348,42.4566519 43.9907348,42.0492612 L43.9907348,30.245937 C43.9906482,29.8385464 43.660369,29.5081805 43.2529783,29.5081805 Z M28.7085617,7.97920693 L36.0115279,15.2821732 L28.9867691,22.3068454 L21.6838895,15.0039658 L28.7085617,7.97920693 Z M2.67914345,1.47542636 L13.0070413,1.47542636 L13.0070413,11.409883 L2.67914345,11.409883 L2.67914345,1.47542636 Z M2.67914345,12.8852227 L13.0070413,12.8852227 L13.0070413,21.594215 L11.7815771,22.8196793 L2.67914345,22.8196793 L2.67914345,12.8852227 Z M2.67914345,24.2951056 L10.3061507,24.2951056 L6.47172304,28.1295333 C5.05226741,28.4414444 3.74180739,29.1297284 2.67914345,30.1059236 L2.67914345,24.2951056 Z M12.3690097,41.4670271 C11.1766427,42.3948761 9.74756984,42.8852698 8.23662027,42.8852698 C4.52141197,42.8852698 1.49890633,39.8627641 1.49890633,36.1475558 C1.49890633,34.8568502 1.86670156,33.6013212 2.56252334,32.5165635 C3.56115885,30.9596937 5.17018715,29.8708639 6.97719238,29.5292345 L6.97727902,29.5292345 C7.39619302,29.4499571 7.81995896,29.4098419 8.23670691,29.4098419 C9.74774312,29.4098419 11.176816,29.9002355 12.3690964,30.8280845 C12.6702639,31.0624511 12.9502042,31.3199511 13.2012926,31.5936531 C13.2013793,31.5937398 13.2014659,31.5938264 13.2015526,31.593913 C14.3447069,32.8395649 14.9743342,34.4567375 14.9743342,36.1475558 C14.9743342,36.280378 14.969049,36.4224708 14.9576989,36.5947151 C14.9576989,36.5948018 14.9576989,36.5948018 14.9576989,36.5948884 C14.832328,38.5086365 13.8887968,40.2844507 12.3690097,41.4670271 Z M19.6956292,41.3115048 L14.619362,41.3115048 C15.6177376,40.077203 16.2452855,38.5712787 16.4059197,36.9742936 L18.9380317,34.4421816 L19.6957159,33.6844975 L19.6957159,41.3115048 L19.6956292,41.3115048 Z M17.8945156,33.3990121 L16.3587865,34.9347413 C16.1193947,33.3225939 15.4059846,31.8142436 14.2890827,30.597097 C14.2888228,30.5968371 14.2884762,30.5964039 14.2882163,30.5961439 C13.9817636,30.2622257 13.6408274,29.9485818 13.275025,29.6638762 C11.9534748,28.6356091 10.3933125,28.0495627 8.73663116,27.9511374 L12.5725317,24.1152369 L13.2230398,24.7656582 L19.22499,30.7675218 L19.8754113,31.4181165 L17.8945156,33.3990121 Z M20.2683327,29.7243523 L14.2663825,23.7224021 L13.6159612,23.0719807 L14.2662959,22.421646 C14.2663825,22.4215593 14.2664692,22.4214727 14.2665558,22.4213861 L18.9868978,17.7010441 L20.6406333,16.0473085 L27.9435129,23.3501881 L26.2897774,25.0039237 L21.5694354,29.7242657 C21.5693488,29.7243523 21.5692621,29.7244389 21.5691755,29.7245256 L20.9188408,30.3748603 L20.2683327,29.7243523 Z M31.1054255,41.3115048 L21.1709689,41.3115048 L21.1709689,32.2092444 L21.4405122,31.9397012 C21.4406854,31.9395279 21.4407721,31.9394413 21.441032,31.9391814 L22.3966065,30.9836069 L31.1055122,30.9836069 L31.1055122,41.3115048 L31.1054255,41.3115048 Z M42.5153085,41.3115048 L32.5808519,41.3115048 L32.5808519,30.9836069 L42.5153085,30.9836069 L42.5153085,41.3115048 Z" id="Shape"></path>
                    <path d="M8.23653362,31.0820322 C5.44336932,31.0820322 3.17092335,33.3544782 3.17092335,36.1476425 C3.17092335,38.9408068 5.44336932,41.2132527 8.23653362,41.2132527 C11.0296979,41.2132527 13.3021439,38.9408068 13.3021439,36.1476425 C13.3021439,33.3543915 11.0296979,31.0820322 8.23653362,31.0820322 Z M8.23653362,39.7377397 C6.25693756,39.7377397 4.64634971,38.1271519 4.64634971,36.1475558 C4.64634971,34.1679598 6.25693756,32.5573719 8.23653362,32.5573719 C10.2161297,32.5573719 11.8267175,34.1679598 11.8267175,36.1475558 C11.8267175,38.1271519 10.2161297,39.7377397 8.23653362,39.7377397 Z" id="Shape"></path>
                    <path d="M8.23653362,33.2459158 C7.82914301,33.2459158 7.49886377,33.576195 7.49886377,33.9835856 C7.49886377,34.3909762 7.82914301,34.7212555 8.23653362,34.7212555 C9.02289628,34.7212555 9.66274733,35.3611065 9.66274733,36.1474692 C9.66274733,36.5548598 9.99302658,36.885139 10.4004172,36.885139 C10.8078078,36.885139 11.138087,36.5548598 11.138087,36.1474692 C11.1381737,34.5476249 9.83646451,33.2459158 8.23653362,33.2459158 Z" id="Shape"></path>
                </g>
            </g>
        </g>
    </g>
</svg>