<svg xmlns="http://www.w3.org/2000/svg" width="122" height="69" viewBox="0 0 122 69">
    <g fill="#FFB800" fill-rule="evenodd" stroke="#404149" stroke-width="3">
        <path d="M22.5 60l-11.462 6.18 2.19-13.09-9.274-9.27 12.815-1.91L22.5 30l5.73 11.91 12.816 1.91-9.273 9.27 2.189 13.09zM61.5 43.75l-15.576 8.189 2.975-17.345-12.602-12.283 17.415-2.53L61.5 4l7.788 15.78 17.415 2.531-12.602 12.283 2.975 17.345zM99.5 60l-11.462 6.18 2.19-13.09-9.274-9.27 12.815-1.91L99.5 30l5.73 11.91 12.816 1.91-9.273 9.27 2.189 13.09z"/>
    </g>
</svg>
