<?xml version="1.0" encoding="utf-8"?>
<!-- Generator: Adobe Illustrator 21.0.2, SVG Export Plug-In . SVG Version: 6.00 Build 0)  -->
<svg version="1.1" id="Слой_1" xmlns="http://www.w3.org/2000/svg" xmlns:xlink="http://www.w3.org/1999/xlink" x="0px" y="0px"
	 viewBox="0 0 17.5 17.7" style="enable-background:new 0 0 17.5 17.7;" xml:space="preserve">
<g>
	<path fill="#999999" d="M15.8,8.3c-0.4,0-0.8,0.3-0.8,0.8c0,3.5-2.8,6.4-6.3,6.4S2.4,12.5,2.4,9s2.8-6.4,6.3-6.4c1.2,0,2.4,0.4,3.4,1l-0.6,0.1
		c-0.4,0.1-0.7,0.5-0.6,0.9c0.1,0.4,0.4,0.6,0.7,0.6c0,0,0.1,0,0.1,0l2.5-0.5c0.4-0.1,0.7-0.5,0.6-0.9l-0.5-2.5
		C14.4,1,14,0.7,13.6,0.8c-0.4,0.1-0.7,0.5-0.6,0.9l0.2,0.9c-1.3-0.9-2.8-1.4-4.4-1.4C4.4,1.2,0.9,4.7,0.9,9s3.5,7.9,7.8,7.9
		s7.8-3.5,7.8-7.9C16.6,8.6,16.3,8.3,15.8,8.3z"/>
	<path fill="#999999" d="M4.7,11.1v0.8h3.8v-1H6.3L7,10.1c0.4-0.4,0.6-0.7,0.8-0.9C8,9,8.1,8.8,8.2,8.6S8.3,8.2,8.3,8c0-0.5-0.2-0.9-0.5-1.2
		C7.5,6.6,7.1,6.4,6.5,6.4c-0.4,0-0.7,0.1-1,0.2S5,7.1,4.8,7.3C4.7,7.6,4.6,7.9,4.6,8.3h1.3C5.8,8,5.9,7.8,6,7.6s0.3-0.2,0.5-0.2
		c0.2,0,0.3,0.1,0.4,0.2s0.2,0.3,0.2,0.5c0,0.3-0.2,0.7-0.6,1.2L4.7,11.1z"/>
	<path fill="#999999" d="M12.4,11.9v-1.1h0.5v-1h-0.5V6.5h-1.2v0L9,10L9,10.8h2.1v1.1H12.4z M10.2,9.8l0.9-1.5l0.1-0.1v1.7H10.2z"/>
</g>
</svg>
