<svg xmlns="http://www.w3.org/2000/svg" width="64" height="59" viewBox="0 0 64 59">
    <g fill="none" fill-rule="nonzero">
        <path fill="#B3B3B3" d="M60.916 53.771v-5.794h-7.222v5.753M1.055 54.069h61.817v3.587H1.055z"/>
        <path fill="#CCC" d="M15.078 11.767l.433 5.351h-3.235l.431-5.35zM14.59 48.913v4.858H11.89l.855-31.436h2.298l.694 25.514c-.387.327-.76.671-1.114 1.031-.011.011-.023.021-.031.033z"/>
        <path fill="#ED2E2E" d="M15.51 17.118h.035a2.604 2.604 0 0 1 2.61 2.608 2.608 2.608 0 0 1-2.61 2.609H12.24a2.605 2.605 0 0 1-2.608-2.61 2.608 2.608 0 0 1 2.608-2.607h3.271z"/>
        <path fill="#D82525" d="M13.772 21.571a2.607 2.607 0 0 1 1.808-4.451l-.035-.002H12.24a2.608 2.608 0 1 0 0 5.217h3.305l.035-.002a2.6 2.6 0 0 1-1.808-.762z"/>
        <path fill="#3B9DFF" d="M38.38 48.88H14.621c.354-.36.727-.704 1.114-1.03A16.615 16.615 0 0 1 26.5 43.913c3.118 0 6.037.855 8.533 2.344a16.712 16.712 0 0 1 3.345 2.622zM38.409 48.911v4.86H14.59v-4.858c.008-.012.02-.022.03-.033H38.38c.011.011.021.02.03.031z"/>
        <g fill="#1E79C4">
            <path d="M29.807 44.241a16.602 16.602 0 0 0-7.46 3.608c-.387.327-.76.671-1.114 1.031h-6.611c.354-.36.727-.704 1.114-1.03A16.615 16.615 0 0 1 26.5 43.913c1.132 0 2.237.112 3.306.327zM21.233 48.88c-.011.011-.023.021-.031.033v4.858H14.59v-4.858c.008-.012.02-.022.03-.033h6.612z"/>
        </g>
        <path fill="#E6E6E6" d="M48.068 41.944v11.827H38.409v-4.86l.001.002-.001-.033h-.03a16.712 16.712 0 0 0-3.345-2.622v-10.96H48.068v6.646z"/>
        <path fill="#CCC" d="M53.694 35.298v18.473h-5.626V35.298H40.66v-5.095H53.694z"/>
        <path fill="#FFD039" d="M46.668 4.2a7.069 7.069 0 1 1 0 14.137 7.069 7.069 0 0 1 0-14.137z"/>
        <g fill="#333">
            <path d="M46.669 19.39c4.479 0 8.122-3.643 8.122-8.122 0-4.48-3.643-8.123-8.122-8.123-4.48 0-8.123 3.644-8.123 8.123 0 4.479 3.644 8.123 8.123 8.123zm0-14.135a6.02 6.02 0 0 1 6.013 6.013 6.02 6.02 0 0 1-6.013 6.013 6.02 6.02 0 0 1-6.013-6.013 6.02 6.02 0 0 1 6.013-6.013zM1.055 54.826h61.817a1.055 1.055 0 1 0 0-2.11h-.902v-4.74c0-.582-.472-1.054-1.055-1.054H54.75V30.203c0-.582-.472-1.055-1.055-1.055h-5.462v-2.79a1.055 1.055 0 1 0-2.11 0v2.79H40.66c-.582 0-1.055.473-1.055 1.055v4.04h-4.571c-.583 0-1.055.472-1.055 1.055V44.5A17.683 17.683 0 0 0 26.5 42.86c-3.53 0-6.897 1.021-9.765 2.92l-.61-22.435a3.669 3.669 0 0 0 3.084-3.618 3.67 3.67 0 0 0-2.715-3.538l-.364-4.506a1.055 1.055 0 0 0-1.052-.97h-.13V1.084a1.055 1.055 0 1 0-2.11 0v9.628h-.13c-.55 0-1.007.422-1.051.97l-.364 4.506a3.67 3.67 0 0 0-2.715 3.538 3.669 3.669 0 0 0 3.083 3.618l-.8 29.372H1.056a1.055 1.055 0 1 0 0 2.11zm14.59-2.11v-2.78h21.71v2.78h-21.71zm44.215-3.684v3.684H54.75v-3.684h5.111zM41.715 31.258H52.64v2.985h-1.571a1.055 1.055 0 1 0 0 2.11h1.57v1.336h-1.57a1.055 1.055 0 1 0 0 2.11h1.57v1.336h-1.57a1.055 1.055 0 1 0 0 2.11h1.57v1.337h-1.57a1.055 1.055 0 1 0 0 2.11h1.57v1.336h-1.57a1.055 1.055 0 1 0 0 2.11h1.57v2.578h-3.516V35.298c0-.583-.472-1.055-1.055-1.055h-6.352v-2.985zm5.297 5.095v1.396H41.13a1.055 1.055 0 1 0 0 2.11h5.883v1.031H41.13a1.055 1.055 0 1 0 0 2.11h5.883v1.031H41.13a1.055 1.055 0 1 0 0 2.11h5.883v1.102H41.13a1.055 1.055 0 1 0 0 2.11h5.883v3.363h-7.548v-3.849a1.054 1.054 0 0 0-.472-.866 17.957 17.957 0 0 0-2.204-1.86h1.434a1.055 1.055 0 1 0 0-2.11H36.09V43h2.133a1.055 1.055 0 1 0 0-2.11H36.09V39.86h2.133a1.055 1.055 0 1 0 0-2.11H36.09v-1.396h10.923zM35.514 47.826h-18.03a15.508 15.508 0 0 1 9.016-2.857c3.277 0 6.395 1 9.014 2.857zM13.681 12.822h.424l.262 3.241h-.948l.262-3.241zm-2.994 6.904c0-.856.697-1.553 1.554-1.553H15.545c.857 0 1.553.697 1.553 1.553 0 .857-.696 1.554-1.553 1.554h-3.304a1.555 1.555 0 0 1-1.554-1.554zm3.083 3.664h.245l.652 23.99c-.224.2-.444.408-.66.622-.28.186-.466.503-.471.865v3.849h-.564l.798-29.326zM62.872 56.724H1.055a1.055 1.055 0 1 0 0 2.11h61.817a1.055 1.055 0 1 0 0-2.11z"/>
        </g>
    </g>
</svg>
