<?xml version="1.0" encoding="iso-8859-1"?>
<!-- Generator: Adobe Illustrator 19.0.1, SVG Export Plug-In . SVG Version: 6.00 Build 0)  -->
<svg version="1.1" id="&#x421;&#x43B;&#x43E;&#x439;_1"
	 xmlns="http://www.w3.org/2000/svg" xmlns:xlink="http://www.w3.org/1999/xlink" x="0px" y="0px" viewBox="0 0 16.375 15.667"
	 style="enable-background:new 0 0 16.375 15.667;" xml:space="preserve">
<g>
	<defs>
		<rect id="SVGID_1_" x="-57" y="-36.034" width="101.965" height="51.701"/>
	</defs>
	<clipPath id="SVGID_2_">
		<use xlink:href="#SVGID_1_"  style="overflow:visible;"/>
	</clipPath>
	<path style="clip-path:url(#SVGID_2_);fill:#575756;" d="M-47.35,0.687c-4.137,0-7.49,3.354-7.49,7.489
		c0,4.137,3.353,7.491,7.49,7.491s7.489-3.354,7.489-7.491C-39.861,4.041-43.213,0.687-47.35,0.687 M-44.956,5.127
		c0,0-0.693,0-0.984,0.004c-0.065,0.002-0.132,0.01-0.196,0.022c-0.302,0.072-0.468,0.267-0.477,0.591
		c-0.011,0.38-0.01,1.219-0.01,1.219l1.634-0.002l-0.247,1.625l-1.392-0.003l0.005,4.162h-1.684c-0.001-1.389-0.005-4.16-0.005-4.16
		l-1.429,0.001l-0.005-1.625l1.44,0.004c0,0-0.002-0.856,0-1.232c0.003-0.353,0.055-0.697,0.204-1.022
		c0.278-0.604,0.761-0.938,1.402-1.057c0.379-0.072,0.76-0.042,1.14-0.027c0.165,0.004,0.604,0.028,0.604,0.028V5.127z"/>
	<path style="clip-path:url(#SVGID_2_);fill:#575756;" d="M8.018,0.686c-4.138,0-7.491,3.355-7.491,7.489
		c0,4.137,3.353,7.492,7.491,7.492c4.136,0,7.488-3.355,7.488-7.492C15.506,4.041,12.154,0.686,8.018,0.686 M5.654,12.447H3.879
		V6.742h1.775V12.447z M4.768,5.963c-0.57,0-1.03-0.461-1.03-1.029c0-0.568,0.46-1.027,1.03-1.027c0.566,0,1.028,0.459,1.028,1.027
		C5.796,5.502,5.334,5.963,4.768,5.963 M12.295,12.446h-1.772V9.674c0-0.663-0.012-1.514-0.922-1.514
		c-0.922,0-1.062,0.723-1.062,1.464v2.822H6.767V6.742h1.699v0.78h0.025C8.727,7.073,9.307,6.6,10.169,6.6
		c1.795,0,2.126,1.182,2.126,2.719V12.446z"/>
	<path style="clip-path:url(#SVGID_2_);fill:#575756;" d="M-19.667,0.687c-4.137,0-7.49,3.354-7.49,7.489
		c0,4.139,3.353,7.491,7.49,7.491c4.136,0,7.489-3.352,7.489-7.491C-12.178,4.041-15.531,0.687-19.667,0.687 M-15.662,5.882
		c-0.172,0.173-0.356,0.328-0.532,0.492c-0.023,0.023-0.047,0.057-0.045,0.083c0.026,0.951-0.188,1.845-0.657,2.671
		c-0.465,0.817-1.083,1.49-1.916,1.946c-0.565,0.309-1.169,0.497-1.808,0.573c-1.17,0.139-2.263-0.079-3.275-0.69
		c-0.023-0.013-0.044-0.027-0.067-0.05c0.952,0.083,1.81-0.148,2.586-0.747c-0.389-0.013-0.726-0.127-1.021-0.353
		c-0.295-0.227-0.505-0.51-0.627-0.868c0.129,0.008,0.251,0.027,0.372,0.021c0.119-0.005,0.237-0.032,0.358-0.059
		c-0.414-0.099-0.754-0.31-1.024-0.632c-0.27-0.324-0.411-0.692-0.409-1.126c0.268,0.121,0.533,0.206,0.823,0.21
		c-0.459-0.32-0.704-0.76-0.744-1.314c-0.027-0.368,0.045-0.715,0.236-1.043c0.963,1.128,2.18,1.747,3.664,1.853
		c-0.065-0.352-0.065-0.69,0.062-1.01c0.262-0.658,0.737-1.063,1.451-1.155c0.568-0.072,1.066,0.09,1.469,0.505
		c0.041,0.04,0.079,0.029,0.118,0.02c0.338-0.073,0.66-0.197,0.963-0.364C-15.661,4.831-15.638,4.82-15.6,4.8
		c-0.14,0.419-0.387,0.735-0.749,0.97c0.336-0.04,0.654-0.133,0.962-0.261c0.004,0.005,0.009,0.01,0.014,0.014
		C-15.469,5.644-15.555,5.775-15.662,5.882"/>
	<path style="clip-path:url(#SVGID_2_);fill:#575756;" d="M35.701,0.687c-4.137,0-7.491,3.354-7.491,7.489
		c0,4.137,3.354,7.491,7.491,7.491s7.49-3.354,7.49-7.491C43.191,4.041,39.838,0.687,35.701,0.687 M35.7,6.11
		c1.13,0,2.044,0.925,2.044,2.065c0,1.142-0.914,2.066-2.044,2.066s-2.045-0.924-2.045-2.066C33.655,7.035,34.57,6.11,35.7,6.11
		 M39.79,11.913c0,0.229-0.185,0.413-0.41,0.413h-7.36c-0.226,0-0.409-0.184-0.409-0.413V7.312h0.926
		C32.468,7.576,32.43,7.89,32.43,8.175c0,1.825,1.463,3.306,3.27,3.306S38.971,10,38.971,8.175c0-0.285-0.041-0.599-0.108-0.863
		h0.927V11.913z M39.791,5.676c0,0.229-0.186,0.413-0.412,0.413h-1.236c-0.228,0-0.413-0.184-0.413-0.413V4.44
		c0-0.228,0.185-0.412,0.413-0.412h1.236c0.226,0,0.412,0.184,0.412,0.412V5.676z"/>
	<path style="clip-path:url(#SVGID_2_);fill:#575756;" d="M-50.65-8.595c-0.031,0.092-0.056,0.185-0.075,0.278
		c-0.02,0.093-0.03,0.178-0.03,0.255c0,0.077,0.018,0.14,0.053,0.19c0.034,0.051,0.09,0.075,0.168,0.075
		c0.177,0,0.357-0.063,0.538-0.19c0.181-0.127,0.343-0.303,0.486-0.526c0.143-0.225,0.258-0.489,0.347-0.793
		c0.089-0.306,0.134-0.635,0.134-0.991c0-0.431-0.082-0.819-0.244-1.163s-0.384-0.635-0.665-0.874
		c-0.282-0.239-0.61-0.423-0.985-0.55c-0.374-0.127-0.773-0.191-1.197-0.191c-0.494,0-0.944,0.091-1.349,0.272
		c-0.405,0.182-0.754,0.428-1.048,0.742c-0.293,0.312-0.52,0.678-0.682,1.099c-0.162,0.421-0.244,0.874-0.244,1.36
		c0,0.563,0.087,1.073,0.261,1.528c0.174,0.455,0.413,0.841,0.717,1.157c0.305,0.317,0.668,0.562,1.089,0.736
		c0.42,0.173,0.874,0.26,1.36,0.26c0.509,0,0.991-0.1,1.447-0.3c0.455-0.202,0.841-0.483,1.157-0.846h0.811
		c-0.371,0.602-0.861,1.069-1.47,1.401c-0.61,0.331-1.274,0.497-1.991,0.497c-0.594,0-1.154-0.109-1.679-0.329
		c-0.525-0.221-0.982-0.527-1.371-0.921c-0.39-0.393-0.697-0.864-0.921-1.412c-0.224-0.548-0.335-1.153-0.335-1.817
		c0-0.586,0.113-1.132,0.341-1.638c0.228-0.506,0.534-0.947,0.92-1.325c0.386-0.379,0.835-0.676,1.349-0.892
		c0.513-0.216,1.059-0.324,1.638-0.324c0.517,0,1.009,0.083,1.475,0.249c0.468,0.166,0.878,0.4,1.233,0.7
		c0.355,0.301,0.639,0.66,0.851,1.076c0.212,0.417,0.319,0.873,0.319,1.367c0,0.578-0.099,1.084-0.296,1.516
		c-0.197,0.432-0.436,0.791-0.717,1.076c-0.282,0.287-0.581,0.5-0.898,0.643c-0.316,0.143-0.59,0.214-0.821,0.214
		c-0.178,0-0.332-0.056-0.463-0.168c-0.132-0.111-0.205-0.279-0.22-0.503h-0.023c-0.155,0.178-0.348,0.331-0.579,0.463
		c-0.231,0.131-0.471,0.196-0.718,0.196c-0.239,0-0.463-0.048-0.671-0.144c-0.209-0.096-0.388-0.228-0.539-0.394
		c-0.15-0.166-0.268-0.358-0.353-0.578c-0.085-0.221-0.127-0.454-0.127-0.7c0-0.371,0.062-0.734,0.185-1.089
		s0.295-0.675,0.516-0.961c0.219-0.285,0.486-0.515,0.798-0.689c0.312-0.173,0.658-0.259,1.036-0.259
		c0.271,0,0.517,0.065,0.741,0.196c0.224,0.131,0.409,0.344,0.556,0.637l0.208-0.66h0.81L-50.65-8.595z M-52.757-7.866
		c0.231,0,0.444-0.067,0.637-0.202c0.193-0.135,0.359-0.305,0.497-0.51c0.139-0.204,0.249-0.428,0.33-0.671s0.122-0.469,0.122-0.677
		c0-0.139-0.025-0.27-0.075-0.393c-0.051-0.124-0.116-0.232-0.197-0.324c-0.081-0.093-0.178-0.166-0.29-0.221
		c-0.111-0.054-0.23-0.081-0.353-0.081c-0.239,0-0.457,0.066-0.653,0.197c-0.197,0.132-0.365,0.295-0.504,0.492
		s-0.247,0.415-0.324,0.654c-0.077,0.239-0.116,0.467-0.116,0.683c0,0.309,0.083,0.562,0.249,0.758
		C-53.268-7.964-53.042-7.866-52.757-7.866"/>
	<path style="clip-path:url(#SVGID_2_);fill:#575756;" d="M-46.796-13.631h3.427c0.632,0,1.181,0.108,1.644,0.324
		c0.462,0.217,0.84,0.512,1.134,0.886c0.293,0.375,0.511,0.813,0.654,1.314c0.143,0.501,0.214,1.038,0.214,1.609
		c0,0.571-0.071,1.107-0.214,1.609c-0.143,0.501-0.361,0.94-0.654,1.314c-0.294,0.374-0.672,0.67-1.134,0.885
		c-0.463,0.216-1.012,0.325-1.644,0.325h-3.427V-13.631z M-45.349-6.546h1.424c0.563,0,1.024-0.075,1.384-0.226
		c0.358-0.151,0.64-0.359,0.844-0.626c0.205-0.265,0.344-0.578,0.417-0.937c0.073-0.358,0.11-0.746,0.11-1.163
		s-0.037-0.805-0.11-1.163c-0.073-0.36-0.212-0.671-0.417-0.938c-0.204-0.266-0.486-0.474-0.844-0.625
		c-0.36-0.151-0.821-0.226-1.384-0.226h-1.424V-6.546z"/>
	<path style="clip-path:url(#SVGID_2_);fill:#575756;" d="M-33.368-5.365h-1.297v-0.834h-0.023
		c-0.162,0.302-0.403,0.543-0.723,0.724c-0.321,0.181-0.647,0.272-0.978,0.272c-0.788,0-1.357-0.195-1.708-0.585
		c-0.351-0.389-0.526-0.978-0.526-1.765v-3.796h1.319v3.669c0,0.524,0.1,0.895,0.301,1.111c0.2,0.216,0.482,0.324,0.845,0.324
		c0.278,0,0.509-0.042,0.694-0.127c0.186-0.085,0.336-0.199,0.452-0.342c0.116-0.142,0.199-0.314,0.248-0.515
		c0.051-0.2,0.076-0.416,0.076-0.648v-3.472h1.32V-5.365z"/>
	<path style="clip-path:url(#SVGID_2_);fill:#575756;" d="M-31.944-13.63h1.32v3.056h0.023c0.092-0.146,0.204-0.278,0.335-0.393
		c0.132-0.116,0.276-0.214,0.434-0.296c0.159-0.081,0.325-0.143,0.498-0.185c0.174-0.042,0.346-0.063,0.516-0.063
		c0.47,0,0.881,0.083,1.232,0.248c0.351,0.167,0.643,0.393,0.874,0.683c0.232,0.29,0.405,0.627,0.521,1.013
		c0.116,0.386,0.174,0.799,0.174,1.238c0,0.402-0.052,0.791-0.156,1.17c-0.104,0.378-0.263,0.711-0.475,1.001
		c-0.212,0.289-0.481,0.521-0.805,0.695c-0.324,0.174-0.706,0.26-1.146,0.26c-0.2,0-0.403-0.013-0.608-0.041
		c-0.204-0.027-0.399-0.079-0.584-0.156c-0.185-0.077-0.353-0.177-0.504-0.301c-0.15-0.123-0.275-0.285-0.375-0.486h-0.024v0.822
		h-1.25V-13.63z M-27.337-8.352c0-0.27-0.035-0.532-0.104-0.786c-0.069-0.255-0.174-0.481-0.313-0.678
		c-0.139-0.196-0.312-0.354-0.52-0.474c-0.209-0.12-0.448-0.18-0.718-0.18c-0.556,0-0.974,0.193-1.256,0.579
		s-0.422,0.899-0.422,1.539c0,0.302,0.036,0.581,0.109,0.84c0.074,0.259,0.183,0.48,0.33,0.665s0.322,0.332,0.527,0.44
		c0.204,0.109,0.442,0.162,0.712,0.162c0.301,0,0.555-0.061,0.764-0.185c0.208-0.123,0.38-0.283,0.515-0.481
		c0.135-0.196,0.231-0.42,0.289-0.67C-27.366-7.832-27.337-8.089-27.337-8.352"/>
	<path style="clip-path:url(#SVGID_2_);fill:#575756;" d="M-19.894-6.696c0,0.162,0.021,0.277,0.063,0.347
		c0.043,0.069,0.126,0.104,0.249,0.104h0.139c0.054,0,0.116-0.008,0.186-0.023v0.915c-0.047,0.014-0.106,0.032-0.18,0.052
		c-0.073,0.019-0.149,0.036-0.226,0.051c-0.077,0.016-0.154,0.028-0.231,0.035c-0.077,0.008-0.143,0.012-0.197,0.012
		c-0.27,0-0.494-0.055-0.671-0.162c-0.178-0.108-0.294-0.297-0.348-0.567c-0.262,0.255-0.584,0.439-0.966,0.555
		c-0.382,0.116-0.751,0.174-1.106,0.174c-0.27,0-0.528-0.037-0.775-0.11c-0.247-0.073-0.465-0.182-0.654-0.324
		c-0.189-0.143-0.34-0.325-0.452-0.544c-0.111-0.22-0.168-0.477-0.168-0.77c0-0.371,0.068-0.672,0.203-0.903
		c0.135-0.232,0.313-0.412,0.533-0.544c0.219-0.131,0.467-0.226,0.74-0.283c0.274-0.058,0.55-0.103,0.828-0.133
		c0.239-0.047,0.467-0.079,0.683-0.099c0.216-0.019,0.407-0.053,0.573-0.098c0.166-0.047,0.297-0.118,0.394-0.214
		c0.096-0.097,0.144-0.242,0.144-0.435c0-0.17-0.04-0.308-0.121-0.416c-0.082-0.108-0.182-0.191-0.301-0.249
		c-0.12-0.059-0.253-0.097-0.399-0.116c-0.147-0.02-0.286-0.029-0.417-0.029c-0.371,0-0.676,0.077-0.915,0.231
		c-0.239,0.155-0.374,0.395-0.405,0.719h-1.319c0.023-0.386,0.115-0.706,0.277-0.961c0.163-0.255,0.369-0.459,0.62-0.614
		c0.25-0.155,0.534-0.262,0.851-0.325c0.316-0.061,0.64-0.091,0.972-0.091c0.293,0,0.582,0.03,0.868,0.091
		c0.286,0.063,0.542,0.163,0.77,0.302c0.227,0.139,0.411,0.318,0.549,0.538c0.139,0.22,0.209,0.488,0.209,0.805V-6.696z
		 M-21.214-8.363c-0.2,0.131-0.447,0.21-0.74,0.237c-0.294,0.028-0.587,0.068-0.88,0.121c-0.139,0.024-0.274,0.057-0.405,0.099
		c-0.132,0.043-0.247,0.101-0.348,0.174c-0.1,0.073-0.179,0.17-0.237,0.289c-0.058,0.12-0.087,0.265-0.087,0.434
		c0,0.147,0.042,0.27,0.128,0.371c0.084,0.1,0.187,0.179,0.306,0.237c0.12,0.058,0.251,0.099,0.394,0.121
		c0.142,0.023,0.272,0.035,0.388,0.035c0.146,0,0.304-0.019,0.474-0.057c0.17-0.04,0.33-0.105,0.481-0.198
		c0.15-0.092,0.276-0.21,0.376-0.352c0.1-0.144,0.15-0.319,0.15-0.528V-8.363z"/>
	<path style="clip-path:url(#SVGID_2_);fill:#575756;" d="M-18.436-13.63h1.319v1.251h-1.319V-13.63z M-18.436-11.349h1.319v5.984
		h-1.319V-11.349z"/>
	<path style="clip-path:url(#SVGID_2_);fill:#575756;" d="M-14.547-8.12c0,0.316,0.054,0.586,0.162,0.811
		c0.108,0.223,0.259,0.406,0.452,0.548c0.193,0.144,0.414,0.247,0.665,0.313s0.523,0.099,0.816,0.099
		c0.317,0,0.587-0.037,0.811-0.11c0.223-0.073,0.405-0.168,0.544-0.284c0.138-0.115,0.239-0.249,0.301-0.399
		c0.062-0.151,0.092-0.303,0.092-0.457c0-0.317-0.072-0.55-0.214-0.701c-0.143-0.15-0.299-0.257-0.469-0.318
		c-0.293-0.107-0.635-0.21-1.024-0.307c-0.39-0.096-0.87-0.221-1.441-0.376c-0.355-0.092-0.651-0.215-0.886-0.365
		s-0.422-0.318-0.561-0.503c-0.139-0.185-0.238-0.382-0.295-0.591c-0.058-0.208-0.087-0.42-0.087-0.636
		c0-0.416,0.087-0.778,0.26-1.082c0.174-0.305,0.403-0.558,0.689-0.758c0.286-0.201,0.61-0.35,0.973-0.446
		c0.362-0.096,0.729-0.145,1.099-0.145c0.432,0,0.839,0.056,1.221,0.168s0.718,0.279,1.007,0.503c0.29,0.224,0.519,0.5,0.689,0.828
		c0.17,0.328,0.255,0.708,0.255,1.14h-1.447c-0.039-0.533-0.22-0.909-0.544-1.128c-0.324-0.22-0.737-0.33-1.239-0.33
		c-0.17,0-0.344,0.017-0.521,0.051c-0.177,0.036-0.34,0.093-0.486,0.174c-0.147,0.081-0.268,0.192-0.364,0.33
		c-0.097,0.139-0.145,0.313-0.145,0.521c0,0.294,0.09,0.523,0.272,0.689c0.181,0.166,0.418,0.291,0.711,0.376
		c0.032,0.008,0.153,0.04,0.365,0.099c0.213,0.057,0.45,0.121,0.712,0.19c0.263,0.07,0.519,0.138,0.77,0.203
		c0.251,0.066,0.43,0.114,0.538,0.145c0.27,0.085,0.506,0.2,0.706,0.348c0.201,0.146,0.368,0.313,0.504,0.503
		c0.135,0.189,0.235,0.391,0.301,0.607c0.065,0.217,0.098,0.433,0.098,0.648c0,0.463-0.094,0.859-0.283,1.187
		c-0.19,0.328-0.438,0.597-0.747,0.805c-0.309,0.208-0.66,0.36-1.053,0.457c-0.394,0.096-0.795,0.144-1.205,0.144
		c-0.47,0-0.914-0.057-1.331-0.174c-0.416-0.115-0.779-0.293-1.088-0.532c-0.309-0.239-0.555-0.546-0.74-0.92
		c-0.186-0.374-0.282-0.816-0.29-1.325H-14.547z"/>
	<path style="clip-path:url(#SVGID_2_);fill:#575756;" d="M-8.782-11.35h0.995v-1.795h1.32v1.795h1.192v0.983h-1.192v3.196
		c0,0.138,0.006,0.258,0.017,0.358c0.012,0.101,0.039,0.186,0.082,0.255c0.042,0.069,0.105,0.121,0.19,0.156
		C-6.093-6.368-5.977-6.35-5.83-6.35c0.092,0,0.185-0.002,0.277-0.006c0.093-0.003,0.186-0.016,0.278-0.04v1.019
		c-0.147,0.015-0.289,0.03-0.428,0.046c-0.139,0.015-0.282,0.023-0.429,0.023c-0.347,0-0.627-0.033-0.838-0.099
		c-0.213-0.065-0.379-0.162-0.499-0.289c-0.119-0.127-0.2-0.287-0.243-0.48c-0.042-0.193-0.067-0.413-0.075-0.66v-3.531h-0.995
		V-11.35z"/>
	<path style="clip-path:url(#SVGID_2_);fill:#575756;" d="M0.687-6.696c0,0.162,0.021,0.277,0.063,0.347
		C0.793-6.28,0.876-6.245,0.999-6.245h0.139c0.054,0,0.116-0.008,0.186-0.023v0.915c-0.047,0.014-0.107,0.032-0.18,0.052
		C1.071-5.282,0.995-5.265,0.918-5.25C0.841-5.234,0.764-5.222,0.687-5.215C0.61-5.207,0.544-5.203,0.49-5.203
		c-0.27,0-0.494-0.055-0.671-0.162c-0.178-0.108-0.294-0.297-0.348-0.567c-0.262,0.255-0.584,0.439-0.966,0.555
		c-0.382,0.116-0.751,0.174-1.106,0.174c-0.27,0-0.529-0.037-0.775-0.11C-3.623-5.386-3.841-5.495-4.03-5.637
		C-4.219-5.78-4.37-5.962-4.482-6.181c-0.112-0.22-0.168-0.477-0.168-0.77c0-0.371,0.068-0.672,0.203-0.903
		c0.135-0.232,0.313-0.412,0.533-0.544c0.219-0.131,0.467-0.226,0.74-0.283c0.274-0.058,0.55-0.103,0.828-0.133
		c0.239-0.047,0.467-0.079,0.683-0.099c0.216-0.019,0.407-0.053,0.573-0.098c0.165-0.047,0.297-0.118,0.394-0.214
		C-0.6-9.322-0.552-9.467-0.552-9.66c0-0.17-0.04-0.308-0.122-0.416c-0.081-0.108-0.181-0.191-0.3-0.249
		c-0.12-0.059-0.253-0.097-0.4-0.116c-0.146-0.02-0.285-0.029-0.416-0.029c-0.371,0-0.676,0.077-0.915,0.231
		C-2.944-10.084-3.079-9.844-3.11-9.52h-1.319c0.023-0.386,0.115-0.706,0.277-0.961c0.162-0.255,0.369-0.459,0.62-0.614
		c0.25-0.155,0.534-0.262,0.85-0.325c0.317-0.061,0.641-0.091,0.972-0.091c0.294,0,0.583,0.03,0.869,0.091
		c0.285,0.063,0.542,0.163,0.77,0.302C0.156-10.979,0.34-10.8,0.478-10.58c0.139,0.22,0.209,0.488,0.209,0.805V-6.696z
		 M-0.633-8.363c-0.201,0.131-0.447,0.21-0.741,0.237C-1.667-8.098-1.96-8.058-2.253-8.005c-0.139,0.024-0.275,0.057-0.405,0.099
		C-2.79-7.863-2.905-7.805-3.006-7.732c-0.1,0.073-0.179,0.17-0.237,0.289C-3.301-7.323-3.33-7.178-3.33-7.009
		c0,0.147,0.042,0.27,0.128,0.371c0.084,0.1,0.187,0.179,0.306,0.237c0.119,0.058,0.251,0.099,0.394,0.121
		C-2.36-6.257-2.23-6.245-2.114-6.245c0.146,0,0.304-0.019,0.474-0.057c0.17-0.04,0.33-0.105,0.481-0.198
		c0.15-0.092,0.276-0.21,0.376-0.352c0.1-0.144,0.15-0.319,0.15-0.528V-8.363z"/>
	<path style="clip-path:url(#SVGID_2_);fill:#575756;" d="M2.11-11.35h1.238v1.157h0.024c0.038-0.162,0.113-0.32,0.225-0.474
		c0.112-0.155,0.247-0.295,0.406-0.423c0.158-0.127,0.333-0.23,0.526-0.307s0.39-0.115,0.591-0.115c0.154,0,0.26,0.004,0.318,0.012
		c0.058,0.007,0.117,0.014,0.179,0.022v1.274c-0.092-0.016-0.187-0.03-0.283-0.041c-0.097-0.011-0.191-0.017-0.284-0.017
		c-0.224,0-0.434,0.044-0.631,0.133S4.051-9.91,3.904-9.736S3.642-9.348,3.557-9.093C3.472-8.838,3.43-8.545,3.43-8.213v2.847H2.11
		V-11.35z"/>
	<path style="clip-path:url(#SVGID_2_);fill:#575756;" d="M5.583-11.35h0.996v-1.795h1.319v1.795H9.09v0.983H7.897v3.196
		c0,0.138,0.006,0.258,0.018,0.358c0.011,0.101,0.038,0.186,0.081,0.255c0.042,0.069,0.106,0.121,0.19,0.156
		C8.271-6.368,8.387-6.35,8.535-6.35c0.092,0,0.185-0.002,0.278-0.006c0.092-0.003,0.185-0.016,0.278-0.04v1.019
		C8.943-5.362,8.8-5.347,8.661-5.331C8.522-5.316,8.379-5.308,8.233-5.308c-0.347,0-0.627-0.033-0.839-0.099
		C7.181-5.472,7.016-5.569,6.896-5.696c-0.12-0.127-0.201-0.287-0.243-0.48c-0.043-0.193-0.068-0.413-0.075-0.66v-3.531H5.583
		V-11.35z"/>
	<path style="clip-path:url(#SVGID_2_);fill:#575756;" d="M15.295-5.365h-1.297v-0.834h-0.023c-0.162,0.302-0.403,0.543-0.723,0.724
		c-0.321,0.181-0.647,0.272-0.978,0.272c-0.788,0-1.357-0.195-1.708-0.585c-0.351-0.389-0.526-0.978-0.526-1.765v-3.796h1.319v3.669
		c0,0.524,0.1,0.895,0.301,1.111c0.2,0.216,0.482,0.324,0.845,0.324c0.278,0,0.509-0.042,0.694-0.127
		c0.186-0.085,0.336-0.199,0.452-0.342c0.116-0.142,0.199-0.314,0.248-0.515c0.051-0.2,0.076-0.416,0.076-0.648v-3.472h1.32V-5.365z
		"/>
	<path style="clip-path:url(#SVGID_2_);fill:#575756;" d="M16.718-11.349h1.25v0.809h0.024c0.185-0.346,0.443-0.595,0.775-0.746
		c0.331-0.15,0.69-0.225,1.077-0.225c0.47,0,0.881,0.083,1.232,0.248c0.351,0.167,0.643,0.393,0.874,0.683
		c0.232,0.29,0.405,0.627,0.521,1.013c0.116,0.386,0.174,0.799,0.174,1.238c0,0.402-0.052,0.791-0.156,1.17
		c-0.104,0.378-0.263,0.711-0.475,1.001c-0.212,0.289-0.481,0.521-0.805,0.695c-0.324,0.174-0.706,0.26-1.146,0.26
		c-0.193,0-0.385-0.017-0.579-0.052c-0.193-0.034-0.378-0.091-0.555-0.167c-0.178-0.078-0.341-0.176-0.492-0.296
		c-0.151-0.119-0.276-0.26-0.376-0.422h-0.023v2.986h-1.32V-11.349z M21.325-8.352c0-0.27-0.035-0.532-0.104-0.786
		c-0.069-0.255-0.174-0.481-0.313-0.678c-0.139-0.196-0.312-0.354-0.52-0.474c-0.209-0.12-0.448-0.18-0.718-0.18
		c-0.556,0-0.974,0.193-1.256,0.579s-0.422,0.899-0.422,1.539c0,0.302,0.036,0.581,0.109,0.84c0.074,0.259,0.183,0.48,0.33,0.665
		c0.147,0.185,0.322,0.332,0.527,0.44c0.204,0.109,0.441,0.162,0.712,0.162c0.301,0,0.555-0.061,0.764-0.185
		c0.208-0.123,0.38-0.283,0.515-0.481c0.135-0.196,0.231-0.42,0.289-0.67C21.296-7.832,21.325-8.089,21.325-8.352"/>
	<polygon style="clip-path:url(#SVGID_2_);fill:#575756;" points="23.906,-13.631 25.353,-13.631 25.353,-10.343 29.115,-10.343 
		29.115,-13.631 30.562,-13.631 30.562,-5.365 29.115,-5.365 29.115,-9.093 25.353,-9.093 25.353,-5.365 23.906,-5.365 	"/>
	<path style="clip-path:url(#SVGID_2_);fill:#575756;" d="M37.369-5.365h-1.297v-0.834h-0.023c-0.162,0.302-0.403,0.543-0.723,0.724
		c-0.321,0.181-0.647,0.272-0.978,0.272c-0.788,0-1.357-0.195-1.708-0.585c-0.351-0.389-0.526-0.978-0.526-1.765v-3.796h1.319v3.669
		c0,0.524,0.1,0.895,0.301,1.111c0.2,0.216,0.482,0.324,0.845,0.324c0.278,0,0.509-0.042,0.694-0.127
		c0.186-0.085,0.336-0.199,0.452-0.342c0.116-0.142,0.199-0.314,0.248-0.515c0.051-0.2,0.076-0.416,0.076-0.648v-3.472h1.32V-5.365z
		"/>
	<path style="clip-path:url(#SVGID_2_);fill:#575756;" d="M38.792-13.63h1.32v3.056h0.023c0.093-0.146,0.204-0.278,0.335-0.393
		c0.132-0.116,0.276-0.214,0.434-0.296c0.159-0.081,0.325-0.143,0.498-0.185c0.174-0.042,0.346-0.063,0.516-0.063
		c0.47,0,0.881,0.083,1.232,0.248c0.351,0.167,0.643,0.393,0.874,0.683c0.232,0.29,0.405,0.627,0.521,1.013
		c0.116,0.386,0.174,0.799,0.174,1.238c0,0.402-0.052,0.791-0.156,1.17c-0.104,0.378-0.263,0.711-0.475,1.001
		c-0.212,0.289-0.481,0.521-0.805,0.695c-0.324,0.174-0.706,0.26-1.146,0.26c-0.2,0-0.403-0.013-0.608-0.041
		C41.325-5.271,41.13-5.323,40.945-5.4c-0.185-0.077-0.353-0.177-0.504-0.301c-0.15-0.123-0.275-0.285-0.375-0.486h-0.024v0.822
		h-1.25V-13.63z M43.399-8.352c0-0.27-0.035-0.532-0.104-0.786c-0.069-0.255-0.174-0.481-0.313-0.678
		c-0.139-0.196-0.312-0.354-0.52-0.474c-0.209-0.12-0.448-0.18-0.718-0.18c-0.556,0-0.974,0.193-1.256,0.579
		s-0.422,0.899-0.422,1.539c0,0.302,0.036,0.581,0.109,0.84c0.074,0.259,0.183,0.48,0.33,0.665c0.147,0.185,0.322,0.332,0.527,0.44
		c0.204,0.109,0.442,0.162,0.712,0.162c0.301,0,0.555-0.061,0.764-0.185c0.208-0.123,0.38-0.283,0.515-0.481
		c0.135-0.196,0.231-0.42,0.289-0.67C43.37-7.832,43.399-8.089,43.399-8.352"/>
	<g style="clip-path:url(#SVGID_2_);">
		<text transform="matrix(1 0 0 1 -57 -25.0853)" style="fill:#575756; font-family:'HelveticaNeue-Medium'; font-size:12.7761px;">#DxbSmartComp</text>
	</g>
</g>
</svg>
